<?xml version="1.0" encoding="utf-8" ?>
<svg baseProfile="full" height="300mm" version="1.1" viewBox="0,0,200,300" width="200mm" xmlns="http://www.w3.org/2000/svg" xmlns:ev="http://www.w3.org/2001/xml-events" xmlns:xlink="http://www.w3.org/1999/xlink"><defs /><rect fill="#222222" height="300" width="200" x="0" y="0" /><text fill="#FFFFFF" style="font-size:12px; font-family:Arial; font-weight:bold;" x="10" y="20">Over 3km Runs</text><text fill="#FFFFFF" style="font-size:4px; font-family:Arial" x="10" y="280">ATHLETE</text><text fill="#FFFFFF" style="font-size:9px; font-family:Arial" x="10" y="290">吴涛</text><text fill="#FFFFFF" style="font-size:4px; font-family:Arial" x="120" y="280">STATISTICS</text><text fill="#FFFFFF" style="font-size:3px; font-family:Arial" x="120" y="285">Number: 1</text><text fill="#FFFFFF" style="font-size:3px; font-family:Arial" x="120" y="290">Weekly: 1.0</text><text fill="#FFFFFF" style="font-size:3px; font-family:Arial" x="141" y="285">Total: 16.7 km</text><text fill="#FFFFFF" style="font-size:3px; font-family:Arial" x="141" y="290">Avg: 16.7 km</text><text fill="#FFFFFF" style="font-size:3px; font-family:Arial" x="167" y="285">Min: 16.7 km</text><text fill="#FFFFFF" style="font-size:3px; font-family:Arial" x="167" y="290">Max: 16.7 km</text><polyline fill="none" points="67.4127954468131,213.72011877782643 88.82724415138364,229.92000825703144 120.48338571935892,225.60004016570747 146.5531493574381,112.20024376083165 126.06976363807917,75.48004786670208 106.51744090765715,73.32003235444427 74.86129934713244,96.00017312821001 59.03322856500745,194.28021849505603 84.171929217875,226.68003235384822 105.58637792244554,228.84001639857888 130.7250785753131,207.24015600420535 145.62208637222648,101.40019943844527 124.20763766765594,75.48004786670208 100.93106298521161,73.32003235444427 74.86129934713244,97.08017861098051 60.89535453543067,193.20022298395634 90.68937012925744,228.84001639857888 123.27657467499375,220.2000775579363 145.62208637222648,116.52025838661939 134.44933052361012,84.12010548077524 82.30980324372649,83.04009866900742 59.03322856500745,181.32026503235102 75.79236233234406,222.3600629363209 106.51744090765715,229.92000825703144 127.00082662701607,216.96009866613895 145.62208637222648,100.32019439898431 124.20763766765594,75.48004786670208 80.44767726585269,85.20011218544096 59.03322856500745,188.88023982476443 76.72342532128096,224.52004786860198 96.27574805170298,231.0 127.93188961222768,214.80011218599975 145.62208637222648,113.28024758119136 129.79401559010148,79.8000775584951 109.31062987074256,72.2400244306773 76.72342532128096,91.68015007767826 59.96429155021906,198.60019943583757 99.0689370110631,231.0 129.79401559010148,212.64012525603175 145.62208637222648,115.44025489501655 130.7250785753131,78.72007030248642 95.34468506649137,73.32003235444427 79.51661428436637,87.36012526135892 60.89535453543067,196.44020918942988 91.62043311446905,228.84001639857888 113.96594480797648,226.68003235384822 131.65614156425,201.84018398169428 143.75996039062738,100.32019439898431 117.69019675254822,72.2400244306773 84.171929217875,85.20011218544096 61.82641752436757,200.760189242661 88.82724415138364,227.76002443116158 126.06976363807917,219.12008470576257 140.96677143499255,89.52013789303601 109.31062987074256,71.1600163988769 76.72342532128096,91.68015007767826 62.75748051330447,193.20022298395634 68.34385843575001,213.72011877782643 100.93106298521161,229.92000825703144 132.5872045494616,206.160161819309 145.62208637222648,102.48020437080413 113.96594480797648,71.1600163988769 92.55149610340595,76.56005545519292 72.06811038777232,106.80022298637778 65.5506694726646,209.40014403872192 112.10381883382797,226.68003235384822 133.5182675346732,201.84018398169428 140.03570844978094,88.44013163354248 101.86212597042322,72.2400244306773 74.86129934713244,98.16018398292363 63.68854350224137,194.28021849505603 70.20598440989852,212.64012525603175 103.72425194829702,228.84001639857888 130.7250785753131,213.72011877782643 146.5531493574381,110.04023578297347 111.17275584861636,73.32003235444427 87.89618116989732,78.72007030248642 72.06811038777232,103.56020919140428 63.68854350224137,205.08016752731055 92.55149610340595,228.84001639857888 126.06976363807917,216.96009866613895 134.44933052361012,197.52020436804742 143.75996039062738,100.32019439898431 115.828070782125,72.2400244306773 74.86129934713244,102.48020437080413 66.4817324616015,209.40014403872192 91.62043311446905,229.92000825703144 123.27657467499375,223.4400554560125 144.69102338328958,111.12023982778192 124.20763766765594,75.48004786670208 75.79236233234406,91.68015007767826 63.68854350224137,183.48025838192552 74.86129934713244,220.2000775579363 102.79318895936012,228.84001639857888 126.06976363807917,218.04009174369276 143.75996039062738,106.80022298637778 125.13870065286756,76.56005545519292 106.51744090765715,71.1600163988769 77.65448830276728,90.60014404077083 59.96429155021906,191.04023162461817 79.51661428436637,224.52004786860198 113.03488181903958,225.60004016570747 129.79401559010148,209.40014403872192 145.62208637222648,105.72021849639714 109.31062987074256,71.1600163988769 77.65448830276728,87.36012526135892 60.89535453543067,195.36021389905363 83.2408662289381,227.76002443116158 127.00082662701607,211.56013162899762 142.82889740914106,103.56020919140428 116.7591337673366,72.2400244306773 98.1378740221262,72.2400244306773 73.93023635819554,98.16018398292363 61.82641752436757,199.68019439652562 86.03405518829823,225.60004016570747 128.86295260116458,210.4801378902048 145.62208637222648,100.32019439898431 134.44933052361012,79.8000775584951 101.86212597042322,71.1600163988769 60.89535453543067,101.40019943844527 64.6196064837277,202.92017860896885 94.41362207382917,228.84001639857888 127.00082662701607,214.80011218599975 145.62208637222648,102.48020437080413 102.79318895936012,70.08000825345516 72.06811038777232,102.48020437080413 63.68854350224137,205.08016752731055 72.99917336925864,219.12008470576257 113.03488181903958,224.52004786860198 134.44933052361012,198.60019943583757 135.38039351254702,84.12010548077524 104.65531493350863,70.08000825345516 86.96511818096042,77.64006293658167 63.68854350224137,135.96030226163566 71.13704739883542,218.04009174369276 112.10381883382797,228.84001639857888 135.38039351254702,198.60019943583757 140.96677143499255,90.60014404077083 128.86295260116458,76.56005545519292 93.48255908861756,76.56005545519292 66.4817324616015,139.200306086801 65.5506694726646,212.64012525603175 115.828070782125,224.52004786860198 134.44933052361012,191.04023162461817 139.10464545711875,87.36012526135892 101.86212597042322,71.1600163988769 71.13704739883542,105.72021849639714 64.6196064837277,207.24015600420535 78.58555129542947,223.4400554560125 115.828070782125,226.68003235384822 134.44933052361012,198.60019943583757 140.03570844978094,91.68015007767826 94.41362207382917,73.32003235444427 73.93023635819554,106.80022298637778 70.20598440989852,219.12008470576257 122.34551168978214,223.4400554560125 143.75996039062738,104.64021390024573 122.34551168978214,72.2400244306773 86.96511818096042,76.56005545519292 74.86129934713244,92.7601560074836 61.82641752436757,194.28021849505603 66.4817324616015,212.64012525603175 97.20681103691459,229.92000825703144 130.7250785753131,207.24015600420535 144.69102338328958,103.56020919140428 118.62125974148512,72.2400244306773 76.72342532128096,92.7601560074836 61.82641752436757,194.28021849505603 91.62043311446905,227.76002443116158 130.7250785753131,209.40014403872192 144.69102338328958,101.40019943844527 118.62125974148512,71.1600163988769 75.79236233234406,91.68015007767826 60.89535453543067,195.36021389905363 86.96511818096042,224.52004786860198 131.65614156425,204.00017312448472 145.62208637222648,107.88022736087441 139.10464545711875,86.28011877741665 105.58637792244554,69.0 73.93023635819554,102.48020437080413 64.6196064837277,208.3201500782743 108.37956688553095,226.68003235384822 131.65614156425,206.160161819309 144.69102338328958,98.16018398292363 105.58637792244554,70.08000825345516 72.06811038777232,94.92016753088683 59.96429155021906,204.00017312448472 93.48255908861756,227.76002443116158 128.86295260116458,209.40014403872192 145.62208637222648,105.72021849639714 113.96594480797648,73.32003235444427 92.55149610340595,76.56005545519292 71.13704739883542,104.64021390024573 58.10216557979584,198.60019943583757 65.5506694726646,214.80011218599975 101.86212597042322,228.84001639857888 129.79401559010148,209.40014403872192 146.5531493574381,117.60026176646352 139.10464545711875,89.52013789303601 106.51744090765715,72.2400244306773 86.96511818096042,79.8000775584951 59.96429155021906,133.80029915831983 58.10216557979584,192.1202273592353 93.48255908861756,228.84001639857888 127.93188961222768,212.64012525603175 147.4842123426497,103.56020919140428 114.8970077894628,70.08000825345516 79.51661428436637,87.36012526135892 59.96429155021906,125.16028231941164 59.03322856500745,201.84018398169428 86.03405518829823,226.68003235384822 133.5182675346732,204.00017312448472 146.5531493574381,110.04023578297347 140.03570844978094,88.44013163354248 110.24169285595417,71.1600163988769 70.20598440989852,104.64021390024573 60.89535453543067,196.44020918942988 86.03405518829823,228.84001639857888 131.65614156425,208.3201500782743 147.4842123426497,106.80022298637778 121.41444870457053,72.2400244306773 72.99917336925864,98.16018398292363 55.308976616710424,189.960235780105 77.65448830276728,220.2000775579363 130.7250785753131,212.64012525603175 147.4842123426497,111.12023982778192 121.41444870457053,72.2400244306773 73.93023635819554,88.44013163354248 54.37791362777352,189.960235780105 82.30980324372649,223.4400554560125 103.72425194829702,225.60004016570747 132.5872045494616,201.84018398169428 145.62208637222648,102.48020437080413 114.8970077894628,73.32003235444427 74.86129934713244,92.7601560074836 58.10216557979584,188.88023982476443 79.51661428436637,223.4400554560125 130.7250785753131,209.40014403872192 145.62208637222648,107.88022736087441 124.20763766765594,75.48004786670208 105.58637792244554,72.2400244306773 75.79236233234406,99.24018924869597 53.44685063883662,187.80024375673383 94.41362207382917,227.76002443116158 129.79401559010148,210.4801378902048 145.62208637222648,105.72021849639714 125.13870065286756,75.48004786670208 94.41362207382917,74.40004016738385 76.72342532128096,94.92016753088683 52.51578765362501,185.64025129377842 80.44767726585269,223.4400554560125 108.37956688553095,224.52004786860198 129.79401559010148,208.3201500782743 142.82889740914106,97.08017861098051 111.17275584861636,71.1600163988769 74.86129934713244,96.00017312821001 58.10216557979584,195.36021389905363 88.82724415138364,222.3600629363209 134.44933052361012,195.36021389905363 145.62208637222648,110.04023578297347 112.10381883382797,74.40004016738385 79.51661428436637,91.68015007767826 59.96429155021906,201.84018398169428 87.89618116989732,227.76002443116158 120.48338571935892,221.28007030300796 134.44933052361012,200.760189242661 144.69102338328958,99.24018924869597 112.10381883382797,74.40004016738385 72.99917336925864,107.88022736087441 61.82641752436757,202.92017860896885 97.20681103691459,228.84001639857888 133.5182675346732,195.36021389905363 142.82889740914106,99.24018924869597 114.8970077894628,72.2400244306773 77.65448830276728,89.52013789303601 56.240039601922035,196.44020918942988 102.79318895936012,227.76002443116158 132.5872045494616,199.68019439652562 143.75996039062738,102.48020437080413 133.5182675346732,81.96009174454957 95.34468506649137,74.40004016738385 69.27492142096162,100.32019439898431 56.240039601922035,199.68019439652562 77.65448830276728,222.3600629363209 104.65531493350863,225.60004016570747" stroke="#4DD2FF" stroke-linecap="round" stroke-linejoin="round" stroke-width="0.5"><title>2023-06-04 16.7km</title></polyline></svg>