<?xml version="1.0" encoding="utf-8" ?>
<svg baseProfile="full" height="300mm" version="1.1" viewBox="0,0,200,300" width="200mm" xmlns="http://www.w3.org/2000/svg" xmlns:ev="http://www.w3.org/2001/xml-events" xmlns:xlink="http://www.w3.org/1999/xlink"><defs /><rect fill="#222222" height="300" width="200" x="0" y="0" /><text fill="#FFFFFF" style="font-size:12px; font-family:Arial; font-weight:bold;" x="10" y="20">Over 3km Runs</text><text fill="#FFFFFF" style="font-size:4px; font-family:Arial" x="10" y="280">ATHLETE</text><text fill="#FFFFFF" style="font-size:9px; font-family:Arial" x="10" y="290">吴涛</text><text fill="#FFFFFF" style="font-size:4px; font-family:Arial" x="120" y="280">STATISTICS</text><text fill="#FFFFFF" style="font-size:3px; font-family:Arial" x="120" y="285">Number: 4</text><text fill="#FFFFFF" style="font-size:3px; font-family:Arial" x="120" y="290">Weekly: 1.0</text><text fill="#FFFFFF" style="font-size:3px; font-family:Arial" x="141" y="285">Total: 65.3 km</text><text fill="#FFFFFF" style="font-size:3px; font-family:Arial" x="141" y="290">Avg: 16.3 km</text><text fill="#FFFFFF" style="font-size:3px; font-family:Arial" x="167" y="285">Min: 10.1 km</text><text fill="#FFFFFF" style="font-size:3px; font-family:Arial" x="167" y="290">Max: 28.3 km</text><polyline fill="none" points="71.41140830662334,76.93640732116182 71.02496732943109,75.97844801763131 70.88519080576953,75.11219831265043 70.27675182049279,74.20517382949765 69.98897662470699,73.13507549732458 69.42164838168537,72.18726212308684 69.29009400645737,71.53499691169418 69.31476045178715,71.14771191753243 69.46275912391138,71.01521925078123 69.24076111573959,70.6788907232185 69.2160946704098,70.91330166497937 68.99409666223801,70.62793173161481 68.86254228706821,70.27121787850774 68.96120806841645,70.09795628822758 68.69809931807686,69.96546187690547 68.84609799014288,69.92469432142389 68.69809931807686,69.57816925813677 68.81320939635043,68.96665076617501 68.50898990369751,68.04936423292384 68.41854627075372,66.94860646061716 67.6292200195021,65.99052713868878 67.87588447303278,65.62360009362601 67.75255224626744,65.205708901849 67.19344615165028,64.54319398616644 67.2756676361605,64.10491186187573 67.0125588857336,63.39142417933908 66.19034404074773,62.535230530142144 65.85323595427326,62.02558708685683 65.88612454806571,61.80134293949959 65.66412653989391,62.01539418475295 65.60657150077168,61.36304573892994 65.359907047241,60.76165728572232 64.82546739801182,60.08891228312132 64.66924657742493,59.518093888502335 63.59214513047482,58.22354416631424 62.827485324582085,56.67413417821081 62.58904301954317,56.61297263963934 62.39993360519293,56.358132390421815 62.49859938657028,56.0319356823602 63.098816223442554,55.97077365093719 62.89326251219609,55.90961157262791 62.86037391840364,55.6038004768634 62.6712645040534,55.44070074597403 62.827485324582085,53.860654823234654 62.96726184824365,53.65677564809448 62.9343732544512,52.780089251442405 63.05770548118744,52.92280629880406 63.0001504420361,52.780089251442405 62.70415309781674,52.85144780707924 62.564376574155176,52.7291188154195 62.605487316439394,52.18883018950146 63.69081091185217,51.07765904883854 63.10703837190522,50.629108510656806 63.238592747133225,49.742194332851795 62.66304235561984,49.53830462060432 62.802818879223196,49.05916174333106 62.51504368352471,48.01930984312639 62.07926981561468,47.90716814130428 61.94771544044488,47.69307899956766 61.67638454155531,46.795937292743474 61.7010509869142,46.20463382674643 61.44616438494995,45.572545958915725 61.16661133765592,45.36864557702211 61.298165712854825,45.29728032008279 61.14194489229703,45.11376936586748 61.224166376836365,44.736551077076 60.91994688415434,44.71616084843117 60.30328575038584,45.04240388063772 60.10595418760204,44.97103833149595 59.91684477319359,44.17581788789539 59.35773867860553,43.7068380082128 58.971297701471485,42.84023748891923 58.95485340451705,42.45281303133379 58.584856724279234,42.075582143937936 58.280637231626315,41.38228828771389 57.86130766067072,41.107008171471534 57.50775527730002,40.48507551794319 56.89109414353152,40.118031017977046 56.734873322973726,39.506286426854786 56.09354574387544,38.721207318980305 56.07710144695011,38.3847424757987 55.5508839461836,37.42631967863417 55.353552383341594,36.72278922294208 55.17266511748312,36.569846997350396 55.008222148462664,36.61063161955826 55.15622082052869,36.17219583665428 54.92600066392333,36.406708299742604 55.02466644535889,36.06003745802445 54.761557694961084,36.37611975675827 54.84377917947131,36.03964500861184 54.720446952676866,36.15180341589439 54.728669101168634,35.713365107629215 54.588892577477964,35.82552397433028 54.20245160031482,35.427869098013616 54.39156101466506,35.17296108188748 54.572448280552635,35.234139080159366 54.65466976509197,35.4992431963401 54.88488992169732,35.36669124853506 55.1315543751989,35.46865430487378 54.662891913583735,35.46865430487378 54.704002655809745,35.36669124853506 54.67111406198819,35.45845800512325 55.10688792986912,35.58081351612054 55.55910609458806,36.07023368080263 55.46866246164427,35.93768268311396 55.58377253994695,36.04984123394388 56.0359907047241,35.876505225161964 56.266210861329455,36.09062612238631 57.10487000324065,35.958075158625434 57.69686469165026,36.08042990224931 58.19841574714519,35.99886009404145 58.453302349109435,36.29455025133939 58.43685805218411,36.58004315487051 58.51085738820257,36.04984123394388 58.35463656767388,35.550224655999045 58.50263523979811,35.57061723073275 58.47796879443922,35.723561374754354 58.576634575845674,35.67258002603921 58.428635903750546,35.77454269086593 58.60130102120456,35.98866386216832 58.86440977160237,35.907093960020575 58.87263192006503,35.754150168344495 58.765743990195915,35.305513352068374 58.346414419211214,35.142372065150994 58.26419293473009,34.77530294796452 59.08640777977416,34.5 59.12751852200017,35.00981952352595 59.037074889056385,34.6325533900017 58.708188951044576,34.5 59.316627936350415,34.826284870934614 59.48929305380443,34.693731803308765 59.81817899181624,34.73451738610311 59.678402468183776,34.83648125160835 58.823299029347254,34.581571343042015 58.527301685127895,34.693731803308765 58.39574730992899,35.142372065150994 58.782188287121244,35.37688756002899 58.90552051385748,35.94787892152817 58.23130434090854,36.03964500861184 57.022648518759524,35.958075158625434 56.3237659005099,36.1212147749975 55.97843566557276,35.94787892152817 55.5508839461836,36.11101855880406 54.958889257744886,35.59100980020594 54.63000331973308,35.48904690051131 54.465560350741725,35.20355008690967 54.36689456933527,35.35649493573146 54.90955636705621,36.33533501448983 55.15622082052869,36.24356926805194 55.18088726591668,36.70239694315387 55.47688461013604,37.03886889198475 55.45221816477715,37.22239844687283 56.233322267537005,38.89453713816329 56.997982073400635,39.32276213349542 56.6526518384926,39.77137632641097 57.047314964118414,39.81215930959297 57.35153445674223,40.06705248146318 57.45842238658224,40.291357798130775 57.35975660520489,40.48507551794319 57.4913109804329,40.638010227172344 57.853085512208054,40.50546682946151 57.79553047308582,40.872509544409695 57.93530699671828,41.005052331471234 58.60130102120456,40.750162160657055 58.68352250568569,41.30072390800342 59.06996348281973,42.12655939528486 59.05351918595261,42.493594641884556 59.587958835210884,43.482542307341646 59.68662461661734,44.01269476459129 59.94973336701514,44.23698897303984 60.13062063290272,44.99142849491909 60.30328575038584,45.09337923377461 60.722615321341436,44.869087436105474 60.829503251210554,44.43069709948031 60.829503251210554,44.81811193952308 61.248832822195254,44.79772173172387 61.363942900439724,45.10357430046861 61.224166376836365,45.48079085160862 61.42149793959106,45.552155944176775 61.69282883845153,46.27599827103404 61.67638454155531,47.06100293929194 62.04638122182223,47.84599987377442 62.49859938657028,47.988725758295914 62.50682153503294,48.40670723513176 62.769930285430746,48.93682692995935 62.64659805869451,49.60966607922455 63.08237192654633,49.6198605680911 63.18925985638634,49.772777744678024 63.024816887424095,50.710663341742475 62.69593094938318,50.272305143167614 63.0001504420361,50.537359225869295 62.71237524627941,50.64949722622987 62.96726184824365,50.70046899243607 62.74526384010096,50.68008028984332 62.6712645040534,50.5271648543785 62.51504368352471,50.639302869094536 62.03815907338867,50.55774796495098 62.13682485476602,49.32421986126428 61.93127114349045,48.76351895622065 61.594163057074184,49.466943098079355 60.755503915133886,50.00725017881632 60.37728508646251,50.7718294103106 59.85928973404225,50.91455005435273 59.09462992820772,50.598525427449204 57.87775195756694,51.098047649684304 57.90241840289673,51.3325161843386 58.09152781730518,51.373293250391725 58.60952316963812,50.91455005435273 59.102852076641284,50.75144072600233 59.70306891351356,51.179602000869636 60.39372938332963,51.14901912894129 61.035056962427916,50.598525427449204 61.42972008805373,51.83203380560008 60.71439317287877,52.4844602688172 59.78529039802379,52.98397066945472 59.59618098367355,54.5334524005666 58.91374266229104,54.74752316586819 57.56531031645136,56.0217420136978 56.35665449427324,56.47026220046973 55.69888261827873,56.87800563442579 55.509773203899385,57.34690800464159 55.60021683687228,57.520197312842356 56.40598738496192,57.08187656913651 57.57353246488492,56.816844252316514 57.72975328550092,57.000328257832734 57.515977425762685,57.85658136499842 57.606421058706474,58.01967615194735 58.691744654177455,57.77503384634474 59.530403796059545,57.897355093031365 59.78529039802379,58.16238381675066 59.045297037489945,58.98804457583901 57.976417738973396,59.86466268703225 56.63620754156727,61.44458958661562 55.43577386782272,62.576001864850696 55.30421949265292,62.62696600391064 55.221998008171795,62.474073489021976 56.35665449427324,61.24072981096833 56.6526518384926,60.50683030129585 57.72153113700915,59.161330315888335 57.7544197308016,58.896304913905624 57.47486668350757,58.86572500310285 56.504653166397475,59.161330315888335 54.498448944534175,59.05939757323358 53.72556699017878,58.76379188242572 52.5086890195671,58.621085294449585 52.237358120735735,58.3356713519388 52.22913597224397,58.10122342024988 53.4131253491214,56.68432776339614 54.04623077978613,56.29697060937906 54.07089722514502,56.12367864144471 52.54979976185132,57.29594048931904 51.41514327569166,57.683292788155086 50.8560371811036,58.54973190462624 50.75737139969715,58.41721829695598 50.89714792332961,58.05025638733787 50.782037845026935,57.96870906685217 50.53537339155446,58.48857180539926 50.55181768845068,58.76379188242572 51.02870229858672,59.35500216772198 50.806704290385824,60.81262258486822 52.1551366361964,61.50574741766468 52.484022574237315,62.6371588277907 52.2455802691984,63.91125155095506 50.979369407868944,64.9814737006891 51.06981304081273,66.07206625270919 51.67825202611857,67.346104076154 52.80468636378646,68.01878783337452 53.59401261500898,69.01761081966106 53.972231443738565,69.86354294909688 53.7666777324921,71.25982092507911 53.35557030994096,72.24841171304433 53.32268171617761,73.22679877428163 53.69267839641543,73.49177653720835 55.082221484481124,73.86885875841836 55.63310543066473,73.65483933821088 55.87976988419541,73.19622436034115 56.63620754156727,72.41147705705225 56.784206213691505,72.36051917287841 56.858205549709965,72.4930096039825 56.46354242414236,72.80894743575482 55.51799535236205,74.42938308876182 54.40800531159039,75.5911846068484 53.9640092952759,75.49946404986258 53.63512335723499,74.75550452218158 52.730687027738895,74.70454813614924 52.220913823810406,74.19498248456512 52.09758159707417,74.26632187182986 53.00201792657026,75.35678741816082 53.5446797242912,76.77335123118974 53.20757163784583,77.47652823753015 53.15001659869449,78.8421006510398 52.451133980444865,80.18726852208056 52.204469526943285,81.0738440306668 52.52513331649243,81.71584083204652 52.63202124633244,82.3170712451174 53.62690120883053,83.88636317029159 53.972231443738565,85.12954654001078 54.292895233258605,85.3639150041563 54.65466976509197,85.26201575653977 56.01132425936521,86.09758574367879 56.90753844045685,86.24024315924908 57.14598074549576,86.61726510064909 56.3895430880948,86.46441858247272 56.175767228385666,86.60707534188259 56.27443300979212,88.65519068664435 55.37821882870048,89.12390620587394 55.53443964928738,92.43540476915223 55.42755171941826,93.2403328801156 48.57027991194627,93.36259973068809 43.71921232630848,92.80220845998701 41.74589669829584,92.74107462864049 41.49923224476515,92.90409807478136 41.43345505715115,97.7844582091202 41.17856845521601,98.05954268878122 39.920579742320115,98.29387316403881 39.912357593886554,99.54702010969777 39.7479146248661,100.24999636320717 38.65436888099066,101.40123395076807 38.58859169340576,101.696681626403 38.73659036550089,109.59186080280051 38.99147696746513,109.89746493714483 39.377917944599176,109.99933272181079 41.30190068198135,110.0095194931273 41.565009432379156,110.1623209068348 41.713008104474284,114.65455172549264 41.556787283945596,115.19441731987172 39.07369845197536,115.5 38.96681052207714,115.36758098227438 38.98325481900247,114.13505496975267 39.07369845197536,115.43888355756644 38.7777011077269,115.47962785771233 38.85170044377446,114.06375122954341 39.05725415502093,113.66648636783066 39.155919936456485,113.73779046301206 39.945246187679004,112.00610156615585 39.72324817950721,112.13852616165241 39.59991595274187,111.9959150496943 39.93702403924544,111.95516897092602 39.48480587446829,112.07740714488318 39.53413876515697,112.18945863985573 39.98635692993412,111.90423634317995 39.51769446828985,112.07740714488318 39.55058306205319,112.25057757081959 39.29569646008895,112.31169645495538 39.29569646008895,112.44412054332497 39.54236091359053,112.2403910855719 39.44369513221318,112.11815316125285 39.20525282714516,113.36089666700718 38.99147696746513,113.35071032347332 39.04080985815381,113.21828773946618 39.16414208491915,113.26921952859993 39.427250835316954,113.03493302964489 39.904135445394786,113.03493302964489 40.175466344255256,113.18772865045321 40.37279790706816,113.05530579599144 40.9154597047891,113.07567855714296 41.2690120881598,113.26921952859993 41.474565799406264,113.07567855714296 41.474565799406264,112.67840877675917 41.721230252907844,112.39318822764471" stroke="#ff0000" stroke-linecap="round" stroke-linejoin="round" stroke-width="0.5"><title>2024-03-30 28.3km</title></polyline><polyline fill="none" points="126.84427919983864,97.14010924752802 138.948093065992,113.88001221604645 160.36253298260272,104.1600750386715 165.94890861399472,50.16009720088914 151.05190693214536,36.66001617722213 131.49959222599864,48.540089305490255 127.30981050245464,98.22010459424928 142.206812184304,113.88001221604645 160.36253298260272,102.00008656131104 166.41443991661072,52.86010924819857 152.91403214260936,34.5 132.430654829368,44.220065814908594 127.30981050245464,97.68010694812983 140.34468697384,113.34001617738977 159.43147037923336,103.620078003034 166.41443991661072,51.7801045961678 152.44850083999336,34.5 132.430654829368,44.220065814908594 129.17193571291864,95.52011581277475 141.27574958093464,112.80002008238807 160.36253298260272,101.46008930262178 166.87997121922672,56.100121879950166 158.03487647138536,37.20002008229494 139.87915567308664,36.66001617722213 131.96512352861464,46.92008091323078 130.10299831815064,80.94015246024355 128.70640441030264,43.68006263067946 124.98215399123728,98.76010218448937 144.53446869552135,114.9600041275844 159.89700167998672,101.46008930262178 165.48337730951607,49.62009462388232 148.258719118312,35.580008199904114 131.03406092338264,49.62009462388232 127.30981050245464,99.30009971838444 144.068937394768,113.34001617738977 160.36253298260272,100.38009462272748 165.01784600876272,45.840075040236115 146.396593907848,35.580008199904114 131.03406092338264,53.40011149272323 128.24087310768664,106.32006262941286 143.13787478767335,114.9600041275844 157.56934516690671,106.32006262941286 132.89618613384664,48.00008656224236 126.84427919983864,100.38009462272748 143.13787478767335,114.9600041275844 160.36253298260272,102.00008656131104 165.01784600876272,46.92008091323078 149.189781723544,36.12001221626997 135.223842645064,42.06005274038762 125.91321659460664,88.50013849884272 134.758311342448,112.80002008238807 158.50040777400136,105.24006894323975 165.48337730951607,53.40011149272323 155.70721995830536,38.820031467825174 142.67234348692,37.74002393335104 132.430654829368,46.38007800467312 125.91321659460664,98.76010218448937 139.87915567308664,114.42000820022076 158.50040777400136,105.24006894323975 131.03406092338264,47.46008376497775 124.98215399123728,99.84009719919413 141.741280881688,114.9600041275844 159.43147037923336,102.54008376272395 165.01784600876272,48.540089305490255 149.189781723544,36.12001221626997 131.96512352861464,46.92008091323078 125.91321659460664,100.38009462272748 143.13787478767335,114.9600041275844 159.43147037923336,103.08008091058582 165.48337730951607,53.40011149272323 149.189781723544,36.66001617722213 136.620436552912,40.980045872274786 130.56852962076664,53.40011149272323 128.24087310768664,106.86005938798189 140.810218276456,114.9600041275844 156.63828256353736,107.94005274027586 132.430654829368,46.92008091323078 124.51662268675864,99.84009719919413 141.27574958093464,114.9600041275844 158.96593907661736,104.1600750386715 165.48337730951607,52.3201069496572 149.189781723544,36.66001617722213 130.56852962076664,48.540089305490255 124.51662268675864,99.30009971838444 142.67234348692,115.5 160.82806428521872,102.00008656131104 164.08678340353072,47.46008376497775 147.793187815696,37.20002008229494 134.29278004169464,44.220065814908594 124.05109138414264,96.06011367915198 135.68937394954264,113.88001221604645 157.56934516690671,110.10003877989948 129.63746701739728,75.00015581212938 129.17193571291864,107.40005609253421 141.27574958093464,115.5 155.24168865568936,111.72002772754058 165.48337730951607,55.02011789055541 153.37956344522536,38.28002772759646 132.430654829368,45.300072020385414 124.51662268675864,98.22010459424928 140.34468697384,114.9600041275844 159.43147037923336,104.70007201842964 165.48337730951607,54.48011581413448 150.12084432691336,37.20002008229494 131.96512352861464,48.00008656224236 125.44768529385328,100.92009199038148 140.34468697384,114.9600041275844 158.50040777400136,107.40005609253421 165.01784600876272,53.94011368183419 151.98296953737736,37.74002393335104 131.49959222599864,48.540089305490255 124.51662268675864,100.38009462272748 138.48256176523864,114.9600041275844 158.50040777400136,106.32006262941286 165.48337730951607,53.94011368183419 154.77615735307336,38.28002772759646 141.27574958093464,38.28002772759646 131.96512352861464,47.46008376497775 124.05109138414264,98.22010459424928 138.48256176523864,114.9600041275844 158.50040777400136,107.40005609253421 165.01784600876272,55.56011991389096 152.44850083999336,38.28002772759646 131.96512352861464,47.46008376497775 123.58556008338928,97.14010924752802 138.948093065992,114.9600041275844 158.50040777400136,104.1600750386715 165.48337730951607,53.94011368183419 152.44850083999336,37.20002008229494 131.49959222599864,48.00008656224236 124.05109138414264,98.22010459424928 137.55149916000664,114.9600041275844 158.03487647138536,106.86005938798189 165.48337730951607,53.94011368183419 152.91403214260936,37.74002393335104 131.49959222599864,48.00008656224236 124.05109138414264,97.68010694812983 138.48256176523864,114.9600041275844 158.03487647138536,106.32006262941286 165.48337730951607,52.3201069496572 150.586375631392,37.74002393335104 131.96512352861464,47.46008376497775 124.51662268675864,99.30009971838444 138.948093065992,114.9600041275844 158.03487647138536,106.86005938798189 165.48337730951607,57.7201274484396 155.70721995830536,38.820031467825174 133.36171743646264,45.300072020385414 123.58556008338928,97.68010694812983 138.948093065992,114.42000820022076 157.56934516690671,107.94005274027586 165.48337730951607,53.94011368183419 154.77615735307336,38.820031467825174 132.89618613384664,45.840075040236115 123.12002878077328,92.82012564642355 133.36171743646264,112.26002393197268 156.17275126092136,109.02004587091506 165.01784600876272,56.640123791527 155.70721995830536,39.360035152640194 132.89618613384664,44.76006894558668 123.58556008338928,92.82012564642355 135.223842645064,113.88001221604645 155.70721995830536,110.10003877989948 163.15572079829872,45.840075040236115 141.27574958093464,38.820031467825174 128.70640441030264,60.960137088317424 124.98215399123728,103.08008091058582 136.620436552912,113.88001221604645" stroke="#4dd2ff" stroke-linecap="round" stroke-linejoin="round" stroke-width="0.5"><title>2023-09-05 10.4km</title></polyline><polyline fill="none" points="36.956748232245445,253.54034636868164 49.14180137403309,264.956379967276 65.07610163837671,262.7818992729299 77.7298106700182,204.07058323919773 67.88803697749972,187.76176889287308 56.640295615419745,186.67451281985268 41.64330713450909,199.17794420663267 34.61346878297627,250.8222395060584 55.702983835712075,264.41275987634435 71.16862820647657,250.8222395060584 77.7298106700182,205.70146191306412 65.07610163837671,187.21814088430256 53.82836027443409,186.67451281985268 41.64330713450909,199.7215709881857 36.488092344254255,252.453103790991 56.640295615419745,264.956379967276 67.41938108764589,258.97655591228977 77.7298106700182,207.87596603110433 70.69997231848538,191.02353577828035 44.92389836348593,192.65441846754402 34.144812893122435,240.49342071358114 43.98658658377826,262.2382789608091 59.4522309564054,264.41275987634435 68.82534875534475,256.80207276390865 76.79249888658524,198.0906904740259 62.26416629552841,186.13088469859213 44.45524247549474,193.7416733163409 34.144812893122435,249.1913747182116 52.891048496589065,265.5 69.29400464706123,255.7148308553733 77.26115477830172,204.61420951969922 69.76266053877771,189.39265258563682 58.046263286843896,186.13088469859213 42.58061891421676,197.0034365192987 34.61346878297627,245.92964364029467 47.73583370447159,263.86913973046467 69.76266053877771,256.25845183618367 77.7298106700182,207.33234008448198 68.82534875534475,188.3053968474269 52.42239260673523,186.13088469859213 43.98658658377826,194.82892793929204 35.082124672830105,248.6477530123666 51.485080825164914,264.956379967276 66.48206930607557,258.97655591228977 77.26115477830172,207.87596603110433 71.16862820647657,189.93628037301823 61.79551040753722,186.13088469859213 45.86121014505625,193.7416733163409 36.488092344254255,251.90948241902515 49.14180137403309,263.86913973046467 68.82534875534475,258.43293520761654 77.7298106700182,201.89607755979523 66.95072519779205,187.21814088430256 42.58061891421676,197.0034365192987 36.019436452537775,246.47326562693343 47.73583370447159,263.32551952963695 68.3566928692162,258.43293520761654 77.26115477830172,200.80882438551635 68.3566928692162,187.76176889287308 49.610457265749574,188.3053968474269 42.58061891421676,196.45980945648625 36.488092344254255,244.84239950077608 44.45524247549474,262.2382789608091 68.82534875534475,256.80207276390865 77.26115477830172,200.80882438551635 62.26416629552841,185.5872565205209 43.04927480593324,197.0034365192987 36.488092344254255,245.38602159824222 48.6731454860419,262.2382789608091 70.69997231848538,255.17120981775224 77.26115477830172,203.52695690235123 58.983575066551566,186.67451281985268 43.51793069392443,194.2853006562218 36.019436452537775,246.47326562693343 44.92389836348593,262.7818992729299 68.3566928692162,257.3456936352886 76.32384299859405,198.63431736733764 60.85819862782955,185.5872565205209 45.39255425520241,193.1980459196493 36.488092344254255,247.01688755629584 43.51793069392443,261.694658591412 55.702983835712075,265.5 69.29400464706123,258.43293520761654 77.26115477830172,204.07058323919773 64.1387898568064,186.13088469859213 44.92389836348593,192.65441846754402 36.488092344254255,243.21153287403286 43.51793069392443,260.6074176868424 59.4522309564054,263.86913973046467 68.3566928692162,257.88931444939226 76.32384299859405,201.89607755979523 66.01341341808438,187.21814088430256 44.92389836348593,192.65441846754402 35.082124672830105,246.47326562693343 45.86121014505625,262.7818992729299 69.76266053877771,254.6275887233205 77.26115477830172,201.35245100129396 68.3566928692162,187.76176889287308 58.046263286843896,185.5872565205209 43.04927480593324,194.82892793929204 36.019436452537775,251.90948241902515 47.73583370447159,263.86913973046467 68.82534875534475,254.08396757487208 74.44921943731606,195.37255516741425 63.20147807709873,186.13088469859213 52.42239260673523,186.13088469859213 41.174651242792606,200.26519771385938 35.55078056268394,239.94979811366647 36.488092344254255,252.453103790991 49.14180137403309,262.7818992729299 69.76266053877771,254.08396757487208 73.04325176775455,190.47990810405463 52.891048496589065,186.67451281985268 36.488092344254255,205.15783574432135 38.83137179352343,255.17120981775224 53.3597043864429,264.41275987634435 72.10593998804688,247.56050943164155 76.79249888658524,199.17794420663267 54.765672056004405,185.04362828936428 37.89406001381576,211.68134608957916 36.956748232245445,253.54034636868164 62.73282218724489,261.15103816753253 73.04325176775455,239.40617545880377 71.6372840963304,191.02353577828035 48.20448959618807,188.3053968474269 36.019436452537775,220.37934738956392 36.956748232245445,253.54034636868164 50.07911315560341,264.41275987634435 62.26416629552841,263.32551952963695 72.57459587976336,248.10413125017658 73.51190765947104,192.65441846754402 60.38954273797572,185.04362828936428 49.14180137403309,189.39265258563682 36.019436452537775,236.68806134629995 37.425404123961926,256.25845183618367 45.39255425520241,262.7818992729299 56.640295615419745,264.41275987634435 69.76266053877771,253.54034636868164 76.79249888658524,206.78871408337727 71.16862820647657,189.93628037301823 46.32986603304744,190.47990810405463 36.488092344254255,242.12428817665204 45.39255425520241,262.2382789608091 67.88803697749972,257.88931444939226 76.32384299859405,205.70146191306412 67.88803697749972,187.76176889287308 58.046263286843896,185.04362828936428 43.51793069392443,194.82892793929204 36.488092344254255,245.92964364029467 47.73583370447159,264.956379967276 66.95072519779205,260.6074176868424 75.38653121888638,215.4867234150879 72.10593998804688,190.47990810405463 55.702983835712075,185.04362828936428 42.11196302436292,195.91618234105408 35.55078056268394,247.01688755629584 45.39255425520241,262.7818992729299 69.29400464706123,255.17120981775224 76.79249888658524,200.26519771385938 62.73282218724489,185.04362828936428 47.73583370447159,188.8490247442387 41.174651242792606,202.98333051148802 36.488092344254255,251.90948241902515 52.42239260673523,264.41275987634435 70.23131642863154,252.99672510661185 77.7298106700182,204.07058323919773 64.1387898568064,185.04362828936428 42.11196302436292,197.0034365192987 35.082124672830105,239.40617545880377 40.70599535666406,258.43293520761654 65.54475752823055,258.43293520761654 77.26115477830172,201.89607755979523 66.01341341808438,186.13088469859213 56.17163972556591,185.04362828936428 43.51793069392443,197.0034365192987 35.55078056268394,245.38602159824222 46.32986603304744,262.7818992729299 67.88803697749972,257.3456936352886 77.7298106700182,203.52695690235123 71.16862820647657,189.39265258563682 55.702983835712075,184.5 45.39255425520241,190.47990810405463 34.61346878297627,248.6477530123666 51.485080825164914,263.86913973046467 69.76266053877771,253.54034636868164 77.26115477830172,200.80882438551635 60.38954273797572,186.67451281985268 43.51793069392443,194.82892793929204 34.144812893122435,250.27861796552315 47.26717781461775,262.7818992729299 69.76266053877771,254.6275887233205 78.19846655987203,207.33234008448198 68.3566928692162,188.8490247442387 47.26717781461775,191.02353577828035 33.6761570032686,239.40617545880377 43.98658658377826,262.2382789608091 68.82534875534475,256.25845183618367 78.19846655987203,210.5940949227661 66.01341341808438,186.13088469859213 51.95373671501875,187.21814088430256 38.83137179352343,202.43970406241715 33.6761570032686,250.8222395060584 49.14180137403309,263.32551952963695 71.6372840963304,250.27861796552315 78.19846655987203,204.61420951969922 73.98056354746222,192.65441846754402 58.51491917669773,185.04362828936428 39.300027683377266,203.52695690235123 35.55078056268394,249.7349963709712 49.14180137403309,264.41275987634435 71.16862820647657,252.99672510661185 78.66712244972587,201.35245100129396 64.1387898568064,186.13088469859213 41.174651242792606,199.7215709881857 32.73884522356093,246.47326562693343 53.3597043864429,262.2382789608091 72.10593998804688,252.453103790991 78.19846655987203,201.89607755979523 64.1387898568064,185.5872565205209 49.610457265749574,186.13088469859213 41.174651242792606,194.82892793929204 32.73884522356093,247.56050943164155 47.73583370447159,261.694658591412 66.48206930607557,257.3456936352886 77.26115477830172,210.5940949227661 75.85518710874021,196.45980945648625 60.85819862782955,186.13088469859213 39.7686835732311,202.43970406241715 33.6761570032686,245.92964364029467 46.32986603304744,261.694658591412 71.16862820647657,251.36586099117994 77.26115477830172,202.43970406241715 65.07610163837671,186.67451281985268 56.17163972556591,186.13088469859213 42.58061891421676,199.17794420663267 31.33287755213678,243.75515513820574 44.92389836348593,261.15103816753253 57.10895150527358,263.86913973046467 70.23131642863154,254.08396757487208 77.26115477830172,201.35245100129396 66.01341341808438,186.67451281985268 50.547769045457244,187.76176889287308 42.11196302436292,198.63431736733764 31.801533441990614,245.92964364029467 46.79852192476392,261.694658591412 60.85819862782955,261.694658591412 70.23131642863154,252.453103790991 77.26115477830172,206.24508802546188 74.91787532903254,195.37255516741425 60.38954273797572,185.04362828936428 41.64330713450909,199.17794420663267 34.61346878297627,248.6477530123666 50.547769045457244,261.15103816753253 70.23131642863154,251.90948241902515 77.7298106700182,204.61420951969922 69.76266053877771,189.93628037301823 58.983575066551566,186.67451281985268 39.7686835732311,207.33234008448198 35.55078056268394,252.453103790991 50.07911315560341,263.86913973046467 71.6372840963304,250.27861796552315 75.85518710874021,196.45980945648625 62.26416629552841,186.67451281985268 43.51793069392443,197.54706352530047 35.55078056268394,245.38602159824222 38.362715903669596,256.80207276390865 51.485080825164914,264.41275987634435 68.3566928692162,254.6275887233205 76.79249888658524,207.33234008448198 75.38653121888638,196.45980945648625 62.26416629552841,185.5872565205209 42.58061891421676,195.91618234105408 32.73884522356093,246.47326562693343 47.26717781461775,262.7818992729299 58.046263286843896,263.32551952963695 70.69997231848538,251.36586099117994 76.32384299859405,199.17794420663267 62.26416629552841,186.13088469859213 38.83137179352343,201.35245100129396 33.6761570032686,250.8222395060584 48.6731454860419,262.2382789608091 62.26416629552841,261.15103816753253" stroke="#4dd2ff" stroke-linecap="round" stroke-linejoin="round" stroke-width="0.5"><title>2023-06-04 16.5km</title></polyline><polyline fill="none" points="163.84345906600356,184.5 162.27317081054207,187.62629808182828 160.74975683132652,189.39331981525174 153.90611249394715,195.04771019649343 152.35926137655042,197.71175616668188 150.55460173962638,215.6254107700952 147.34371381427627,232.0157520204666 146.42966542684007,232.66808294566 135.01577915169764,232.6952633660694 130.39866293792147,232.2875567676383 129.95335731317755,232.5321808019944 129.20336889254395,235.82099312767969 128.9689975111978,243.24105623096693 129.39086599776056,246.71998868501396 130.51584862859454,249.65530244546244 131.7345798119204,250.1988755025959 135.01577915169764,250.49784020902007 140.33600950986147,250.1988755025959 143.14846608694643,251.04141153924866 137.3594929658575,250.55219739218592 132.34394540358335,250.9326973623829 131.6642683974933,256.77602119836956 130.11741728009656,261.4234101053735 129.67211165546905,260.9613926312013 131.33614846353885,254.46588530173176 131.5705198450014,251.06859007649473 131.17208849650342,250.55219739218592 128.8986860967707,250.0629823427007 128.68775185348932,255.6889009299921 126.15654093411285,265.5 128.66431471530814,255.6345447995991 128.82837468234356,250.33476859270013 130.3517886614427,249.49223031109432 128.94556037301663,244.05643511962262 129.3439917215146,235.00558891598484 130.32835152349435,232.20601537276525 145.00000000011642,232.8855262308498 146.6640368080698,232.85834582991083 147.34371381427627,232.50500036485028 150.64835029223468,216.87578759447206 151.98426716635004,198.9622174904216 153.13268693524878,196.02634243981447" stroke="#4dd2ff" stroke-linecap="round" stroke-linejoin="round" stroke-width="0.5"><title>2023-02-24 10.1km</title></polyline></svg>