<?xml version="1.0" encoding="utf-8" ?>
<svg baseProfile="full" height="300mm" version="1.1" viewBox="0,0,200,300" width="200mm" xmlns="http://www.w3.org/2000/svg" xmlns:ev="http://www.w3.org/2001/xml-events" xmlns:xlink="http://www.w3.org/1999/xlink"><defs /><rect fill="#222222" height="300" width="200" x="0" y="0" /><text fill="#FFFFFF" style="font-size:12px; font-family:Arial; font-weight:bold;" x="10" y="20">Over 3km Runs</text><text fill="#FFFFFF" style="font-size:4px; font-family:Arial" x="10" y="280">ATHLETE</text><text fill="#FFFFFF" style="font-size:9px; font-family:Arial" x="10" y="290">吴涛</text><text fill="#FFFFFF" style="font-size:4px; font-family:Arial" x="120" y="280">STATISTICS</text><text fill="#FFFFFF" style="font-size:3px; font-family:Arial" x="120" y="285">Number: 2</text><text fill="#FFFFFF" style="font-size:3px; font-family:Arial" x="120" y="290">Weekly: 1.0</text><text fill="#FFFFFF" style="font-size:3px; font-family:Arial" x="141" y="285">Total: 26.7 km</text><text fill="#FFFFFF" style="font-size:3px; font-family:Arial" x="141" y="290">Avg: 13.4 km</text><text fill="#FFFFFF" style="font-size:3px; font-family:Arial" x="167" y="285">Min: 10.1 km</text><text fill="#FFFFFF" style="font-size:3px; font-family:Arial" x="167" y="290">Max: 16.7 km</text><polyline fill="none" points="78.27519696205854,132.48007918475196 92.55149609968066,143.2800055043772 113.65559047833085,140.40002677729353 131.03543290495872,64.80016250675544 117.37984242290258,40.32003191066906 104.344960603863,38.88002156978473 83.2408662289381,54.00011541834101 72.6888190433383,119.52014566306025 89.4479528106749,141.12002156907693 103.72425194829702,142.56001093192026 120.48338571563363,128.16010400280356 130.41472424566746,57.60013295896351 116.13842510804534,40.32003191066906 100.62070865556598,38.88002156978473 83.2408662289381,54.720119073521346 73.93023635819554,118.80014865566045 93.7929134182632,142.56001093192026 115.51771644875407,136.8000517054461 130.41472424566746,67.68017225759104 122.96622034907341,46.080070320516825 88.20653549209237,45.3600657787174 72.6888190433383,110.88017668807879 83.86157488822937,138.24004195723683 104.344960603863,143.2800055043772 118.00055108591914,134.64006577711552 130.41472424566746,56.880129599012434 116.13842510804534,40.32003191066906 86.96511817723513,46.80007479013875 72.6888190433383,115.92015988286585 84.48228354752064,139.68003191193566 97.51716536656022,144.0 118.62125973775983,133.20007479051128 130.41472424566746,65.52016505412757 119.86267706006765,43.20005170535296 106.20708657801151,38.160016286652535 84.48228354752064,51.12010005209595 73.30952769890428,122.4001329569146 99.37929133698344,144.0 119.86267706006765,131.76008350402117 130.41472424566746,66.96016993001103 120.48338571563363,42.48004686785862 96.89645670726895,38.88002156978473 86.34440952166915,48.24008350726217 73.93023635819554,120.9601394594647 94.41362207382917,142.56001093192026 109.31062987074256,141.12002156907693 121.1040943749249,124.56012265384197 129.17330692708492,56.880129599012434 111.79346450045705,38.160016286652535 89.4479528106749,46.80007479013875 74.55094501376152,123.84012616146356 92.55149609968066,141.84001628728583 117.37984242290258,136.08005647081882 127.3111809566617,49.68009192869067 106.20708657801151,37.440010932739824 84.48228354752064,51.12010005209595 75.17165367305279,118.80014865566045 78.89590562134981,132.48007918475196 100.62070865556598,143.2800055043772 121.72480303049088,127.44010787922889 130.41472424566746,58.320136247202754 109.31062987074256,37.440010932739824 95.03433073312044,41.040036969818175 81.37874025851488,61.2001486569643 77.0337796472013,129.60009602550417 108.06921255588531,141.12002156907693 122.34551168978214,124.56012265384197 126.69047229737043,48.960087755229324 101.24141731485724,38.160016286652535 83.2408662289381,55.4401226551272 75.79236233234406,119.52014566306025 80.13732293620706,131.76008350402117 102.48283462971449,142.56001093192026 120.48338571563363,132.48007918475196 131.03543290495872,63.36015718849376 107.44850389659405,38.88002156978473 91.93078744411469,42.48004686785862 81.37874025851488,59.04013946093619 75.79236233234406,126.72011168440804 95.03433073312044,142.56001093192026 117.37984242290258,134.64006577711552 122.96622034907341,121.68013624520972 129.17330692708492,56.880129599012434 110.5520471855998,38.160016286652535 83.2408662289381,58.320136247202754 77.65448830649257,129.60009602550417 94.41362207382917,143.2800055043772 115.51771644875407,138.960036970675 129.7940155863762,64.0801598848775 116.13842510804534,40.32003191066906 83.86157488822937,51.12010005209595 75.79236233234406,112.3201722544618 83.2408662289381,136.8000517054461 101.86212597414851,142.56001093192026 117.37984242290258,135.3600611621514 129.17330692708492,61.2001486569643 116.7591337673366,41.040036969818175 104.344960603863,37.440010932739824 85.10299220308661,50.40009602671489 73.30952769890428,117.36015441594645 86.34440952166915,139.68003191193566 108.68992121145129,140.40002677729353 119.86267706006765,129.60009602550417 130.41472424566746,60.48014566395432 106.20708657801151,37.440010932739824 85.10299220308661,48.24008350726217 73.93023635819554,120.24014259921387 88.82724415138364,141.84001628728583 118.00055108591914,131.04008775250986 128.55259827151895,59.04013946093619 111.17275584489107,38.160016286652535 98.75858268141747,38.160016286652535 82.62015757337213,55.4401226551272 74.55094501376152,123.12012959783897 90.68937012553215,140.40002677729353 119.24196840077639,130.3200919269584 130.41472424566746,56.880129599012434 122.96622034907341,43.20005170535296 101.24141731485724,37.440010932739824 73.93023635819554,57.60013295896351 76.41307098791003,125.2801190726459 96.27574804797769,142.56001093192026 118.00055108591914,133.20007479051128 130.41472424566746,58.320136247202754 101.86212597414851,36.72000550245866 81.37874025851488,58.320136247202754 75.79236233234406,126.72011168440804 81.99944891035557,136.08005647081882 108.68992121145129,139.68003191193566 122.96622034907341,122.4001329569146 123.58692900836468,46.080070320516825 103.10354328900576,36.72000550245866 91.31007878482342,41.76004195725545 75.79236233234406,80.64020150760189 80.75803159922361,135.3600611621514 108.06921255588531,142.56001093192026 123.58692900836468,122.4001329569146 127.3111809566617,50.40009602671489 119.24196840077639,41.040036969818175 95.65503939241171,41.040036969818175 77.65448830649257,82.80020405771211 77.0337796472013,131.76008350402117 110.5520471855998,139.68003191193566 122.96622034907341,117.36015441594645 126.06976363807917,48.24008350726217 101.24141731485724,37.440010932739824 80.75803159922361,60.48014566395432 76.41307098791003,128.16010400280356 85.72370086237788,138.960036970675 110.5520471855998,141.12002156907693 122.96622034907341,122.4001329569146 126.69047229737043,51.12010005209595 96.27574804797769,38.88002156978473 82.62015757337213,61.2001486569643 80.13732293620706,136.08005647081882 114.8970077931881,138.960036970675 129.17330692708492,59.760142599698156 114.8970077931881,38.160016286652535 91.31007878482342,41.040036969818175 83.2408662289381,51.84010400483385 74.55094501376152,119.52014566306025 77.65448830649257,131.76008350402117 98.1378740221262,143.2800055043772 120.48338571563363,128.16010400280356 129.7940155863762,59.04013946093619 112.41417315974832,38.160016286652535 84.48228354752064,51.84010400483385 74.55094501376152,119.52014566306025 94.41362207382917,141.84001628728583 120.48338571563363,129.60009602550417 129.7940155863762,57.60013295896351 112.41417315974832,37.440010932739824 83.86157488822937,51.12010005209595 73.93023635819554,120.24014259921387 91.31007878482342,139.68003191193566 121.1040943749249,126.0001154160127 130.41472424566746,61.9201515740715 126.06976363807917,47.52007918478921 103.72425194829702,36.0 82.62015757337213,58.320136247202754 76.41307098791003,128.88010005187243 105.58637792244554,141.12002156907693 121.1040943749249,127.44010787922889 129.7940155863762,55.4401226551272 103.72425194829702,36.72000550245866 81.37874025851488,53.280111687257886 73.30952769890428,126.0001154160127 95.65503939241171,141.84001628728583 119.24196840077639,129.60009602550417 130.41472424566746,60.48014566395432 109.31062987074256,38.88002156978473 95.03433073312044,41.040036969818175 80.75803159922361,59.760142599698156 72.06811038404703,122.4001329569146 77.0337796472013,133.20007479051128 101.24141731485724,142.56001093192026 119.86267706006765,129.60009602550417 131.03543290495872,68.4001745111309 126.06976363807917,49.68009192869067 104.344960603863,38.160016286652535 91.31007878482342,43.20005170535296 73.30952769890428,79.20019943872467 72.06811038404703,118.08015157282352 95.65503939241171,142.56001093192026 118.62125973775983,131.76008350402117 131.6561415605247,59.04013946093619 109.93133852630854,36.72000550245866 86.34440952166915,48.24008350726217 73.30952769890428,73.44018821278587 72.6888190433383,124.56012265384197 90.68937012553215,141.12002156907693 122.34551168978214,126.0001154160127 131.03543290495872,63.36015718849376 126.69047229737043,48.960087755229324 106.82779523730278,37.440010932739824 80.13732293620706,59.760142599698156 73.93023635819554,120.9601394594647 90.68937012553215,142.56001093192026 121.1040943749249,128.88010005187243 131.6561415605247,61.2001486569643 114.27629913389683,38.160016286652535 81.99944891035557,55.4401226551272 70.20598440989852,116.64015718642622 85.10299220308661,136.8000517054461 120.48338571563363,131.76008350402117 131.6561415605247,64.0801598848775 114.27629913389683,38.160016286652535 82.62015757337213,48.960087755229324 69.58527575060725,116.64015718642622 88.20653549209237,138.960036970675 102.48283462971449,140.40002677729353 121.72480303049088,124.56012265384197 130.41472424566746,58.320136247202754 109.93133852630854,38.88002156978473 83.2408662289381,51.84010400483385 72.06811038404703,115.92015988286585 86.34440952166915,138.960036970675 120.48338571563363,129.60009602550417 130.41472424566746,61.9201515740715 116.13842510804534,40.32003191066906 103.72425194829702,38.160016286652535 83.86157488822937,56.16012616548687 68.96456709131598,115.20016250479966 96.27574804797769,141.84001628728583 119.86267706006765,130.3200919269584 130.41472424566746,60.48014566395432 116.7591337673366,40.32003191066906 96.27574804797769,39.60002677794546 84.48228354752064,53.280111687257886 68.34385843575001,113.76016752934083 86.96511817723513,138.960036970675 105.58637792244554,139.68003191193566 119.86267706006765,128.88010005187243 128.55259827151895,54.720119073521346 107.44850389659405,37.440010932739824 83.2408662289381,54.00011541834101 72.06811038404703,120.24014259921387 92.55149609968066,138.24004195723683 122.96622034907341,120.24014259921387 130.41472424566746,63.36015718849376 108.06921255588531,39.60002677794546 86.34440952166915,51.12010005209595 73.30952769890428,124.56012265384197 91.93078744411469,141.84001628728583 113.65559047833085,137.52004686836153 122.96622034907341,123.84012616146356 129.7940155863762,56.16012616548687 108.06921255588531,39.60002677794546 81.99944891035557,61.9201515740715 74.55094501376152,125.2801190726459 98.1378740221262,142.56001093192026 122.34551168978214,120.24014259921387 128.55259827151895,56.16012616548687 109.93133852630854,38.160016286652535 85.10299220308661,49.68009192869067 70.8266930654645,120.9601394594647 101.86212597414851,141.84001628728583 121.72480303049088,123.12012959783897 129.17330692708492,58.320136247202754 122.34551168978214,44.64006116287783 96.89645670726895,39.60002677794546 79.51661428064108,56.880129599012434 70.8266930654645,123.12012959783897 85.10299220308661,138.24004195723683 103.10354328900576,140.40002677729353" stroke="#4dd2ff" stroke-linecap="round" stroke-linejoin="round" stroke-width="0.5"><title>2023-06-04 16.7km</title></polyline><polyline fill="none" points="125.12461208784953,156.0 123.03089441393968,160.1683974424668 120.99967577494681,162.52442642033566 111.87481665855739,170.06361359535367 109.81234850198962,173.61567488894798 107.40613565279637,197.50054769348935 103.12495175225195,219.3543360273179 101.90622056892607,220.22411059422302 86.68770553555805,220.26035115480772 80.53155058377888,219.71674235688988 79.93780975078698,220.04290773600223 78.9378251900198,224.42799083693535 78.6253300148528,234.3214083079656 79.1878213302698,238.95998491335195 80.68779817130417,242.87373659398872 82.31277308252174,243.59850067013758 86.68770553555805,243.99712027871283 93.78134601307102,243.59850067013758 97.53128811577335,244.72188205237035 89.81265728781,244.06959652292426 83.12526053795591,244.57692981653963 82.21902452991344,252.36802826452185 80.15655637346208,258.56454680720344 79.56281554047018,257.9485235082975 81.78153128467966,249.28784706900478 82.09402645984665,244.75812010202208 81.56278466188814,244.06959652292426 78.5315814622445,243.4173097902676 78.25033580441959,250.91853457334219 74.87538791215047,264.0 78.2190862869611,250.8460597328376 78.4378329096362,243.7796914569335 80.46905154851265,242.6563070814591 78.5940804972779,235.40858015950653 79.12532229535282,223.34078522131313 80.43780203117058,219.60802049704944 100.0,220.5140349744761 102.21871574409306,220.4777944398811 103.12495175225195,220.006667153124 107.53113372286316,199.16771679266822 109.31235622160602,175.28295665388578 110.8435825802153,171.3684565864387" stroke="#4dd2ff" stroke-linecap="round" stroke-linejoin="round" stroke-width="0.5"><title>2023-02-24 10.1km</title></polyline></svg>