<?xml version="1.0" encoding="utf-8" ?>
<svg baseProfile="full" height="300mm" version="1.1" viewBox="0,0,200,300" width="200mm" xmlns="http://www.w3.org/2000/svg" xmlns:ev="http://www.w3.org/2001/xml-events" xmlns:xlink="http://www.w3.org/1999/xlink"><defs /><rect fill="#222222" height="300" width="200" x="0" y="0" /><text fill="#FFFFFF" style="font-size:12px; font-family:Arial; font-weight:bold;" x="10" y="20">Over 3km Runs</text><text fill="#FFFFFF" style="font-size:4px; font-family:Arial" x="10" y="280">ATHLETE</text><text fill="#FFFFFF" style="font-size:9px; font-family:Arial" x="10" y="290">吴涛</text><text fill="#FFFFFF" style="font-size:4px; font-family:Arial" x="120" y="280">STATISTICS</text><text fill="#FFFFFF" style="font-size:3px; font-family:Arial" x="120" y="285">Number: 3</text><text fill="#FFFFFF" style="font-size:3px; font-family:Arial" x="120" y="290">Weekly: 1.0</text><text fill="#FFFFFF" style="font-size:3px; font-family:Arial" x="141" y="285">Total: 37.0 km</text><text fill="#FFFFFF" style="font-size:3px; font-family:Arial" x="141" y="290">Avg: 12.3 km</text><text fill="#FFFFFF" style="font-size:3px; font-family:Arial" x="167" y="285">Min: 10.1 km</text><text fill="#FFFFFF" style="font-size:3px; font-family:Arial" x="167" y="290">Max: 16.5 km</text><polyline fill="none" points="36.84427919983864,97.14010924752802 48.948093065992,113.88001221604645 70.36253298260272,104.1600750386715 75.94890861399472,50.16009720088914 61.05190693214536,36.66001617722213 41.49959222599864,48.540089305490255 37.30981050245464,98.22010459424928 52.206812184304,113.88001221604645 70.36253298260272,102.00008656131104 76.41443991661072,52.86010924819857 62.91403214260936,34.5 42.430654829367995,44.220065814908594 37.30981050245464,97.68010694812983 50.34468697384,113.34001617738977 69.43147037923336,103.620078003034 76.41443991661072,51.7801045961678 62.44850083999336,34.5 42.430654829367995,44.220065814908594 39.17193571291864,95.52011581277475 51.275749580934644,112.80002008238807 70.36253298260272,101.46008930262178 76.87997121922672,56.100121879950166 68.03487647138536,37.20002008229494 49.87915567308664,36.66001617722213 41.96512352861464,46.92008091323078 40.10299831815064,80.94015246024355 38.70640441030264,43.68006263067946 34.98215399123728,98.76010218448937 54.534468695521355,114.9600041275844 69.89700167998672,101.46008930262178 75.48337730951607,49.62009462388232 58.258719118312,35.580008199904114 41.03406092338264,49.62009462388232 37.30981050245464,99.30009971838444 54.068937394768,113.34001617738977 70.36253298260272,100.38009462272748 75.01784600876272,45.840075040236115 56.396593907848,35.580008199904114 41.03406092338264,53.40011149272323 38.24087310768664,106.32006262941286 53.137874787673354,114.9600041275844 67.56934516690671,106.32006262941286 42.89618613384664,48.00008656224236 36.84427919983864,100.38009462272748 53.137874787673354,114.9600041275844 70.36253298260272,102.00008656131104 75.01784600876272,46.92008091323078 59.189781723544,36.12001221626997 45.223842645063996,42.06005274038762 35.91321659460664,88.50013849884272 44.758311342447996,112.80002008238807 68.50040777400136,105.24006894323975 75.48337730951607,53.40011149272323 65.70721995830536,38.820031467825174 52.67234348692,37.74002393335104 42.430654829367995,46.38007800467312 35.91321659460664,98.76010218448937 49.87915567308664,114.42000820022076 68.50040777400136,105.24006894323975 41.03406092338264,47.46008376497775 34.98215399123728,99.84009719919413 51.741280881688,114.9600041275844 69.43147037923336,102.54008376272395 75.01784600876272,48.540089305490255 59.189781723544,36.12001221626997 41.96512352861464,46.92008091323078 35.91321659460664,100.38009462272748 53.137874787673354,114.9600041275844 69.43147037923336,103.08008091058582 75.48337730951607,53.40011149272323 59.189781723544,36.66001617722213 46.620436552912,40.980045872274786 40.56852962076664,53.40011149272323 38.24087310768664,106.86005938798189 50.810218276456,114.9600041275844 66.63828256353736,107.94005274027586 42.430654829367995,46.92008091323078 34.51662268675864,99.84009719919413 51.275749580934644,114.9600041275844 68.96593907661736,104.1600750386715 75.48337730951607,52.3201069496572 59.189781723544,36.66001617722213 40.56852962076664,48.540089305490255 34.51662268675864,99.30009971838444 52.67234348692,115.5 70.82806428521872,102.00008656131104 74.08678340353072,47.46008376497775 57.793187815696,37.20002008229494 44.29278004169464,44.220065814908594 34.05109138414264,96.06011367915198 45.68937394954264,113.88001221604645 67.56934516690671,110.10003877989948 39.637467017397285,75.00015581212938 39.17193571291864,107.40005609253421 51.275749580934644,115.5 65.24168865568936,111.72002772754058 75.48337730951607,55.02011789055541 63.37956344522536,38.28002772759646 42.430654829367995,45.300072020385414 34.51662268675864,98.22010459424928 50.34468697384,114.9600041275844 69.43147037923336,104.70007201842964 75.48337730951607,54.48011581413448 60.12084432691336,37.20002008229494 41.96512352861464,48.00008656224236 35.44768529385328,100.92009199038148 50.34468697384,114.9600041275844 68.50040777400136,107.40005609253421 75.01784600876272,53.94011368183419 61.98296953737736,37.74002393335104 41.49959222599864,48.540089305490255 34.51662268675864,100.38009462272748 48.48256176523864,114.9600041275844 68.50040777400136,106.32006262941286 75.48337730951607,53.94011368183419 64.77615735307336,38.28002772759646 51.275749580934644,38.28002772759646 41.96512352861464,47.46008376497775 34.05109138414264,98.22010459424928 48.48256176523864,114.9600041275844 68.50040777400136,107.40005609253421 75.01784600876272,55.56011991389096 62.44850083999336,38.28002772759646 41.96512352861464,47.46008376497775 33.58556008338928,97.14010924752802 48.948093065992,114.9600041275844 68.50040777400136,104.1600750386715 75.48337730951607,53.94011368183419 62.44850083999336,37.20002008229494 41.49959222599864,48.00008656224236 34.05109138414264,98.22010459424928 47.55149916000664,114.9600041275844 68.03487647138536,106.86005938798189 75.48337730951607,53.94011368183419 62.91403214260936,37.74002393335104 41.49959222599864,48.00008656224236 34.05109138414264,97.68010694812983 48.48256176523864,114.9600041275844 68.03487647138536,106.32006262941286 75.48337730951607,52.3201069496572 60.586375631392,37.74002393335104 41.96512352861464,47.46008376497775 34.51662268675864,99.30009971838444 48.948093065992,114.9600041275844 68.03487647138536,106.86005938798189 75.48337730951607,57.7201274484396 65.70721995830536,38.820031467825174 43.36171743646264,45.300072020385414 33.58556008338928,97.68010694812983 48.948093065992,114.42000820022076 67.56934516690671,107.94005274027586 75.48337730951607,53.94011368183419 64.77615735307336,38.820031467825174 42.89618613384664,45.840075040236115 33.12002878077328,92.82012564642355 43.36171743646264,112.26002393197268 66.17275126092136,109.02004587091506 75.01784600876272,56.640123791527 65.70721995830536,39.360035152640194 42.89618613384664,44.76006894558668 33.58556008338928,92.82012564642355 45.223842645063996,113.88001221604645 65.70721995830536,110.10003877989948 73.15572079829872,45.840075040236115 51.275749580934644,38.820031467825174 38.70640441030264,60.960137088317424 34.98215399123728,103.08008091058582 46.620436552912,113.88001221604645" stroke="#4dd2ff" stroke-linecap="round" stroke-linejoin="round" stroke-width="0.5"><title>2023-09-05 10.4km</title></polyline><polyline fill="none" points="126.95674823224545,103.54034636868164 139.1418013740331,114.956379967276 155.0761016383767,112.78189927292988 167.7298106700182,54.07058323919773 157.88803697749972,37.76176889287308 146.64029561541975,36.67451281985268 131.6433071345091,49.177944206632674 124.61346878297627,100.8222395060584 145.70298383571208,114.41275987634435 161.16862820647657,100.8222395060584 167.7298106700182,55.70146191306412 155.0761016383767,37.21814088430256 143.8283602744341,36.67451281985268 131.6433071345091,49.721570988185704 126.48809234425426,102.45310379099101 146.64029561541975,114.956379967276 157.4193810876459,108.97655591228977 167.7298106700182,57.875966031104326 160.69997231848538,41.02353577828035 134.92389836348593,42.65441846754402 124.14481289312243,90.49342071358114 133.98658658377826,112.23827896080911 149.4522309564054,114.41275987634435 158.82534875534475,106.80207276390865 166.79249888658524,48.090690474025905 152.2641662955284,36.130884698592126 134.45524247549474,43.74167331634089 124.14481289312243,99.19137471821159 142.89104849658906,115.5 159.29400464706123,105.7148308553733 167.26115477830172,54.614209519699216 159.7626605387777,39.392652585636824 148.0462632868439,36.130884698592126 132.58061891421676,47.0034365192987 124.61346878297627,95.92964364029467 137.7358337044716,113.86913973046467 159.7626605387777,106.25845183618367 167.7298106700182,57.332340084481984 158.82534875534475,38.30539684742689 142.42239260673523,36.130884698592126 133.98658658377826,44.82892793929204 125.0821246728301,98.64775301236659 141.4850808251649,114.956379967276 156.48206930607557,108.97655591228977 167.26115477830172,57.875966031104326 161.16862820647657,39.936280373018235 151.79551040753722,36.130884698592126 135.86121014505625,43.74167331634089 126.48809234425426,101.90948241902515 139.1418013740331,113.86913973046467 158.82534875534475,108.43293520761654 167.7298106700182,51.89607755979523 156.95072519779205,37.21814088430256 132.58061891421676,47.0034365192987 126.01943645253778,96.47326562693343 137.7358337044716,113.32551952963695 158.3566928692162,108.43293520761654 167.26115477830172,50.808824385516346 158.3566928692162,37.76176889287308 139.61045726574957,38.30539684742689 132.58061891421676,46.459809456486255 126.48809234425426,94.84239950077608 134.45524247549474,112.23827896080911 158.82534875534475,106.80207276390865 167.26115477830172,50.808824385516346 152.2641662955284,35.587256520520896 133.04927480593324,47.0034365192987 126.48809234425426,95.38602159824222 138.6731454860419,112.23827896080911 160.69997231848538,105.17120981775224 167.26115477830172,53.52695690235123 148.98357506655157,36.67451281985268 133.51793069392443,44.28530065622181 126.01943645253778,96.47326562693343 134.92389836348593,112.78189927292988 158.3566928692162,107.34569363528863 166.32384299859405,48.634317367337644 150.85819862782955,35.587256520520896 135.3925542552024,43.1980459196493 126.48809234425426,97.01688755629584 133.51793069392443,111.69465859141201 145.70298383571208,115.5 159.29400464706123,108.43293520761654 167.26115477830172,54.07058323919773 154.1387898568064,36.130884698592126 134.92389836348593,42.65441846754402 126.48809234425426,93.21153287403286 133.51793069392443,110.60741768684238 149.4522309564054,113.86913973046467 158.3566928692162,107.88931444939226 166.32384299859405,51.89607755979523 156.01341341808438,37.21814088430256 134.92389836348593,42.65441846754402 125.0821246728301,96.47326562693343 135.86121014505625,112.78189927292988 159.7626605387777,104.62758872332051 167.26115477830172,51.35245100129396 158.3566928692162,37.76176889287308 148.0462632868439,35.587256520520896 133.04927480593324,44.82892793929204 126.01943645253778,101.90948241902515 137.7358337044716,113.86913973046467 158.82534875534475,104.08396757487208 164.44921943731606,45.37255516741425 153.20147807709873,36.130884698592126 142.42239260673523,36.130884698592126 131.1746512427926,50.26519771385938 125.55078056268394,89.94979811366647 126.48809234425426,102.45310379099101 139.1418013740331,112.78189927292988 159.7626605387777,104.08396757487208 163.04325176775455,40.47990810405463 142.89104849658906,36.67451281985268 126.48809234425426,55.157835744321346 128.83137179352343,105.17120981775224 143.3597043864429,114.41275987634435 162.10593998804688,97.56050943164155 166.79249888658524,49.177944206632674 144.7656720560044,35.04362828936428 127.89406001381576,61.681346089579165 126.95674823224545,103.54034636868164 152.7328221872449,111.15103816753253 163.04325176775455,89.40617545880377 161.6372840963304,41.02353577828035 138.20448959618807,38.30539684742689 126.01943645253778,70.37934738956392 126.95674823224545,103.54034636868164 140.0791131556034,114.41275987634435 152.2641662955284,113.32551952963695 162.57459587976336,98.10413125017658 163.51190765947104,42.65441846754402 150.38954273797572,35.04362828936428 139.1418013740331,39.392652585636824 126.01943645253778,86.68806134629995 127.42540412396193,106.25845183618367 135.3925542552024,112.78189927292988 146.64029561541975,114.41275987634435 159.7626605387777,103.54034636868164 166.79249888658524,56.78871408337727 161.16862820647657,39.936280373018235 136.32986603304744,40.47990810405463 126.48809234425426,92.12428817665204 135.3925542552024,112.23827896080911 157.88803697749972,107.88931444939226 166.32384299859405,55.70146191306412 157.88803697749972,37.76176889287308 148.0462632868439,35.04362828936428 133.51793069392443,44.82892793929204 126.48809234425426,95.92964364029467 137.7358337044716,114.956379967276 156.95072519779205,110.60741768684238 165.38653121888638,65.48672341508791 162.10593998804688,40.47990810405463 145.70298383571208,35.04362828936428 132.11196302436292,45.91618234105408 125.55078056268394,97.01688755629584 135.3925542552024,112.78189927292988 159.29400464706123,105.17120981775224 166.79249888658524,50.26519771385938 152.7328221872449,35.04362828936428 137.7358337044716,38.849024744238704 131.1746512427926,52.98333051148802 126.48809234425426,101.90948241902515 142.42239260673523,114.41275987634435 160.23131642863154,102.99672510661185 167.7298106700182,54.07058323919773 154.1387898568064,35.04362828936428 132.11196302436292,47.0034365192987 125.0821246728301,89.40617545880377 130.70599535666406,108.43293520761654 155.54475752823055,108.43293520761654 167.26115477830172,51.89607755979523 156.01341341808438,36.130884698592126 146.1716397255659,35.04362828936428 133.51793069392443,47.0034365192987 125.55078056268394,95.38602159824222 136.32986603304744,112.78189927292988 157.88803697749972,107.34569363528863 167.7298106700182,53.52695690235123 161.16862820647657,39.392652585636824 145.70298383571208,34.5 135.3925542552024,40.47990810405463 124.61346878297627,98.64775301236659 141.4850808251649,113.86913973046467 159.7626605387777,103.54034636868164 167.26115477830172,50.808824385516346 150.38954273797572,36.67451281985268 133.51793069392443,44.82892793929204 124.14481289312243,100.27861796552315 137.26717781461775,112.78189927292988 159.7626605387777,104.62758872332051 168.19846655987203,57.332340084481984 158.3566928692162,38.849024744238704 137.26717781461775,41.02353577828035 123.6761570032686,89.40617545880377 133.98658658377826,112.23827896080911 158.82534875534475,106.25845183618367 168.19846655987203,60.59409492276609 156.01341341808438,36.130884698592126 141.95373671501875,37.21814088430256 128.83137179352343,52.43970406241715 123.6761570032686,100.8222395060584 139.1418013740331,113.32551952963695 161.6372840963304,100.27861796552315 168.19846655987203,54.614209519699216 163.98056354746222,42.65441846754402 148.51491917669773,35.04362828936428 129.30002768337727,53.52695690235123 125.55078056268394,99.7349963709712 139.1418013740331,114.41275987634435 161.16862820647657,102.99672510661185 168.66712244972587,51.35245100129396 154.1387898568064,36.130884698592126 131.1746512427926,49.721570988185704 122.73884522356093,96.47326562693343 143.3597043864429,112.23827896080911 162.10593998804688,102.45310379099101 168.19846655987203,51.89607755979523 154.1387898568064,35.587256520520896 139.61045726574957,36.130884698592126 131.1746512427926,44.82892793929204 122.73884522356093,97.56050943164155 137.7358337044716,111.69465859141201 156.48206930607557,107.34569363528863 167.26115477830172,60.59409492276609 165.8551871087402,46.459809456486255 150.85819862782955,36.130884698592126 129.7686835732311,52.43970406241715 123.6761570032686,95.92964364029467 136.32986603304744,111.69465859141201 161.16862820647657,101.36586099117994 167.26115477830172,52.43970406241715 155.0761016383767,36.67451281985268 146.1716397255659,36.130884698592126 132.58061891421676,49.177944206632674 121.33287755213678,93.75515513820574 134.92389836348593,111.15103816753253 147.10895150527358,113.86913973046467 160.23131642863154,104.08396757487208 167.26115477830172,51.35245100129396 156.01341341808438,36.67451281985268 140.54776904545724,37.76176889287308 132.11196302436292,48.634317367337644 121.80153344199061,95.92964364029467 136.79852192476392,111.69465859141201 150.85819862782955,111.69465859141201 160.23131642863154,102.45310379099101 167.26115477830172,56.24508802546188 164.91787532903254,45.37255516741425 150.38954273797572,35.04362828936428 131.6433071345091,49.177944206632674 124.61346878297627,98.64775301236659 140.54776904545724,111.15103816753253 160.23131642863154,101.90948241902515 167.7298106700182,54.614209519699216 159.7626605387777,39.936280373018235 148.98357506655157,36.67451281985268 129.7686835732311,57.332340084481984 125.55078056268394,102.45310379099101 140.0791131556034,113.86913973046467 161.6372840963304,100.27861796552315 165.8551871087402,46.459809456486255 152.2641662955284,36.67451281985268 133.51793069392443,47.54706352530047 125.55078056268394,95.38602159824222 128.3627159036696,106.80207276390865 141.4850808251649,114.41275987634435 158.3566928692162,104.62758872332051 166.79249888658524,57.332340084481984 165.38653121888638,46.459809456486255 152.2641662955284,35.587256520520896 132.58061891421676,45.91618234105408 122.73884522356093,96.47326562693343 137.26717781461775,112.78189927292988 148.0462632868439,113.32551952963695 160.69997231848538,101.36586099117994 166.32384299859405,49.177944206632674 152.2641662955284,36.130884698592126 128.83137179352343,51.35245100129396 123.6761570032686,100.8222395060584 138.6731454860419,112.23827896080911 152.2641662955284,111.15103816753253" stroke="#4dd2ff" stroke-linecap="round" stroke-linejoin="round" stroke-width="0.5"><title>2023-06-04 16.5km</title></polyline><polyline fill="none" points="73.84345906600356,184.5 72.27317081054207,187.62629808182828 70.74975683132652,189.39331981525174 63.90611249394715,195.04771019649343 62.35926137655042,197.71175616668188 60.55460173962638,215.6254107700952 57.34371381427627,232.0157520204666 56.429665426840074,232.66808294566 45.01577915169764,232.6952633660694 40.39866293792147,232.2875567676383 39.95335731317755,232.5321808019944 39.20336889254395,235.82099312767969 38.96899751119781,243.24105623096693 39.39086599776056,246.71998868501396 40.51584862859454,249.65530244546244 41.73457981192041,250.1988755025959 45.01577915169764,250.49784020902007 50.33600950986147,250.1988755025959 53.14846608694643,251.04141153924866 47.3594929658575,250.55219739218592 42.34394540358335,250.9326973623829 41.66426839749329,256.77602119836956 40.11741728009656,261.4234101053735 39.67211165546905,260.9613926312013 41.33614846353885,254.46588530173176 41.5705198450014,251.06859007649473 41.17208849650342,250.55219739218592 38.89868609677069,250.0629823427007 38.68775185348932,255.6889009299921 36.156540934112854,265.5 38.66431471530814,255.6345447995991 38.828374682343565,250.33476859270013 40.3517886614427,249.49223031109432 38.94556037301663,244.05643511962262 39.34399172151461,235.00558891598484 40.32835152349435,232.20601537276525 55.000000000116415,232.8855262308498 56.664036808069795,232.85834582991083 57.34371381427627,232.50500036485028 60.64835029223468,216.87578759447206 61.98426716635004,198.9622174904216 63.132686935248785,196.02634243981447" stroke="#4dd2ff" stroke-linecap="round" stroke-linejoin="round" stroke-width="0.5"><title>2023-02-24 10.1km</title></polyline></svg>