<?xml version="1.0" encoding="utf-8" ?>
<svg baseProfile="full" height="300mm" version="1.1" viewBox="0,0,200,300" width="200mm" xmlns="http://www.w3.org/2000/svg" xmlns:ev="http://www.w3.org/2001/xml-events" xmlns:xlink="http://www.w3.org/1999/xlink"><defs /><rect fill="#222222" height="300" width="200" x="0" y="0" /><text fill="#FFFFFF" style="font-size:12px; font-family:Arial; font-weight:bold;" x="10" y="20">Over 3km Runs</text><text fill="#FFFFFF" style="font-size:4px; font-family:Arial" x="10" y="280">ATHLETE</text><text fill="#FFFFFF" style="font-size:9px; font-family:Arial" x="10" y="290">吴涛</text><text fill="#FFFFFF" style="font-size:4px; font-family:Arial" x="120" y="280">STATISTICS</text><text fill="#FFFFFF" style="font-size:3px; font-family:Arial" x="120" y="285">Number: 2</text><text fill="#FFFFFF" style="font-size:3px; font-family:Arial" x="120" y="290">Weekly: 1.0</text><text fill="#FFFFFF" style="font-size:3px; font-family:Arial" x="141" y="285">Total: 26.6 km</text><text fill="#FFFFFF" style="font-size:3px; font-family:Arial" x="141" y="290">Avg: 13.3 km</text><text fill="#FFFFFF" style="font-size:3px; font-family:Arial" x="167" y="285">Min: 10.1 km</text><text fill="#FFFFFF" style="font-size:3px; font-family:Arial" x="167" y="290">Max: 16.5 km</text><polyline fill="none" points="75.94233097881079,128.0537951583974 92.18906849995255,143.27517328970134 113.43480218574405,140.37586569739506 130.3064142279327,62.094110985752195 117.18404930457473,40.34902519034222 102.18706082180142,38.89935042662546 82.19107618182898,55.57059227582067 72.8179583773017,124.42965267505497 100.93731177970767,142.55034650163725 121.55817094445229,124.42965267505497 130.3064142279327,64.26861588424072 113.43480218574405,39.62418784573674 98.43781370297074,38.89935042662546 82.19107618182898,56.295427984092385 75.3174564614892,126.60413838783279 102.18706082180142,143.27517328970134 116.55917478352785,135.3020745497197 130.3064142279327,67.16795470798388 120.93329642340541,44.69804770452902 86.56519781798124,46.87255795672536 72.1930838599801,110.65789428446442 85.31544877961278,139.65103861456737 105.9363079443574,142.55034650163725 118.43379834294319,132.40276368521154 129.05666518211365,54.1209206325002 109.68555506318808,38.17451293114573 85.94032330065966,48.322231088299304 72.1930838599801,122.25516629125923 97.18806466087699,144.0 119.05867286399007,130.95310780685395 129.68153970688581,62.81894602626562 119.68354738503695,42.5235367808491 104.06168438121676,38.17451293114573 83.44082522019744,52.67124869255349 72.8179583773017,117.9061915203929 90.31444494053721,141.82551964093 119.68354738503695,131.67793578188866 130.3064142279327,66.44312011264265 118.43379834294319,41.073862463235855 96.5631901435554,38.17451293114573 85.31544877961278,49.77190391905606 73.44283289834857,121.53033734997734 95.31344110146165,143.27517328970134 115.30942574515939,135.3020745497197 129.68153970688581,67.16795470798388 121.55817094445229,43.24837383022532 109.06068054586649,38.17451293114573 87.814946860075,48.322231088299304 75.3174564614892,125.87930989218876 92.18906849995255,141.82551964093 118.43379834294319,134.57724694348872 130.3064142279327,59.194770080037415 115.93430026620626,39.62418784573674 83.44082522019744,52.67124869255349 74.69258194044232,118.6310208356008 90.31444494053721,141.1006927061826 117.8089238256216,134.57724694348872 129.68153970688581,57.74509918084368 117.8089238256216,40.34902519034222 92.81394302099943,41.073862463235855 83.44082522019744,51.94641260895878 75.3174564614892,116.45653266785666 85.94032330065966,139.65103861456737 118.43379834294319,132.40276368521154 129.68153970688581,57.74509918084368 109.68555506318808,37.44967536116019 84.06569974124432,52.67124869255349 75.3174564614892,117.18136213067919 91.56419398263097,139.65103861456737 120.93329642340541,130.22827975731343 129.68153970688581,61.3692758702673 105.31143342331052,38.89935042662546 84.6905742585659,49.047067541629076 74.69258194044232,118.6310208356008 86.56519781798124,140.37586569739506 117.8089238256216,133.12759151356295 128.43179066851735,54.845756489783525 107.81093150377274,37.44967536116019 87.19007233902812,47.597394559532404 75.3174564614892,119.3558500749059 84.6905742585659,138.92621145537123 100.93731177970767,144.0 119.05867286399007,134.57724694348872 129.68153970688581,62.094110985752195 112.1850531436503,38.17451293114573 86.56519781798124,46.87255795672536 75.3174564614892,114.28204383235425 84.6905742585659,137.47655691532418 105.9363079443574,141.82551964093 117.8089238256216,133.85241926601157 128.43179066851735,59.194770080037415 114.68455122411251,39.62418784573674 86.56519781798124,46.87255795672536 73.44283289834857,118.6310208356008 87.814946860075,140.37586569739506 119.68354738503695,129.50345163140446 129.68153970688581,58.46993466839194 117.8089238256216,40.34902519034222 104.06168438121676,37.44967536116019 84.06569974124432,49.77190391905606 74.69258194044232,125.87930989218876 90.31444494053721,141.82551964093 118.43379834294319,128.77862343285233 125.93229258432984,50.49674022337422 110.93530410155654,38.17451293114573 96.5631901435554,38.17451293114573 81.5662016607821,57.02026361878961 74.06770741567016,109.9330641515553 75.3174564614892,126.60413838783279 92.18906849995255,140.37586569739506 119.68354738503695,128.77862343285233 124.0576690249145,43.97321080556139 97.18806466087699,38.89935042662546 75.3174564614892,63.5437809927389 78.441829059273,130.22827975731343 97.81293918192387,142.55034650163725 122.80791998654604,120.08067924249917 129.05666518211365,55.57059227582067 99.6875627413392,36.72483771899715 77.19208001717925,72.24179478595033 75.94233097881079,128.0537951583974 110.31042958423495,138.20138422353193 124.0576690249145,109.2082339450717 122.18304546177387,44.69804770452902 90.93931946158409,41.073862463235855 74.69258194044232,83.83912985259667 75.94233097881079,128.0537951583974 93.43881754204631,142.55034650163725 109.68555506318808,141.1006927061826 123.43279450759292,120.80550833372399 124.68254354596138,46.87255795672536 107.18605698272586,36.72483771899715 92.18906849995255,42.5235367808491 74.69258194044232,105.5840817950666 76.56720549985766,131.67793578188866 87.19007233902812,140.37586569739506 102.18706082180142,142.55034650163725 119.68354738503695,128.0537951583974 129.05666518211365,65.71828544465825 121.55817094445229,43.24837383022532 88.43982138112187,43.97321080556139 75.3174564614892,112.83238423569128 87.19007233902812,139.65103861456737 117.18404930457473,133.85241926601157 128.43179066851735,64.26861588424072 117.18404930457473,40.34902519034222 104.06168438121676,36.72483771899715 84.6905742585659,49.77190391905606 75.3174564614892,117.9061915203929 90.31444494053721,143.27517328970134 115.93430026620626,137.47655691532418 127.1820416264236,77.31563121965155 122.80791998654604,43.97321080556139 100.93731177970767,36.72483771899715 82.81595069915056,51.221576454583555 74.06770741567016,119.3558500749059 87.19007233902812,140.37586569739506 119.05867286399007,130.22827975731343 129.05666518211365,57.02026361878961 110.31042958423495,36.72483771899715 90.31444494053721,41.79869965882972 81.5662016607821,60.644440681673586 75.3174564614892,125.87930989218876 96.5631901435554,142.55034650163725 120.30842190608382,127.32896680897102 130.3064142279327,62.094110985752195 112.1850531436503,36.72483771899715 82.81595069915056,52.67124869255349 73.44283289834857,109.2082339450717 80.94132714346051,134.57724694348872 114.05967670306563,134.57724694348872 129.68153970688581,59.194770080037415 114.68455122411251,38.17451293114573 101.56218630447984,36.72483771899715 84.6905742585659,52.67124869255349 74.06770741567016,117.18136213067919 88.43982138112187,140.37586569739506 117.18404930457473,133.12759151356295 130.3064142279327,61.3692758702673 121.55817094445229,42.5235367808491 100.93731177970767,36.0 87.19007233902812,43.97321080556139 72.8179583773017,121.53033734997734 95.31344110146165,141.82551964093 119.68354738503695,128.0537951583974 129.68153970688581,57.74509918084368 107.18605698272586,38.89935042662546 84.6905742585659,49.77190391905606 72.1930838599801,123.70482395403087 89.68957041949034,140.37586569739506 119.68354738503695,129.50345163140446 130.93128874525428,66.44312011264265 117.8089238256216,41.79869965882972 89.68957041949034,44.69804770452902 71.56820933893323,109.2082339450717 85.31544877961278,139.65103861456737 118.43379834294319,131.67793578188866 130.93128874525428,70.79212656384334 114.68455122411251,38.17451293114573 95.93831562250853,39.62418784573674 78.441829059273,59.91960541671142 71.56820933893323,124.42965267505497 92.18906849995255,141.1006927061826 122.18304546177387,123.70482395403087 130.93128874525428,62.81894602626562 125.30741806700826,46.87255795672536 104.68655890226364,36.72483771899715 79.06670358031988,61.3692758702673 74.06770741567016,122.97999516129494 92.18906849995255,142.55034650163725 121.55817094445229,127.32896680897102 131.55616326630116,58.46993466839194 112.1850531436503,38.17451293114573 81.5662016607821,56.295427984092385 70.31846029683948,118.6310208356008 97.81293918192387,139.65103861456737 122.80791998654604,126.60413838783279 130.93128874525428,59.194770080037415 112.1850531436503,37.44967536116019 92.81394302099943,38.17451293114573 81.5662016607821,49.77190391905606 70.31846029683948,120.08067924249917 90.31444494053721,138.92621145537123 115.30942574515939,133.12759151356295 129.68153970688581,70.79212656384334 127.80691614374518,51.94641260895878 107.81093150377274,38.17451293114573 79.69157809764147,59.91960541671142 71.56820933893323,117.9061915203929 88.43982138112187,138.92621145537123 121.55817094445229,125.15448132157326 129.68153970688581,59.91960541671142 113.43480218574405,38.89935042662546 101.56218630447984,38.17451293114573 83.44082522019744,55.57059227582067 68.44383673742414,115.00687351776287 86.56519781798124,138.20138422353193 102.8119353428483,141.82551964093 120.30842190608382,128.77862343285233 129.68153970688581,58.46993466839194 114.68455122411251,38.89935042662546 94.0636920593679,40.34902519034222 82.81595069915056,54.845756489783525 69.06871125847101,117.9061915203929 89.06469590216875,138.92621145537123 107.81093150377274,138.92621145537123 120.30842190608382,126.60413838783279 129.68153970688581,64.9934507003054 126.55716710537672,50.49674022337422 107.18605698272586,36.72483771899715 82.19107618182898,55.57059227582067 72.8179583773017,121.53033734997734 94.0636920593679,138.20138422353193 120.30842190608382,125.87930989218876 130.3064142279327,62.81894602626562 119.68354738503695,43.24837383022532 105.31143342331052,38.89935042662546 79.69157809764147,66.44312011264265 74.06770741567016,126.60413838783279 93.43881754204631,141.82551964093 122.18304546177387,123.70482395403087 127.80691614374518,51.94641260895878 109.68555506318808,38.89935042662546 84.6905742585659,53.39608470071107 74.06770741567016,117.18136213067919 77.81695453822613,132.40276368521154 95.31344110146165,142.55034650163725 117.8089238256216,129.50345163140446 129.05666518211365,66.44312011264265 127.1820416264236,51.94641260895878 109.68555506318808,37.44967536116019 83.44082522019744,51.221576454583555 70.31846029683948,118.6310208356008 89.68957041949034,140.37586569739506 104.06168438121676,141.1006927061826 120.93329642340541,125.15448132157326 128.43179066851735,55.57059227582067 109.68555506318808,38.17451293114573 78.441829059273,58.46993466839194 71.56820933893323,124.42965267505497 91.56419398263097,139.65103861456737 109.68555506318808,138.20138422353193" stroke="#4dd2ff" stroke-linecap="round" stroke-linejoin="round" stroke-width="0.5"><title>2023-06-04 16.5km</title></polyline><polyline fill="none" points="125.12461208784953,156.0 123.03089441393968,160.1683974424668 120.99967577494681,162.52442642033566 111.87481665855739,170.06361359535367 109.81234850198962,173.61567488894798 107.40613565279637,197.50054769348935 103.12495175225195,219.3543360273179 101.90622056892607,220.22411059422302 86.68770553555805,220.26035115480772 80.53155058377888,219.71674235688988 79.93780975078698,220.04290773600223 78.9378251900198,224.42799083693535 78.6253300148528,234.3214083079656 79.1878213302698,238.95998491335195 80.68779817130417,242.87373659398872 82.31277308252174,243.59850067013758 86.68770553555805,243.99712027871283 93.78134601307102,243.59850067013758 97.53128811577335,244.72188205237035 89.81265728781,244.06959652292426 83.12526053795591,244.57692981653963 82.21902452991344,252.36802826452185 80.15655637346208,258.56454680720344 79.56281554047018,257.9485235082975 81.78153128467966,249.28784706900478 82.09402645984665,244.75812010202208 81.56278466188814,244.06959652292426 78.5315814622445,243.4173097902676 78.25033580441959,250.91853457334219 74.87538791215047,264.0 78.2190862869611,250.8460597328376 78.4378329096362,243.7796914569335 80.46905154851265,242.6563070814591 78.5940804972779,235.40858015950653 79.12532229535282,223.34078522131313 80.43780203117058,219.60802049704944 100.0,220.5140349744761 102.21871574409306,220.4777944398811 103.12495175225195,220.006667153124 107.53113372286316,199.16771679266822 109.31235622160602,175.28295665388578 110.8435825802153,171.3684565864387" stroke="#4dd2ff" stroke-linecap="round" stroke-linejoin="round" stroke-width="0.5"><title>2023-02-24 10.1km</title></polyline></svg>