<?xml version="1.0" encoding="utf-8" ?>
<svg baseProfile="full" height="300mm" version="1.1" viewBox="0,0,200,300" width="200mm" xmlns="http://www.w3.org/2000/svg" xmlns:ev="http://www.w3.org/2001/xml-events" xmlns:xlink="http://www.w3.org/1999/xlink"><defs /><rect fill="#222222" height="300" width="200" x="0" y="0" /><text fill="#FFFFFF" style="font-size:12px; font-family:Arial; font-weight:bold;" x="10" y="20">Over 3km Runs</text><text fill="#FFFFFF" style="font-size:4px; font-family:Arial" x="10" y="280">ATHLETE</text><text fill="#FFFFFF" style="font-size:9px; font-family:Arial" x="10" y="290">吴涛</text><text fill="#FFFFFF" style="font-size:4px; font-family:Arial" x="120" y="280">STATISTICS</text><text fill="#FFFFFF" style="font-size:3px; font-family:Arial" x="120" y="285">Number: 5</text><text fill="#FFFFFF" style="font-size:3px; font-family:Arial" x="120" y="290">Weekly: 1.0</text><text fill="#FFFFFF" style="font-size:3px; font-family:Arial" x="141" y="285">Total: 87.8 km</text><text fill="#FFFFFF" style="font-size:3px; font-family:Arial" x="141" y="290">Avg: 17.6 km</text><text fill="#FFFFFF" style="font-size:3px; font-family:Arial" x="167" y="285">Min: 10.1 km</text><text fill="#FFFFFF" style="font-size:3px; font-family:Arial" x="167" y="290">Max: 28.3 km</text><polyline fill="none" points="14.0,84.58905918373057 14.926528816547943,84.77412711820216 15.140343158855103,84.23840294460388 16.763748350233072,84.19944104287424 16.866695996490307,83.72215616547328 17.223053233639803,83.61501017899718 18.173339199332986,83.70267508798133 18.292124945030082,82.93316863118525 18.69599648041185,82.03702495186008 18.933567971893353,81.05320317503356 19.084029916411964,80.8194219163779 19.21865376154892,80.99475792614976 19.084029916411964,80.87786729678919 19.084029916411964,80.53693529297743 19.487901451822836,79.87454884949693 19.559172899258556,78.65691202088055 19.963044434669428,78.20881687811925 20.88957325121737,78.11140454959241 21.4676638803503,78.61794732818089 21.388473383209202,78.56924143488868 21.57853057634202,78.48157075022027 22.544654641475063,78.42312357229821 23.083150022022892,78.55950025256607 23.653321601450443,78.39389996687532 24.144302683707792,78.13088702505047 24.13638363397331,78.01399209922238 24.77782666083658,77.88735573167651 26.242850857932353,78.03347459903307 26.369555653305724,78.16985196132009 26.147822261380497,78.20881687811925 26.440827100770548,78.15036949560454 26.7338319401606,78.28674665332073 26.82886053674156,78.42312357229821 26.49626044879551,78.47182955690369 27.17729872421478,78.63742967698636 27.018917729874374,78.70561785939935 27.1297844259243,78.75432366744644 27.35943686758401,78.72510018626053 27.699956005293643,78.97836999232095 28.05631324244314,78.75432366744644 28.301803783571813,78.87121748254867 28.190937087580096,78.93940546037629 28.190937087580096,78.81277059693093 27.88209414872108,79.30956772725767 27.604927408741787,78.84199404520768 27.82666080072522,79.10500458662864 28.135503739555134,78.90044090892479 28.42058952926891,78.90044090892479 28.499780026410008,78.61794732818089 28.959084909816738,79.29982663751434 28.95116586011136,79.04655787636875 29.172899252094794,79.5238713938088 29.196656401240034,79.3582731577917 29.55301363838953,80.00118198726705 29.798504179518204,80.254447645435 30.123185217787977,80.32263441273972 30.376594808651134,80.11807393180788 30.60624725036905,80.14729689049273 30.637923449190566,80.00118198726705 30.46370435549761,77.45873880658473 30.732952045771526,81.01423968063318 30.867575890908483,81.17983439729869 31.160580730327638,81.16035268422274 31.231852177763358,81.02398055607046 30.90717113946448,80.45900776834605 30.946766388049582,80.27392958501878 30.748790145211387,80.14729689049273 30.780466344062006,79.75765653962299 30.630004399485188,79.455683927481 30.796304443472764,79.36801424023724 30.297404311510036,78.65691202088055 30.835899692057865,79.19267456980742 30.78838539379649,78.98811112225667 29.648042234941386,76.16313240142335 29.35503739552223,76.11442497350072 29.062032556103077,76.36770326619444 28.190937087580096,76.58201502457814 28.333479982422432,76.74761916137504 28.159260888700373,76.93270572123583 28.103827540704515,76.81580899772962 27.82666080072522,76.81580899772962 27.715794104733504,76.37744472252962 26.72591289045522,75.43251778522972 26.844698636152316,75.40329305806517 26.7338319401606,75.46174250141485 26.979322481318377,75.62734901945078 26.979322481318377,75.19871966097708 26.884293884737417,75.2669108530099 26.797184337920044,74.94543756797066 26.52793664764613,74.77982960038207 26.40123185221455,74.4875793870815 25.704355477384524,74.01997676540486 25.50637923454633,74.17584461782826 24.78574571054196,73.90307567146374 24.666959964844864,73.5718549526573 24.096788385417312,72.9873443665565 25.086669599666493,72.58792627703224 25.205455345392693,72.80224843333417 25.84689837222686,72.55870048276847 26.155741311085876,72.65611975436332 26.662560492783086,73.1626980028741 26.860536735650385,73.08476310212427 26.868455785297556,73.19192357054271 27.193136823596433,72.92889306672441 27.319841618998908,73.22114912728284 27.058512978459476,73.37701857792126 27.240651121886913,73.42572771728737 27.10602727677906,73.74720727332169 27.660360756737646,73.92255919931631 27.81874175099074,73.85436683055741 28.515618125820765,74.42912921284733 28.650241970957723,74.28300358542765 29.42630884295795,74.17584461782826 29.362956445256714,74.25377842706803 29.616366036090767,74.39016240566707 30.479542454937473,74.33171215834591 30.946766388049582,74.4875793870815 30.915090189198963,74.33171215834591 31.10514738233178,74.46809600054257 32.332600088004256,74.16610288617812 32.38803343602922,73.93230096140178 32.68103827544837,73.8056579591721 33.465024197124876,72.74379699465499 33.38583369998378,72.38334548690182 34.03519577655243,72.75353890414408 34.39155301367282,73.28934205030237 34.169819621689385,73.31856757047353 34.08271007484291,73.5913385633612 34.25692916853586,73.39650223732315 33.77386713598389,72.94837683820515 33.22745270570158,72.0910862833116 33.06907171141938,71.57475901066209 32.522657281166175,71.45785424739006 32.00791904973448,71.88650418839097 31.51693796744803,71.89624620510585 31.160580730327638,71.67217951273051 31.02595688519068,71.93521425970539 30.51121865378809,72.13979622672196 30.297404311510036,71.73063175549032 30.329080510360654,71.37991764105391 30.732952045771526,70.82461706407048 33.465024197124876,68.39878391579259 33.38583369998378,68.21367707936588 33.86889573253575,68.16496468090918 33.77386713598389,67.83371956332849 34.130224373104284,67.56092840882047 34.090629124548286,67.20045291791757 34.2806863176811,66.90817426817375 34.86669599649031,66.64512254569127 34.72415310161887,66.71332122570311 34.86669599649031,66.75229187322839 34.605367355950875,66.78151984600845 34.73999120105873,66.83023310969293 34.660800703946734,67.00560060661519 34.779586449672934,67.11276943815756 34.692476902826456,66.83997575876128 34.61328640562715,66.8886889858768 34.76374835020397,66.83997575876128 34.62120545539074,66.9666300858662 34.56577210733667,66.84971840662183 34.684557853091974,66.6840932273335 35.03299604047788,66.83997575876128 34.9458864936023,67.09328420701786 35.04091509018326,67.27839370594302 36.038715354166925,67.14199727569212 36.22877254729974,66.64512254569127 36.545534535864135,66.4405261473803 36.66432028156123,66.12875917364727 36.45842498901766,65.7390487016819 36.23669159700512,64.6575919287352 36.78310602728743,63.488432579746586 37.13154421473155,63.36177259663236 37.701715794129996,63.64432150696666 37.69379674442462,63.86841129320965 38.02639683239977,64.06327145284013 38.15310162780224,63.95609842539852 38.38275406952016,64.05352845645393 38.5648922129476,64.33607485730317 38.46194456666126,64.46273325600487 38.55697316324222,64.38478965040122 38.303563572408166,64.00481345615844 38.03431588210515,64.06327145284013 37.685877694690134,63.90738336414506 38.184777826681966,63.946355415573635 38.54113506380236,64.31658893152053 38.46194456666126,64.72579234901787 37.77298724153661,64.94987902377034 37.93136823581881,65.50522148254095 38.55697316324222,65.93390418140189 38.73911130664055,66.235929211638 39.18257809066563,66.00210348414112 39.18257809066563,65.72930591489421 39.404311482649064,65.75853427159745 39.855697316350415,66.55743844081007 39.45974483064492,66.78151984600845 39.48350197976106,67.04457110787916 39.926968763786135,66.90817426817375 39.855697316350415,66.80100515516096 40.17245930491481,66.61589452170301 39.67355917292298,66.02158898824564 39.7448306203587,65.7390487016819 40.14870215576957,65.44676456809975 40.01407831063261,65.23242217303778 40.33084029919701,64.95962190803402 40.5684117906203,65.08627929275099 41.05147382317227,64.75502108228102 41.5899692037201,64.76476399091916 42.08095028597745,64.64784900665836 42.096788385446416,64.54067678361025 42.595688517409144,64.6575919287352 43.16586009680759,64.57964851813449 43.33216014079517,64.69656360476802 43.29256489223917,64.25813112495234 43.466783985932125,63.87815431278432 44.504179498471785,62.97204827969108 46.23845138584147,62.611551550318836 47.14914210297866,62.62129472709785 49.002199736074544,63.17665378925449 49.10514738233178,62.97204827969108 49.65948086231947,63.225369307532674 49.73075230975519,63.47868951141572 49.72283326004981,63.10845201246411 49.58029036517837,62.903846323737525 49.849538055452285,62.53360609212541 49.83369995604153,62.338742105377605 50.05543334802496,62.17310733330669 49.920809502888005,61.77363378673908 50.25340959086316,61.52030803696107 50.2375714914524,61.22800807101157 50.66520017597941,61.20852136762551 50.871095468552085,61.461848131526494 50.823581170261605,61.705430781330506 50.91860976687167,61.705430781330506 51.425428948539775,61.03314081757708 52.399472063349094,60.575200852741546 52.565772107365774,60.243923454967444 52.95380554336589,60.195206071744906 53.40519137706724,59.61059509587358 53.674439067341154,59.46444166614674 53.79322481303825,58.91879977186181 54.30796304444084,58.29520435415907 54.521777386718895,57.06748628245259 55.297844258719124,56.580291207028495 55.3057633084245,56.804401320296165 55.24241091069416,56.70696221986873 55.321601407864364,56.76542569476442 55.41663000441622,56.59977906856511 55.61460624728352,56.8628647220321 55.93928728552419,56.804401320296165 56.39859216896002,56.20027693218435 56.84997800266137,55.859236901495024 57.206335239781765,55.225872881790565 57.43598768149968,55.42075466730603 58.029916410072474,55.342802011618915 58.93268807747518,55.693588347661716 58.70303563575726,55.937189040196245 58.90893092830083,55.878724943482666 59.57413110428024,56.51208365322964 60.453145622537704,56.40490023369057 60.75406951166224,56.658242623911065 60.92036955567892,57.56442211934336 61.6726792785048,58.032123539633176 62.00527936650906,57.934685975385946 62.26660800704849,57.39877719271317 62.892212934442796,57.27210730520892 63.19313682359643,57.778785618975235 63.185217773891054,58.285460636150674 62.987241531023756,58.188023388851434 63.21689397274167,58.49007845859887 63.33567971846787,58.47059107012319 63.232732072181534,58.48033476497221 63.24857017159229,58.67520840614452 63.50989881216083,59.38649305817671 63.597008359007305,59.49367237405386 63.62868455788703,59.3962366384294 63.53365596130607,59.31828796220361 63.44654641445959,59.474185236686026 63.636603607592406,59.46444166614674 63.96128464586218,60.16597562717652 63.88209414872108,59.454698094436026 63.92960844701156,59.85418353579735 64.0721513418539,59.96136220801418 63.96128464586218,59.951618698454695 64.53145622528973,60.05879723656835 64.55521337443497,60.30238427462609 64.05631324244314,60.40956233001634 64.67399912013207,59.70803056326986 64.78486581615289,59.37674947670894 64.80070391556364,59.80546590875747 64.67399912013207,59.581364431855036 64.95908490984584,59.600851542410965 64.46810382755939,59.367005893996975 64.68191816983745,59.542390196133056 64.6581610206922,59.6982870220163 64.75318961727316,59.620338648084726 64.59480862299097,59.67879993585666 64.7373515178333,59.9223881624348 64.64232292128145,60.1270016840208 64.78486581615289,60.26341039975523 65.22041355038527,60.2244365053557 65.68763748352649,60.41930578229949 65.66388033438125,60.16597562717652 65.52133743953891,60.18546259144205 65.51341838980443,60.565457419994345 65.86185657724855,60.575200852741546 66.40035195779637,61.23775142089289 66.74087109550601,61.12083114198322 67.24769027717412,61.26698146319541 67.31896172458073,61.15006122816703 67.65948086229037,61.33518485257082 67.73867135946057,61.96849918738735 67.39815222175093,61.8223501826069 67.39815222175093,62.00747220899939 67.57237131544389,62.07567494990508 67.58029036517837,61.91003961838578 67.87329520459753,61.91978288292012 68.10294764628634,62.212080252575106 68.38011438626563,62.786928546003764 68.26132864056854,63.97558444133756 68.42762868455611,64.00481345615844 68.38803343600011,63.8976403482593 68.45138583370135,64.02429945993208 68.30884293882991,63.98532744750264 68.4355477342906,64.06327145284013 68.59392872857279,63.88789733113663 68.49890013199183,63.70277977424121 68.38011438626563,63.90738336414506 68.50681918172631,63.91712637882301 68.40387153541087,63.96584143397922 68.53849538054783,64.29710300087754 68.32468103829888,65.43702174473583 68.45138583370135,65.91441865536763 68.21381434230716,65.96313246131467 68.68103827541927,65.85596204800095 69.14826220853138,66.28464281651395 68.9423669159878,66.79126250119589 68.3167619885644,67.21019552067446 68.45930488343583,66.89843162763282 68.17421909369295,66.98611534867814 68.40387153541087,66.89843162763282 68.62560492745251,67.00560060661519 68.34051913770963,67.11276943815756 68.49098108228645,67.3563344159993 68.70479542456451,67.27839370594302 68.49098108228645,67.58041352299188 68.79190497141099,67.3271066588859 68.5543334800168,67.90191720268194 68.68103827541927,67.75577933095337 68.9027716674027,67.8142345125525 68.81566212055623,67.55118584993033 68.96612406513304,67.52195816593303 68.95820501542767,67.395304741789 68.87901451825746,67.56092840882047 69.03739551253966,67.5024730371515 68.97404311483842,67.43427504805004 69.07699076112476,67.70706664614409 69.18785745711648,67.5024730371515 69.02947646283428,67.59989863224473 68.9027716674027,67.27839370594302 68.9423669159878,67.8142345125525 69.34623845139868,66.8692036986904 69.51253849538625,67.78500692724629 69.99560052796733,67.541443289796 69.87681478224113,67.4635027649856 69.86889573253575,67.83371956332849 69.57589089308749,68.1454797129627 69.78970523539465,68.05779729699134 69.78970523539465,67.80449198532006 69.69467663881369,67.85320460924413 69.86097668283037,68.32084424879577 69.70259568854817,68.33058671143954 69.73427188736969,68.78848108091915 69.68675758910831,69.07101030654303 69.61548614167259,68.98332893239422 70.22525296965614,69.19766100608103 70.09062912451918,69.44121946489031 69.78178618566017,69.37302317316062 70.20941487021628,69.6360656836041 69.81346238453989,69.56786956250289 69.3383194016933,69.7140040346494 69.58380994282197,69.86988050277432 69.63924329081783,70.24008586446871 70.09062912451918,70.4836410640346 70.35195776508772,71.370175559794 70.38363396393834,71.15584946355375 70.35195776508772,71.34094930867286 70.25692916850676,71.14610735427414 70.3598768148222,71.10713890490297 70.23317201936152,71.16559157162555 70.2014958205109,71.57475901066209 70.28860536738648,71.51630665094126 70.36779586449848,72.07160229742294 70.89045314563555,73.43546954149497 71.04091509018326,73.60108036686142 71.17553893534932,73.17243985996902 71.2230532336107,74.07842724661896 71.47646282447386,73.96152624035312 71.90409150902997,74.19532807743235 72.13374395074788,74.03946026404446 72.22085349759436,74.10765247075324 72.25252969647408,72.88018361672584 72.57721073471475,72.75353890414408 73.6225252969889,72.75353890414408 73.96304443469853,72.34437765643088 74.03431588213425,71.75011582664592 74.12142542898073,72.02289231137547 74.50153981524636,72.25669996662327 75.01627804661985,72.04237630945136 76.2912450506119,71.95469827974011 76.86933567971573,72.19824811858416 77.4315882094088,72.85095793207438 77.7087549494172,73.70824012506637 77.59788825342548,74.05894375775097 77.47910250772838,73.98100975360285 77.43950725914328,74.44861260913603 77.6691597008612,74.70189631737594 78.23933128025965,74.54602951741981 78.51649802023894,73.93230096140178 78.7699076111021,74.05894375775097 79.45886493622675,73.71798191398557 80.40123185221455,74.24403670519678 80.22701275849249,74.4875793870815 80.35371755392407,74.71163798200723 80.13990321161691,74.71163798200723 80.55169379676227,75.6857982947331 80.98724153105286,76.08520050211519 81.25648922132677,76.12416646153724 81.62076550818165,75.24742766137933 82.00087989444728,74.80905456141045 82.27804663442657,74.6824129844099 83.14122305321507,74.90647101902869 83.79058512981283,75.43251778522972 84.17861856578384,75.95856099952653 84.58249010119471,76.20209832183173 86.0,76.48460066202097" stroke="#ff5100" stroke-linecap="round" stroke-linejoin="round" stroke-width="0.5"><title>2024-05-27 22.5km</title></polyline><polyline fill="none" points="164.58791849476984,71.7212509521487 164.2444154039258,70.86973157122702 164.12016960512847,70.09973183347029 163.57933495152975,69.29348784844478 163.3235347775044,68.34228933095437 162.81924300591345,67.49978855385416 162.70230578351766,66.91999725484493 162.72423151269322,66.5757439266963 162.85578588789213,66.4579726673619 162.65845432510832,66.15901397619746 162.63652859590366,66.36737925776106 162.43919703309075,66.11371709476953 162.32225981072406,65.79663811423234 162.40996272748453,65.64262781175785 162.17608828272205,65.5248550016986 162.30764265789185,65.48861717460386 162.17608828272205,65.18059489611915 162.27840835231473,64.6370229032691 162.00799102551537,63.82165709592664 161.92759668509825,62.843205742770806 161.2259733506653,61.99157967883366 161.44523064268287,61.66542230545019 161.33560199665953,61.293963468306174 160.83861880147015,60.70506132103765 160.9117045654566,60.3154772105554 160.67783012063592,59.68126593719353 159.94697248065495,58.92020491568837 159.64732084822026,58.46718852164486 159.67655515382648,58.267860390660644 159.47922359101358,58.45812816423131 159.4280635562318,57.87826287904318 159.20880626421422,57.343695365088934 158.7337487982004,56.745699807215715 158.59488584659994,56.23830567866389 157.63746233817074,55.08759481450397 156.95776473294245,53.71034149174375 156.74581601735554,53.65597567968507 156.57771876014885,53.429451013711514 156.66542167693842,53.13949838432018 157.1989477541647,53.085132134168816 157.016233344184,53.03076584234077 156.98699903857778,52.758933757213526 156.8189017813711,52.61395621864358 156.95776473294245,51.20947095398151 157.0820105317398,51.02824502052681 157.05277622616268,50.24896822350274 157.1624048721569,50.37582782116078 157.11124483734602,50.24896822350274 156.84813608694822,50.3123980507371 156.72389028812177,50.20366116926016 156.76043317015865,49.72340461288695 157.7251652549603,48.735696932300925 157.20625633059535,48.336985342808475 157.32319355299114,47.54861718475877 156.81159320496954,47.36738188498566 156.93583900373778,46.94147710518155 156.68003882977064,46.01716430500528 156.29268428054638,45.917482792268856 156.1757470581506,45.72718133294984 155.93456403692835,44.929722037995816 155.95648976613302,44.40411895710713 155.7299238977139,43.842263074591756 155.4814323001192,43.661018290687934 155.5983695225441,43.59758250674349 155.45950657091453,43.4344616585513 155.5325923349592,43.09915651295887 155.26217500813073,43.08103186527296 154.71403177810134,43.3710256716804 154.5386259445222,43.30758962799155 154.37052868728642,42.60072701146419 153.87354549206793,42.183856007301074 153.53004240128212,41.41354443459568 153.5154252484499,41.069167138964985 153.1865393104672,40.7338507946115 152.91612198363873,40.11758958908467 152.5433845872467,39.872896152417525 152.229115802038,39.32006712706061 151.6809725720086,38.99380534931697 151.54210962040816,38.450032379427284 150.9720406612032,37.75218428354128 150.9574235084001,37.453104422929755 150.48967461881693,36.60117304767482 150.3142687851796,35.9758126426168 150.15348010440357,35.83986399764399 150.00730857640156,35.87611699516128 150.13886295157135,35.486396299245826 149.9342228123569,35.694851821994234 150.02192572917556,35.38669996269164 149.78805128438398,35.66766200600978 149.86113704839954,35.36857334099477 149.7515084023762,35.46826970301481 149.75881697880686,35.07854676233546 149.6345711799804,35.17824353274045 149.2910680891655,34.82477253156685 149.45916534637217,34.59818762834766 149.6199540271482,34.65256807125115 149.69303979119286,34.88821617452777 149.89767993037822,34.77039222091844 150.1169372223958,34.86102604878397 149.70034836759442,34.86102604878397 149.7368912496022,34.77039222091844 149.70765694396687,34.85196267122228 150.09501149322023,34.96072312544129 150.4969831951894,35.39576327182294 150.41658885480138,35.27794016277039 150.51890892439405,35.37763665239618 150.92088062642142,35.223560200145585 151.12552076560678,35.41388988656399 151.87099555841996,35.296066807670286 152.39721305924468,35.404826579775545 152.84303621968138,35.33232008358755 153.0696020880714,35.59515577896673 153.0549849352683,35.84892724877136 153.1207621228532,35.37763665239618 152.98189917125273,34.933533027549856 153.11345354648074,34.95165976064891 153.09152781727607,35.08761011088791 153.17923073406564,35.042293356476875 153.04767635886674,35.13292683632608 153.2011564632703,35.32325676637265 153.435030908091,35.250750186685764 153.44233948449255,35.11480014964036 153.34732799127232,34.71601186850603 152.97459059485118,34.57099739124533 152.90150483086472,34.244713731524826 153.6323624709039,34.0 153.66890535288258,34.45317290980165 153.58851101249456,34.117825235560304 153.29616795646143,34.0 153.83700261008926,34.290030996380665 153.99048271449283,34.17220604739123 154.28282577049686,34.2084598987567 154.1585799717286,34.299094445879746 153.3984880260832,34.07250786048098 153.1353792756563,34.17220604739123 153.01844205326051,34.57099739124533 153.36194514407543,34.779455608921126 153.47157379006967,35.28700348579878 152.8722705252294,35.36857334099477 151.7979097944335,35.296066807670286 151.17668080044677,35.441079800002626 150.86972059161053,35.28700348579878 150.48967461881693,35.43201649671391 149.96345711799222,34.96978648906952 149.6711140619882,34.87915280045854 149.52494253398618,34.62537785503082 149.4372396171675,34.76132883176615 149.91960565958288,35.63140890176874 150.13886295157135,35.54983934938355 150.16078868080513,35.95768617169233 150.42389743120293,36.256772348431696 150.40197170199826,36.41990973055363 151.09628646000056,37.90625523392373 151.77598406522884,38.28689967421815 151.4690238564217,38.685667845697026 151.81983552363818,38.72191938630567 152.09025285040843,38.94849109463394 152.18526434362866,39.147873598340084 152.0975614268391,39.32006712706061 152.214498649264,39.45600909081986 152.53607601081603,39.33819273730478 152.48491597606335,39.66445292836579 152.6091617748607,39.78226873907988 153.2011564632703,39.55569969836506 153.27424222725676,40.04508791823173 153.61774531804258,40.77916390691826 153.60312816526857,41.10541745945375 154.0781856312824,41.98448205096793 154.16588854807196,42.45572867964074 154.39976299289265,42.655101309370366 154.56055167369777,43.3257142177099 154.71403177810134,43.41633709668531 155.0867691745225,43.216966609870724 155.1817806677136,42.82728631065402 155.1817806677136,43.171655057354656 155.55451806416386,43.15353042820061 155.65683813372743,43.425399378196744 155.5325923349592,43.760702979205234 155.70799816850922,43.82413861704845 155.94918118973146,44.4675540186945 155.93456403692835,45.165335946039704 156.26344997494016,45.863110998914635 156.66542167693842,45.98997845182021 156.67273025336908,46.36151754234015 156.90660469816066,46.832735048854374 156.79697605216643,47.430814292645664 157.18433060136158,47.43987606052542 157.2793420945527,47.57580243971461 157.1331705665798,48.40947852599493 156.84082751054666,48.01982679392677 157.11124483734602,48.255430422992504 156.85544466334977,48.35510864553362 157.0820105317398,48.40041688216297 156.8846789689851,48.38229359097022 156.8189017813711,48.24636875944998 156.68003882977064,48.346046994753124 156.2561413985677,48.273553746621474 156.34384431532817,47.17708432112704 156.16112990531838,46.678683516642195 155.8614782729419,47.30394942051498 155.1160034800996,47.78422238116764 154.77980896571535,48.46384836472134 154.31936865247553,48.59071115942788 153.63967104727635,48.30980037995323 152.5580017400498,48.75382013305352 152.57992746922537,48.962236608298554 152.74802472646115,48.99848288924113 153.20846503967186,48.59071115942788 153.6469796236779,48.44572508978308 154.18050570090418,48.826312889657856 154.79442611851846,48.799128114616906 155.3644950777234,48.30980037995323 155.71530674491078,49.406252271648555 155.07946059809183,49.98618690561125 154.25359146489063,50.430196150628035 154.08549420768395,51.80751324494486 153.47888236647123,51.99779836966627 152.28027583681978,53.1304373455132 151.2059151059948,53.529121955973096 150.62122899401584,53.891560563934036 150.45313173678005,54.30836267079576 150.53352607719717,54.462397611416236 151.24976656440413,54.07277917256579 152.28758441322134,53.83719489094801 152.42644736488,54.00029178473778 152.23642437846866,54.76140565777314 152.31681871885667,54.90637880173017 153.28155080368742,54.68891897452704 154.0270255965006,54.7976489715802 154.25359146489063,55.03323005933635 153.59581958886702,55.767150734078314 152.64570465683937,56.546366832917556 151.4544067036186,57.95074629921146 150.38735454916605,58.956446102085465 150.27041732679936,59.001747559028445 150.1973315628129,58.865843101353676 151.2059151059948,57.7695376097472 151.4690238564217,57.1171824900448 152.41913878844935,55.92118250301428 152.44837309405557,55.68560436791449 152.19988149643177,55.65842222498031 151.3374694812228,55.92118250301428 149.5541768395633,55.83057562065369 148.86717065793346,55.56781500660145 147.7855013507069,55.44096470618388 147.54431832951377,55.187263423948025 147.53700975311222,54.97886526244838 148.58944475476164,53.71940245635051 149.15220513756503,53.37508498610987 149.1741308667697,53.22104768128338 147.8220442327438,54.26305821272399 146.8134606895037,54.6073713672522 146.3164774942852,55.377539470777265 146.22877457749564,55.25974959729501 146.353020376293,54.93356123319245 146.2507003067003,54.86107472609001 146.03144301471184,55.32317493813025 146.04606016748585,55.56781500660145 146.46995759871788,56.09333526020055 146.27262603590498,57.388997853217006 147.4712325654982,58.00510881570517 147.76357562153134,59.01080784692749 147.55162690594443,60.14333471196005 146.42610614030855,61.094643289507076 146.50650048069656,62.0640588913011 147.04733513432438,63.19653695658053 148.04861010113382,63.794478074109065 148.75023343553767,64.68232072859246 149.08642794998013,65.43426039919723 148.90371353997034,66.67539637785376 148.53828471992165,67.5541437449283 148.50905041437363,68.4238211326956 148.83793635235634,68.65935692196217 150.07308576398646,68.99454111859814 150.5627603828034,68.80430163396522 150.78201767482096,68.39664387585799 151.4544067036186,67.6990907173822 151.5859610788175,67.65379482034041 151.6517382664024,67.77156409242889 151.30092659924412,68.05239772066852 150.4604403132107,69.49278496778425 149.4737824991753,70.52549742830888 149.07911937357858,70.44396804432472 148.78677631754545,69.78267068638525 147.98283291354892,69.73737612101831 147.52970117671066,69.28442887516576 147.42007253071642,69.34784166385361 148.22401593471295,70.31714437169285 148.70638197712833,71.57631220549956 148.40673034475185,72.20135843336175 148.35557030994096,73.41520057869639 147.73434131592512,74.61090535295807 147.51508402393665,75.39897247170302 147.80011850353912,75.96963629515812 147.89512999673025,76.50406332899729 148.779467741173,77.89898948470363 149.08642794998013,79.00404136889847 149.3714624295535,79.2123688925858 149.69303979119286,79.12179178358929 150.89895489721675,79.86452066105267 151.69558972484083,79.99132725266827 151.90753844042774,80.32645786723879 151.23514941163012,80.19059429552726 151.04512642521877,80.3174003039021 151.13282934203744,82.13794727702043 150.33619451438426,82.5545832941134 150.47505746601382,85.49813757257652 150.3800459727936,86.21362922676781 144.28469325506012,86.32231087172113 139.97263317892794,85.82418529776623 138.21857484290376,85.76984411435114 137.9993175508862,85.91475384424848 137.94084893967374,90.25285174143937 137.71428307128372,90.49737127892149 136.5960708820494,90.70566503470036 136.58876230564783,91.8195734308465 136.44259077764582,92.44444121173728 135.4705501164135,93.4677635117987 135.41208150523016,93.73038366792025 135.54363588042906,100.74832071360288 135.7702017488482,101.01996883301763 136.113704839634,101.11051797494292 137.82391171730706,101.11957288278063 138.05778616209864,101.25539636163012 138.18934053729754,105.24849042266578 138.05047758569708,105.72837095100112 135.84328751286375,106.0 135.74827601961442,105.88229420647258 135.76289317241753,104.78671552866581 135.84328751286375,105.94567427338916 135.58017876240774,105.98189142908086 135.64595595002174,104.72333442626405 135.82867036000243,104.37021010473836 135.9163732768211,104.43359152267658 136.61799661125406,102.89431250325288 136.42066504844115,103.01202325480699 136.31103640244692,102.88525782195211 136.6106880348525,102.84903908526758 136.20871633282513,102.95769523989293 136.25256779123447,103.05729656876065 136.65453949326184,102.80376563838217 136.23795063846046,102.95769523989293 136.26718494403758,103.11162450739357 136.04061907561845,103.16595240440802 136.04061907561845,103.28366270518018 136.25987636763602,103.1025698538433 136.17217345084646,102.99391392112011 135.96022473523044,104.09857481511426 135.7702017488482,104.08952028753265 135.81405320722843,103.97181132397236 135.92368185325176,104.01708402542135 136.15755629804335,103.80882935968839 136.58145372924628,103.80882935968839 136.82263675043941,103.94464768929174 136.99804258404765,103.82693848532654 137.48040862646303,103.84504760635173 137.79467741167173,104.01708402542135 137.97739182168152,103.84504760635173 137.97739182168152,103.49191891267401 138.19664911367,103.23838953568338" stroke="#ff0000" stroke-linecap="round" stroke-linejoin="round" stroke-width="0.5"><title>2024-03-30 28.3km</title></polyline><polyline fill="none" points="33.86158151179552,169.6800971091725 44.62052717059851,184.56001085881144 63.6555848736316,175.9200667012483 68.62125210091472,127.92008640058339 55.37947282753885,115.92001437954605 37.99963753297925,126.480079382658 34.27538711205125,170.64009297266603 47.51716638542712,184.56001085881144 63.6555848736316,174.0000769435428 69.03505770489573,130.32009710976854 57.034695237874985,114.0 38.827248737215996,122.64005850208923 34.27538711205125,170.16009506490082 45.861943976953626,184.08001438016072 62.82797366939485,175.44006933597848 69.03505770489573,129.36009297473356 56.62088963389397,114.0 38.827248737215996,122.64005850208923 35.930609522387385,168.24010294489563 46.68955518305302,183.60001785121858 63.6555848736316,173.5200793799013 69.44886330515146,133.20010833768174 61.58655686303973,116.40001785103232 45.44813837483525,115.92001437954605 38.41344313696027,125.04007192282006 36.75822072662413,155.28013552026823 35.51680392026901,122.1600556713529 32.20635910332203,171.12009083060548 49.58619439601898,185.5200036689639 63.241779271513224,173.5200793799013 68.2074464969337,127.4400841104798 52.89663921482861,114.96000728895888 37.58583193272352,127.4400841104798 34.27538711205125,171.60008863871917 49.17238879390061,184.08001438016072 63.6555848736316,172.56008410919458 67.79364089667797,124.08006670232862 51.24141680635512,114.96000728895888 37.58583193272352,130.80009910464287 35.10299831815064,177.8400556705892 48.34477758966386,185.5200036689639 61.172751259058714,177.8400556705892 39.241054341197014,126.00007694447413 33.86158151179552,172.56008410919458 48.34477758966386,185.5200036689639 63.6555848736316,174.0000769435428 67.79364089667797,125.04007192282006 53.724250420928,115.44001085916534 41.31008235178888,120.72004688018933 33.03397030569613,162.00012311013415 40.896276749670506,183.60001785121858 62.000362465158105,176.8800612827763 68.2074464969337,130.80009910464287 59.51752885244787,117.84002797165886 47.93097198754549,116.88002127408981 38.827248737215996,124.56006933748722 33.03397030569613,171.12009083060548 45.44813837483525,185.04000728903338 62.000362465158105,176.8800612827763 37.58583193272352,125.52007445786148 32.20635910332203,172.08008639886975 47.103360783308744,185.5200036689639 62.82797366939485,174.48007445596159 67.79364089667797,126.480079382658 53.724250420928,115.44001085916534 38.41344313696027,125.04007192282006 33.03397030569613,172.56008410919458 48.34477758966386,185.5200036689639 62.82797366939485,174.96007192041725 68.2074464969337,130.80009910464287 53.724250420928,115.92001437954605 42.551499158144,119.7600407754071 37.17202633060515,130.80009910464287 35.10299831815064,178.32005278905854 46.275749579072,185.5200036689639 60.34514005482197,179.2800468802452 38.827248737215996,125.04007192282006 31.79255349934101,172.08008639886975 46.68955518305302,185.5200036689639 62.41416806727648,175.9200667012483 68.2074464969337,129.84009506646544 53.724250420928,115.92001437954605 37.17202633060515,126.480079382658 31.79255349934101,171.60008863871917 47.93097198754549,186.0 64.06939047574997,174.0000769435428 66.96602969244123,125.52007445786148 52.48283361457288,116.40001785103232 40.48247114755213,122.64005850208923 31.378747897222638,168.72010104823858 41.72388795390725,184.56001085881144 61.172751259058714,181.20003447122872 36.3444151263684,150.00013849977404 35.930609522387385,178.8000498600304 46.68955518305302,186.0 59.10372324846685,182.640024646651 68.2074464969337,132.2401047917083 57.44850083999336,117.36002464639023 38.827248737215996,123.60006401780993 31.79255349934101,170.64009297266603 45.861943976953626,185.5200036689639 62.82797366939485,176.40006401669234 68.2074464969337,131.76010294584557 54.55186162516475,116.40001785103232 38.41344313696027,126.00007694447413 32.6201647054404,173.04008176922798 45.861943976953626,185.5200036689639 62.000362465158105,178.8000498600304 67.79364089667797,131.2801010501571 56.20708403363824,116.88002127408981 37.99963753297925,126.480079382658 31.79255349934101,172.56008410919458 44.206721568480134,185.5200036689639 62.000362465158105,177.8400556705892 68.2074464969337,131.2801010501571 58.689917646348476,117.36002464639023 46.68955518305302,117.36002464639023 38.41344313696027,125.52007445786148 31.378747897222638,170.64009297266603 44.206721568480134,185.5200036689639 62.000362465158105,178.8000498600304 67.79364089667797,132.72010659007356 56.62088963389397,117.36002464639023 38.41344313696027,125.52007445786148 30.964942295104265,169.6800971091725 44.62052717059851,185.5200036689639 62.000362465158105,175.9200667012483 68.2074464969337,131.2801010501571 56.62088963389397,116.40001785103232 37.99963753297925,126.00007694447413 31.378747897222638,170.64009297266603 43.37911036424339,185.5200036689639 61.58655686303973,178.32005278905854 68.2074464969337,131.2801010501571 57.034695237874985,116.88002127408981 37.99963753297925,126.00007694447413 31.378747897222638,170.16009506490082 44.206721568480134,185.5200036689639 61.58655686303973,177.8400556705892 68.2074464969337,129.84009506646544 54.96566722728312,116.88002127408981 38.41344313696027,125.52007445786148 31.79255349934101,171.60008863871917 44.62052717059851,185.5200036689639 61.58655686303973,178.32005278905854 68.2074464969337,134.64011328713968 59.51752885244787,117.84002797165886 39.65485994331539,123.60006401780993 30.964942295104265,170.16009506490082 44.62052717059851,185.04000728903338 61.172751259058714,179.2800468802452 68.2074464969337,131.2801010501571 58.689917646348476,117.84002797165886 39.241054341197014,124.08006670232862 30.551136692985892,165.84011168591678 39.65485994331539,183.12002127291635 59.93133445456624,180.24004077445716 67.79364089667797,133.6801100373268 59.51752885244787,118.32003124663606 39.241054341197014,123.12006128532812 30.964942295104265,165.84011168591678 41.31008235178888,184.56001085881144 59.51752885244787,181.20003447122872 66.13841848634183,124.08006670232862 46.68955518305302,117.84002797165886 35.51680392026901,137.52012185612693 32.20635910332203,174.96007192041725 42.551499158144,184.56001085881144" stroke="#4dd2ff" stroke-linecap="round" stroke-linejoin="round" stroke-width="0.5"><title>2023-09-05 10.4km</title></polyline><polyline fill="none" points="133.96155398525298,175.36919677210972 144.79271233268082,185.516782192979 158.95653478987515,183.58391046477482 170.20427615009248,131.39607399050146 161.45603286847472,116.89935012673959 151.4580405484885,115.93290028395131 138.12738412059844,127.04706151690334 131.87863891758025,172.95310178305954 150.62487451918423,185.0335643342696 164.37211396172643,172.95310178305954 170.20427615009248,132.8457439225167 158.95653478987515,116.4161252300255 148.95854246616364,115.93290028395131 138.12738412059844,127.53028532257304 133.5449709724635,174.40275892522186 151.4580405484885,185.516782192979 161.03944985568523,180.20138303283602 170.20427615009248,134.77863647183403 163.95553094893694,119.79869846953079 141.0434652119875,121.2483719708398 131.46205590479076,163.77192952297628 140.21029918640852,183.10069240955636 153.95753862895072,185.0335643342696 162.2891988940537,178.26850912347436 169.37111012265086,126.0806137546897 156.4570367075503,115.44967528712004 140.62688220106065,122.21482072537765 131.46205590479076,171.50344419386238 148.12537644058466,186.0 162.70578190870583,177.30207187123597 169.787693137303,131.8792973505333 163.12236492335796,118.34902452025563 152.7077895887196,115.44967528712004 138.9605501461774,125.11416579503566 131.87863891758025,168.6041276799515 143.5429632924497,184.55034642713144 163.12236492335796,177.7852905211039 170.20427615009248,134.29541340842843 162.2891988940537,117.38257497549057 147.70879342779517,115.44967528712004 140.21029918640852,123.18126927921548 132.29522193036973,171.02022489951923 146.87562740035355,185.516782192979 160.2062838282436,180.20138303283602 169.787693137303,134.77863647183403 164.37211396172643,118.83224921999499 156.04045369662344,115.44967528712004 141.87663123942912,122.21482072537765 133.5449709724635,173.91953992797062 144.79271233268082,184.55034642713144 162.2891988940537,179.71816462883726 170.20427615009248,129.46318005304784 160.62286684289575,116.4161252300255 138.9605501461774,125.11416579503566 133.12838795781136,169.08734722388908 143.5429632924497,184.06712847063318 161.87261588312685,179.71816462883726 169.787693137303,128.49673278722912 161.87261588312685,116.89935012673959 145.20929534733295,117.38257497549057 138.9605501461774,124.63094173930585 133.5449709724635,167.637688445393 140.62688220106065,183.10069240955636 162.2891988940537,178.26850912347436 169.787693137303,128.49673278722912 156.4570367075503,114.96645024046302 139.37713316082954,125.11416579503566 133.5449709724635,168.12090808711946 144.37612932175398,183.10069240955636 163.95553094893694,176.8188531715423 169.787693137303,130.91285057971254 153.54095561616123,115.93290028395131 139.7937161717564,122.69804502744228 133.12838795781136,169.08734722388908 141.0434652119875,183.58391046477482 161.87261588312685,178.7517276755534 168.95452710986137,126.5638376600109 155.20728766918182,114.96645024046302 141.46004822663963,121.7315963730216 133.5449709724635,169.57056671660393 139.7937161717564,182.61747430358082 150.62487451918423,186.0 162.70578190870583,179.71816462883726 169.787693137303,131.39607399050146 158.12336876243353,115.44967528712004 141.0434652119875,121.2483719708398 133.5449709724635,166.18802922125906 139.7937161717564,181.65103794354945 153.95753862895072,184.55034642713144 161.87261588312685,179.23494617734104 168.95452710986137,129.46318005304784 159.78970081545413,116.4161252300255 141.0434652119875,121.2483719708398 132.29522193036973,169.08734722388908 141.87663123942912,183.58391046477482 163.12236492335796,176.33563442062587 169.787693137303,128.9799564452842 161.87261588312685,116.89935012673959 152.7077895887196,114.96645024046302 139.37713316082954,123.18126927921548 133.12838795781136,173.91953992797062 143.5429632924497,184.55034642713144 162.2891988940537,175.85241562174633 167.28819505497813,123.66449348209426 157.2902027349919,115.44967528712004 147.70879342779517,115.44967528712004 137.7108011059463,128.01350907888263 132.71180494502187,163.28870943421498 133.5449709724635,174.40275892522186 144.79271233268082,183.58391046477482 163.12236492335796,175.85241562174633 166.03844601474702,119.31547387037426 148.12537644058466,115.93290028395131 133.5449709724635,132.36252066167071 135.62788604013622,176.8188531715423 148.54195945337415,185.0335643342696 165.20527998916805,170.05378616135567 169.37111012265086,127.04706151690334 149.79170849360526,114.48322514584288 134.7947200126946,138.16119652381167 133.96155398525298,175.36919677210972 156.87361972220242,182.13425614871085 166.03844601474702,162.80548929655924 164.78869697451591,119.79869846953079 143.95954630710185,117.38257497549057 133.12838795781136,145.89275323506445 133.96155398525298,175.36919677210972 145.62587836012244,185.0335643342696 156.4570367075503,184.06712847063318 165.62186300382018,170.53700555535033 166.45502902939916,121.2483719708398 154.79070465639234,114.48322514584288 144.79271233268082,118.34902452025563 133.12838795781136,160.3893878632225 134.3781369999051,177.7852905211039 141.46004822663963,183.58391046477482 151.4580405484885,185.0335643342696 163.12236492335796,175.36919677210972 169.37111012265086,133.8121902961284 164.37211396172643,118.83224921999499 142.2932142522186,119.31547387037426 133.5449709724635,165.22158949030563 141.46004822663963,183.10069240955636 161.45603286847472,179.23494617734104 168.95452710986137,132.8457439225167 161.45603286847472,116.89935012673959 152.7077895887196,114.48322514584288 139.7937161717564,123.18126927921548 133.5449709724635,168.6041276799515 143.5429632924497,185.516782192979 160.62286684289575,181.65103794354945 168.12136108241975,141.54375414643437 165.20527998916805,119.31547387037426 150.62487451918423,114.48322514584288 138.54396713338792,124.14771763654426 132.71180494502187,169.57056671660393 141.46004822663963,183.58391046477482 162.70578190870583,176.8188531715423 169.37111012265086,128.01350907888263 156.87361972220242,114.48322514584288 143.5429632924497,117.86579977255315 137.7108011059463,130.4296271209605 133.5449709724635,173.91953992797062 147.70879342779517,185.0335643342696 163.53894793614745,174.88597787264735 170.20427615009248,131.39607399050146 158.12336876243353,114.48322514584288 138.54396713338792,125.11416579503566 132.29522193036973,162.80548929655924 137.29421809501946,179.71816462883726 159.37311780266464,179.71816462883726 169.787693137303,129.46318005304784 159.78970081545413,115.44967528712004 151.04145753383636,114.48322514584288 139.7937161717564,125.11416579503566 132.71180494502187,168.12090808711946 142.2932142522186,183.58391046477482 161.45603286847472,178.7517276755534 170.20427615009248,130.91285057971254 164.37211396172643,118.34902452025563 150.62487451918423,114.0 141.46004822663963,119.31547387037426 131.87863891758025,171.02022489951923 146.87562740035355,184.55034642713144 163.12236492335796,175.36919677210972 169.787693137303,128.49673278722912 154.79070465639234,115.93290028395131 139.7937161717564,123.18126927921548 131.46205590479076,172.46988263586536 143.12638027966022,183.58391046477482 163.12236492335796,176.33563442062587 170.62085916474462,134.29541340842843 161.87261588312685,117.86579977255315 143.12638027966022,119.79869846953079 131.04547289200127,162.80548929655924 140.21029918640852,183.10069240955636 162.2891988940537,177.7852905211039 170.62085916474462,137.194751042407 159.78970081545413,115.44967528712004 147.29221041314304,116.4161252300255 135.62788604013622,129.94640361098573 131.04547289200127,172.95310178305954 144.79271233268082,184.06712847063318 164.78869697451591,172.46988263586536 170.62085916474462,131.8792973505333 166.87161204218864,121.2483719708398 153.1243726015091,114.48322514584288 136.0444690529257,130.91285057971254 132.71180494502187,171.98666344070807 144.79271233268082,185.0335643342696 164.37211396172643,174.88597787264735 171.0374421775341,128.9799564452842 158.12336876243353,115.44967528712004 137.7108011059463,127.53028532257304 130.21230686455965,169.08734722388908 148.54195945337415,183.10069240955636 165.20527998916805,174.40275892522186 170.62085916474462,129.46318005304784 158.12336876243353,114.96645024046302 145.20929534733295,115.44967528712004 137.7108011059463,123.18126927921548 130.21230686455965,170.05378616135567 143.5429632924497,182.61747430358082 160.2062838282436,178.7517276755534 169.787693137303,137.194751042407 168.53794409520924,124.63094173930585 155.20728766918182,115.44967528712004 136.4610520657152,129.94640361098573 131.04547289200127,168.6041276799515 142.2932142522186,182.61747430358082 164.37211396172643,173.43632088089362 169.787693137303,129.94640361098573 158.95653478987515,115.93290028395131 151.04145753383636,115.44967528712004 138.9605501461774,127.04706151690334 128.96255782432854,166.67124901153147 141.0434652119875,182.13425614871085 151.87462356127799,184.55034642713144 163.53894793614745,175.85241562174633 169.787693137303,128.9799564452842 159.78970081545413,115.93290028395131 146.04246137291193,116.89935012673959 138.54396713338792,126.5638376600109 129.37914083711803,168.6041276799515 142.70979726687074,182.61747430358082 155.20728766918182,182.61747430358082 163.53894793614745,174.40275892522186 169.787693137303,133.32896713353693 167.70477806963027,123.66449348209426 154.79070465639234,114.48322514584288 138.12738412059844,127.04706151690334 131.87863891758025,171.02022489951923 146.04246137291193,182.13425614871085 163.53894793614745,173.91953992797062 170.20427615009248,131.8792973505333 163.12236492335796,118.83224921999499 153.54095561616123,115.93290028395131 136.4610520657152,134.29541340842843 132.71180494502187,174.40275892522186 145.62587836012244,184.55034642713144 164.78869697451591,172.46988263586536 168.53794409520924,124.63094173930585 156.4570367075503,115.93290028395131 139.7937161717564,125.59738980000839 132.71180494502187,168.12090808711946 135.21130302548409,178.26850912347436 146.87562740035355,185.0335643342696 161.87261588312685,176.33563442062587 169.37111012265086,134.29541340842843 168.12136108241975,124.63094173930585 156.4570367075503,114.96645024046302 138.9605501461774,124.14771763654426 130.21230686455965,169.08734722388908 143.12638027966022,183.58391046477482 152.7077895887196,184.06712847063318 163.95553094893694,173.43632088089362 168.95452710986137,127.04706151690334 156.4570367075503,115.44967528712004 135.62788604013622,128.9799564452842 131.04547289200127,172.95310178305954 144.37612932175398,183.10069240955636 156.4570367075503,182.13425614871085" stroke="#4dd2ff" stroke-linecap="round" stroke-linejoin="round" stroke-width="0.5"><title>2023-06-04 16.5km</title></polyline><polyline fill="none" points="66.74974139186088,194.0 65.35392960929312,196.77893162831606 63.99978385004215,198.34961761355225 57.91654443903826,203.3757423969073 56.54156566795427,205.74378325929865 54.937423768569715,221.66703179565957 52.083301168167964,236.23622401821194 51.27081371261738,236.816073729482 41.12513702362776,236.8402341031906 37.02103372244164,236.47782823791204 36.625206500524655,236.6952718239918 35.95855012664106,239.6186605579569 35.75022000982426,246.2142722053104 36.12521422014106,249.306656608911 37.12519878090825,251.91582439598278 38.208515388309024,252.39900044676324 41.12513702362776,252.66474685248977 45.85423067538068,252.39900044676324 48.35419207718223,253.1479213682469 43.20843819179572,252.71306434861617 38.75017369200941,253.0512865443452 38.14601635327563,258.2453521763382 36.771037582308054,262.3763645381259 36.37521036027465,261.965682338865 37.85435418970883,256.19189804598864 38.062684306525625,253.17208006800502 37.70852310792543,252.71306434861617 35.687720974790864,252.27820652684022 35.50022386969067,257.27902304888994 33.250258608022705,266.0 35.47939085797407,257.23070648855355 35.625221939757466,252.51979430462234 36.979367699008435,251.7708713876491 35.72938699822407,246.93905343968072 36.08354819682427,238.89385681421845 36.958534687408246,236.4053469980281 50.0,237.00935664965073 51.47914382931776,236.98519629325892 52.083301168167964,236.6711114354257 55.0207558152033,222.7784778617788 56.20823748107068,206.8553044359287 57.229055053554475,204.24563772429246" stroke="#4dd2ff" stroke-linecap="round" stroke-linejoin="round" stroke-width="0.5"><title>2023-02-24 10.1km</title></polyline></svg>