<?xml version="1.0" encoding="utf-8" ?>
<svg baseProfile="full" height="200mm" version="1.1" viewBox="0,0,200,200" width="200mm" xmlns="http://www.w3.org/2000/svg" xmlns:ev="http://www.w3.org/2001/xml-events" xmlns:xlink="http://www.w3.org/1999/xlink"><defs /><rect fill="#1a1a1a" height="200" width="200" x="0" y="0" /><text alignment-baseline="middle" fill="#e1ed5e" style="dominant-baseline: central; font-size:9.0px; font-family:Arial;" text-anchor="middle" x="100.0" y="100.0">2023</text><line stroke="#e1ed5e" stroke-width="0.3" x1="100.0" x2="100.0" y1="15.0" y2="10.0" /><path d="M 100.0 14.0 a86.0,86.0 0 0,1 42.46469731375804,11.215312516191453" fill="none" id="id1" stroke="none" /><text fill="#e1ed5e" style="font-size:6.75px; font-family:Arial;" text-anchor="middle"><textPath startOffset="22.20632615414155" xlink:href="#id1">January</textPath></text><path d="M 105.71112130821622 79.79150937346287 l 4.096550953244944 -14.495421664513524 a36.06316629877597,36.06316629877597 0 0,0 0.5959176897877185,0.17396471478803335 l -4.345458860756089 14.422758620806787" fill="#ff960d" stroke="none" /><path d="M 106.0581310904928 79.89281104454417 l 5.588161329147114 -18.54733977861022 a40.37088949696921,40.37088949696921 0 0,0 0.663648646239667,0.2061988648627421 l -5.9065953480974995 18.448400778864954" fill="#ffd113" stroke="none" /><path d="M 106.74666289553966 80.11325718540242 l 6.264321450357937 -18.46497320528574 a40.498639919372195,40.498639919372195 0 0,0 0.6582340293068201,0.22964492806118197 l -6.581237483728031 18.35440742405235" fill="#ffd313" stroke="none" /><path d="M 107.4271985657038 80.35727306442388 l 6.765850345214334 -17.893657971082526 a40.1300738754434,40.1300738754434 0 0,0 0.6440243088491182,0.24987142631550402 l -7.0728578190631195 17.774543840876476" fill="#ffce13" stroke="none" /><path d="M 109.73455568895987 81.39251694778311 l 9.006263566992734 -17.215361649908242 a40.42888211337112,40.42888211337112 0 0,0 0.6138547297700638,0.3278999375076106 l -9.30126334329111 17.057782985898875" fill="#ffd213" stroke="none" /><path d="M 110.36928655335952 81.73862282372117 l 9.624392862319404 -16.949542984185168 a40.491432613869236,40.491432613869236 0 0,0 0.6031358299418224,0.3493752024263841 l -9.914725424726555 16.781363624368733" fill="#ffd313" stroke="none" /><line stroke="#e1ed5e" stroke-width="0.3" x1="143.23703022742887" x2="145.7803849466894" y1="26.81831364943548" y2="22.513508569990506" /><path d="M 143.74570117128098 25.957352633546492 a86.0,86.0 0 0,1 28.547481713284135,27.462654790039103" fill="none" id="id2" stroke="none" /><text fill="#e1ed5e" style="font-size:6.75px; font-family:Arial;" text-anchor="middle"><textPath startOffset="19.985693538727396" xlink:href="#id2">February</textPath></text><path d="M 110.99172775467656 82.1063720568725 l 6.365663445244675 -10.362776066020492 a33.16177614054014,33.16177614054014 0 0,0 0.4838158610847593,0.3029654478259239 l -6.5430984587016985 10.251666276871624" fill="#ff6c0a" stroke="none" /><path d="M 112.19680574252982 82.90503203632743 l 11.409620783285519 -15.99165436305971 a40.644654633918805,40.644654633918805 0 0,0 0.5660342672796305,0.4112479674870024 l -11.683200366918939 15.792887160756033" fill="#ffd513" stroke="none" /><path d="M 113.06298171725822 83.55741782278167 l 12.002357717011067 -15.107557933851766 a40.29494486884538,40.29494486884538 0 0,0 0.5393700979839825,0.4361331085603143 l -12.260631213559542 14.89871872802732" fill="#ffd013" stroke="none" /><path d="M 114.16331599549186 84.49514656593476 l 13.252947323216368 -14.508255402990537 a40.65019306750832,40.65019306750832 0 0,0 0.512564316499694,0.47637267090924945 l -13.50071952351091 14.277978146006648" fill="#ffd513" stroke="none" /><path d="M 114.42810811169701 84.74124197986012 l 8.404782687587543 -8.888659847079223 a33.23309633341656,33.23309633341656 0 0,0 0.41227516483322474,0.3966083819243772 l -8.556541096033186 8.742668378392544" fill="#ff6d0a" stroke="none" /><path d="M 114.68862486808459 84.99185889309783 l 26.892497288728297 -27.47747986288176 a59.44760473734783,59.44760473734783 0 0,0 0.7251594333100949,0.7220453682485524 l -27.361492522205715 27.010498643983087" fill="#47ff2c" stroke="none" /><path d="M 115.19652480421416 85.50635884689758 l 10.676912657414476 -10.183074266865896 a35.75437106143681,35.75437106143681 0 0,0 0.4209356623228954,0.4490248156757682 l -10.850615641707835 9.997780034312074" fill="#ff910d" stroke="none" /><path d="M 115.68641384162765 86.03803664274999 l 14.156970584188675 -12.600655990700234 a39.95247602603821,39.95247602603821 0 0,0 0.45281020782895487,0.5176403437076034 l -14.371772655595478 12.355100090789684" fill="#ffcc13" stroke="none" /><path d="M 115.9244219780498 86.31012108654704 l 14.336142072608354 -12.324469254243036 a39.90548893641191,39.90548893641191 0 0,0 0.4433108110701032,0.5247401728792787 l -14.546163497165574 12.075870131734652" fill="#ffcb12" stroke="none" /><path d="M 116.15771136456269 86.58626213691792 l 14.511975307175588 -12.047487930308234 a39.86105492137162,39.86105492137162 0 0,0 0.43372910271230947,0.5317005952189099 l -14.717202901964304 11.795903165481223" fill="#ffca12" stroke="none" /><path d="M 116.38621287248628 86.86637796730983 l 14.804398320129458 -11.86579067848225 a39.972801533948754,39.972801533948754 0 0,0 0.4257025690616654,0.5405990319355762 l -15.006454969785088 11.609199252593635" fill="#ffcc13" stroke="none" /><path d="M 116.60985879189232 87.15038557335679 l 14.895365630284191 -11.523259016894958 a39.83235024181269,39.83235024181269 0 0,0 0.41487111215734696,0.5459217529539279 l -15.09151268266565 11.265152488059995" fill="#ffca12" stroke="none" /><path d="M 116.82858285166822 87.43820079747576 l 40.56055876930418 -30.27667863023149 a71.61458482054846,71.61458482054846 0 0,0 0.7288911554983493,0.9942067169553923 l -41.07571253731616 29.574009469604604" fill="#3dffa9" stroke="none" /><path d="M 117.04232023915458 87.72973835380427 l 6.392382308638796 -4.602436896432933 a28.87686339639361,28.87686339639361 0 0,0 0.28696366526069195,0.4058897537216306 l -6.47065859370337 4.4917206423795095" fill="#ff2c04" stroke="none" /><path d="M 117.2510076193507 88.02491185347247 l 31.850816428151848 -22.109800348018247 a59.77264214067769,59.77264214067769 0 0,0 0.5794403601038117,0.8502572292673259 l -32.22668125392439 21.558265095480515" fill="#43ff2d" stroke="none" /><path d="M 117.65298651832404 88.62581576622439 l 16.110277555474852 -10.380184949613156 a40.16479278527718,40.16479278527718 0 0,0 0.3694633127911947,0.5844022340291868 l -16.286568464512 10.101335067869762" fill="#ffce13" stroke="none" /><line stroke="#e1ed5e" stroke-width="0.3" x1="172.23445277983987" x2="176.4835382374775" y1="55.19839476539836" y2="52.563006222186495" /><path d="M 173.08426987136738 54.67131705675599 a86.0,86.0 0 0,1 12.851231095245387,41.99856678651699" fill="none" id="id3" stroke="none" /><text fill="#e1ed5e" style="font-size:6.75px; font-family:Arial;" text-anchor="middle"><textPath startOffset="22.20632615414155" xlink:href="#id3">March</textPath></text><path d="M 118.21658344932153 89.55222093294921 l 16.59121584383007 -9.515580024779306 a40.12628313040819,40.12628313040819 0 0,0 0.3384792590422934,0.6021168333055675 l -16.752552744164795 9.228579681538944" fill="#ffce13" stroke="none" /><path d="M 118.3937258080291 89.86733742301442 l 26.783505818185628 -14.754391248234265 a51.57855858307836,51.57855858307836 0 0,0 0.4216962267952614,0.7813390636941933 l -27.033510144199354 14.291171201207613" fill="#9fff22" stroke="none" /><path d="M 118.73160827565052 90.50648371742162 l 17.027485073966865 -8.629835966151234 a40.08950802788908,40.08950802788908 0 0,0 0.306665621443064,0.6182191798393454 l -17.173510708363334 8.33545719781294" fill="#ffcd13" stroke="none" /><path d="M 118.89224826269711 90.83032412892265 l 17.24042798678975 -8.36793664360534 a40.1638910672931,40.1638910672931 0 0,0 0.2965277244483846,0.6245630116862722 l -17.38191390507989 8.069931216278528" fill="#ffce13" stroke="none" /><path d="M 119.04729006885535 91.15688171328212 l 6.726009625648382 -3.122696115940764 a28.41555368916079,28.41555368916079 0 0,0 0.2021532325411543,0.445417851478022 l -6.778765175152884 3.0064562556206793" fill="#ff2503" stroke="none" /><path d="M 119.196687751892 91.48605970444005 l 13.619148395444666 -6.040240786005321 a35.89851374366132,35.89851374366132 0 0,0 0.24566428227639703,0.567027034135336 l -13.721103387563744 5.804914607283382" fill="#ff930d" stroke="none" /><path d="M 119.61058180528143 92.48833698450437 l 6.115972633728496 -2.3426701916711683 a27.549291937565503,27.549291937565503 0 0,0 0.16581448052083092,0.44430037002275075 l -6.1553917027509515 2.2370466846190844" fill="#ff1802" stroke="none" /><path d="M 119.85752413597 93.16781622104841 l 35.69202510679935 -12.280205392317173 a58.745517623976106,58.745517623976106 0 0,0 0.32075809664491794,0.9590258821071546 l -35.898120497216034 11.664006407287705" fill="#4eff2b" stroke="none" /><path d="M 120.6074358757038 95.95851677861258 l 26.2130881854555 -5.140850939498525 a47.71243793817048,47.71243793817048 0 0,0 0.15112182237872265,0.8072988179589948 l -26.29769573174408 4.688874044076967" fill="#ceff1d" stroke="none" /><path d="M 120.94382443527127 98.46500227214037 l 18.6002735015556 -1.3632361009659975 a39.65016318962513,39.65016318962513 0 0,0 0.04402944629335892,0.6811160462640584 l -18.62098353885337 1.042860990448904" fill="#ffc712" stroke="none" /><path d="M 120.96714384426684 98.82574320788733 l 18.61202017342682 -1.0423590006304293 a39.641185778330794,39.641185778330794 0 0,0 0.03229131685775593,0.6816186621356927 l -18.627205098518072 0.7218292318717369" fill="#ffc712" stroke="none" /><line stroke="#e1ed5e" stroke-width="0.3" x1="184.98032266829074" x2="189.97916517819016" y1="98.17113171792111" y2="98.06355123074" /><path d="M 185.9800911702706 98.14961562048488 a86.0,86.0 0 0,1 -9.607161424134198,41.387399972396054" fill="none" id="id4" stroke="none" /><text fill="#e1ed5e" style="font-size:6.75px; font-family:Arial;" text-anchor="middle"><textPath startOffset="21.466115282336823" xlink:href="#id4">April</textPath></text><path d="M 120.99980553446 99.90962569577887 l 18.653172893166953 -0.08027538726347337 a39.65334562806841,39.65334562806841 0 0,0 -0.00293756272732666,0.6825861239076232 l -18.651791033150126 -0.2408202148478345" fill="#ffc712" stroke="none" /><path d="M 120.32669344350535 105.2749913415812 l 18.06028325132411 4.68683399206171 a39.65851666095682,39.65851666095682 0 0,0 -0.17716389225695414,0.6592927496737432 l -17.976931282725378 -4.997017674911001" fill="#ffc812" stroke="none" /><path d="M 120.23288151984713 105.62410040840565 l 10.792903541790247 3.000085438039181 a32.202110493024215,32.202110493024215 0 0,0 -0.15304798738148648,0.5327801220846059 l -10.739662917522661 -3.1854230356283684" fill="#ff5e08" stroke="none" /><path d="M 120.13307415673323 105.97154293290107 l 10.556372692661139 3.1310584890906195 a32.01092783049949,32.01092783049949 0 0,0 -0.16123329293834243,0.5269197302183986 l -10.500912627216664 -3.312305191861075" fill="#ff5b08" stroke="none" /><path d="M 119.54520255179757 107.68017299344265 l 20.751963683117808 8.15436271983408 a43.296583327318565,43.296583327318565 0 0,0 -0.2785359628146527,0.691303417137915 l -20.60852510604576 -8.510365504814809" fill="#fff817" stroke="none" /><path d="M 119.41010516605496 108.01547362559984 l 22.931959338694536 9.469836133813835 a45.810331628433055,45.810331628433055 0 0,0 -0.3072542981485587,0.7262583993707823 l -22.76555405935367 -9.863169058850781" fill="#e6ff1a" stroke="none" /><path d="M 119.26925614724726 108.34839909993367 l 17.061966489226247 7.392091557312309 a39.59445396001634,39.59445396001634 0 0,0 -0.27632953443035957,0.6230501512738613 l -16.932195870064614 -7.684690045078858" fill="#ffc712" stroke="none" /><path d="M 119.12269723197855 108.67885076344098 l 16.973143394049906 7.70327411015554 a39.63942136149008,39.63942136149008 0 0,0 -0.2873393383333429,0.61890337186245 l -16.838029438876735 -7.994297549296821" fill="#ffc712" stroke="none" /><path d="M 118.97047184881838 109.00673069616215 l 18.59859155730744 8.830170742169342 a41.588334640067686,41.588334640067686 0 0,0 -0.3125991993215311,0.6440469394267577 l -18.443839101371193 -9.149006637561376" fill="#ffe115" stroke="none" /><line stroke="#e1ed5e" stroke-width="0.3" x1="174.80103733775053" x2="179.2010983576182" y1="140.37084112569926" y2="142.7455964860345" /><path d="M 175.68104954172406 140.8457921977663 a86.0,86.0 0 0,1 -30.038265399797805,32.042727171017184" fill="none" id="id5" stroke="none" /><text fill="#e1ed5e" style="font-size:6.75px; font-family:Arial;" text-anchor="middle"><textPath startOffset="22.206326154141568" xlink:href="#id5">May</textPath></text><path d="M 118.30583269289576 110.29060199501025 l 4.3629121431264695 2.452605852862163 a26.005025258491123,26.005025258491123 0 0,0 -0.22271199441650374,0.38831713471505025 l -4.320048152557586 -2.527342833435528" fill="#ff0000" stroke="none" /><path d="M 117.94076556474637 110.91462005526583 l 31.21717029112014 18.991583814997878 a57.54027882743758,57.54027882743758 0 0,0 -0.5220694171424621,0.8417421309549478 l -30.885636234309715 -19.5261222773181" fill="#5bff2a" stroke="none" /><path d="M 117.14729908036423 112.12312394758627 l 15.268594872066323 10.794881880348488 a39.69918351634547,39.69918351634547 0 0,0 -0.39929856118293033,0.5545907778440073 l -15.08051651850779 -11.056106263643626" fill="#ffc812" stroke="none" /><path d="M 116.0416608686014 113.55231037782055 l 7.035354581644692 5.943605820460377 a30.20992205387643,30.20992205387643 0 0,0 -0.3390092579656621,0.39434435559584463 l -6.932002814108251 -6.063827275217749" fill="#ff4006" stroke="none" /><path d="M 115.07121518719521 114.62390073753431 l 16.12959401773013 15.650866829399327 a43.47472882346721,43.47472882346721 0 0,0 -0.5257530932327535,0.5325851076880825 l -15.857800299441843 -15.926192431068074" fill="#fffa17" stroke="none" /><path d="M 114.55890576462653 115.13401014063108 l 17.47728806646732 18.167674075568275 a46.20952160344096,46.20952160344096 0 0,0 -0.5779802588175128,0.5465164104207526 l -17.161971973259 -18.465825122734948" fill="#e1ff1b" stroke="none" /><path d="M 114.29624159901734 115.38237550388516 l 13.007989006646845 13.996249997929905 a40.10766317479974,40.10766317479974 0 0,0 -0.5097501605326343,0.46564468558691 l -12.765139296647348 -14.218087450103399" fill="#ffce13" stroke="none" /><path d="M 113.48314897796784 116.09983520530334 l 10.518696706494122 12.560069151935341 a37.38286658386157,37.38286658386157 0 0,0 -0.49688927353258294,0.4089060440678038 l -10.300937304416848 -12.739270314860324" fill="#ffa80f" stroke="none" /><path d="M 113.20401910651253 116.32954008644616 l 10.152855387872119 12.556135954572836 a37.14735342515177,37.14735342515177 0 0,0 -0.500680002493793,0.3977704747515312 l -9.935217892660976 -12.729040343329492" fill="#ffa50f" stroke="none" /><path d="M 112.63410532772338 116.77436683061366 l 11.502679540835938 15.27216697565286 a40.11938076275975,40.11938076275975 0 0,0 -0.5552045251027765,0.4107270346054496 l -11.238090045314598 -15.467903958998079" fill="#ffce13" stroke="none" /><path d="M 112.34349029814194 116.9893568818739 l 17.60401588604744 24.229849193243012 a50.949740687416806,50.949740687416806 0 0,0 -0.7139579208329786,0.5093900197558195 l -17.184330637365576 -24.52928347484305" fill="#a6ff21" stroke="none" /><path d="M 112.04921762599082 117.19931262002967 l 10.07754747287175 14.384908199785158 a38.563671227400896,38.563671227400896 0 0,0 -0.54694876089276,0.3761963450871133 l -9.828441827356107 -14.556245334237365" fill="#ffb911" stroke="none" /><path d="M 111.1453310114006 117.79835938074945 l 5.840341889504839 9.326641241029373 a32.004355057211434,32.004355057211434 0 0,0 -0.4694289071606061,0.28836157564494885 l -5.678933782411924 -9.425791283502699" fill="#ff5b08" stroke="none" /><line stroke="#e1ed5e" stroke-width="0.3" x1="143.8653032363475" x2="146.44561519142675" y1="172.8068346515853" y2="177.08958963109032" /><path d="M 144.38136562736335 173.6633856474863 a86.0,86.0 0 0,1 -40.68145358897372,12.25698825130547" fill="none" id="id6" stroke="none" /><text fill="#e1ed5e" style="font-size:6.75px; font-family:Arial;" text-anchor="middle"><textPath startOffset="21.466115282336833" xlink:href="#id6">June</textPath></text><path d="M 110.5260780823613 118.17145234162733 l 11.522356659216165 19.891354905207912 a43.98762064562407,43.98762064562407 0 0,0 -0.6584553709597356,0.3738881442605113 l -11.17825252133523 -20.08674621526305" fill="#fdff18" stroke="none" /><path d="M 109.89434966115114 118.52300852407294 l 29.683048983453418 55.56902557221878 a84.0,84.0 0 0,0 -1.2812363898940176,0.6702823242211329 l -28.722121691032903 -56.07173731538463" fill="#4dd2ff" stroke="none" /><path d="M 109.2508944713604 118.85261126421891 l 10.753121239648692 21.91403385215579 a45.410131012921944,45.410131012921944 0 0,0 -0.7046945924552868,0.33829622859839714 l -10.374313979193174 -22.095884357253745" fill="#ebff1a" stroke="none" /><path d="M 107.93186726928326 119.44442032107085 l 5.845947719269408 14.330933785122625 a36.47742768970349,36.47742768970349 0 0,0 -0.5834285314846781,0.23215825327039577 l -5.598398111742863 -14.42943888279909" fill="#ff9c0e" stroke="none" /><path d="M 107.2578585660854 119.70592522655815 l 10.056997108251085 27.30591003040157 a50.09907066254446,50.09907066254446 0 0,0 -0.8117968465282187,0.29108146681665925 l -9.585480701093132 -27.47497903825819" fill="#b1ff20" stroke="none" /><path d="M 106.91757812671514 119.82793768551818 l 6.092119308512486 17.46191511093026 a39.49411790301136,39.49411790301136 0 0,0 -0.6438110442450725,0.21841566134995732 l -5.7906385313301865 -17.56419375917834" fill="#ffc512" stroke="none" /><path d="M 104.13013068566511 120.58985236759428 l 3.6364243318093457 18.128588617729086 a39.4897081424189,39.4897081424189 0 0,0 -0.6676250134128653,0.12795192278149964 l -3.323831703824776 -18.188497738859056" fill="#ffc512" stroke="none" /><path d="M 103.41894727170886 120.7198165907248 l 1.2003204182222527 7.2742914526542 a28.37265794978712,28.37265794978712 0 0,0 -0.4825569463698408,0.07536547073812959 l -1.0749276082438948 -7.293875230739436" fill="#ff2503" stroke="none" /><path d="M 102.34483914955558 120.86867818915974 l 2.0667689131055216 18.393899362833928 a39.509647957490756,39.509647957490756 0 0,0 -0.6764943583381765,0.0701214062603017 l -1.7498419581617424 -18.426750137549988" fill="#ffc512" stroke="none" /><line stroke="#e1ed5e" stroke-width="0.3" x1="102.19456741930631" x2="102.32365962044197" y1="184.97166512339345" y2="189.96999836594603" /><path d="M 102.22038585953345 185.97133177190398 a86.0,86.0 0 0,1 -42.740103519485714,-10.115201625700543" fill="none" id="id7" stroke="none" /><text fill="#e1ed5e" style="font-size:6.75px; font-family:Arial;" text-anchor="middle"><textPath startOffset="22.20632615414155" xlink:href="#id7">July</textPath></text><path d="M 99.81925306533755 120.99922214144158 l -0.15932048267569204 18.509891819944823 a39.51057746809268,39.51057746809268 0 0,0 -0.6800340653612945,-0.011707403143272814 l 0.47791423792965443 -18.50440693952239" fill="#ffc612" stroke="none" /><path d="M 95.16358092515715 120.4354850818985 l -4.318004230207475 18.245009306363027 a39.74901397730993,39.74901397730993 0 0,0 -0.6644647995919458,-0.1633092813914446 l 4.631422314542632 -18.16797876665755" fill="#ffc912" stroke="none" /><path d="M 93.76903079525671 120.05430185196036 l -11.044958954092131 35.548071821517134 a58.22440769878441,58.22440769878441 0 0,0 -0.9545438459721044,-0.30561479597912716 l 11.655224145155177 -35.3526841788783" fill="#54ff2b" stroke="none" /><path d="M 92.40401165467489 119.57807347666478 l -6.678117035699848 17.212331044605154 a39.462437193707196,39.462437193707196 0 0,0 -0.6311714733994347,-0.2511561551603035 l 6.97340958514114 -17.09482804503878" fill="#ffc512" stroke="none" /><path d="M 91.07499286063937 119.00905698771935 l -15.789775012274607 33.630083241938664 a58.152382074343166,58.152382074343166 0 0,0 -0.9024345068399163,-0.4332234041378331 l 16.366322187114765 -33.35330556130127" fill="#54ff2b" stroke="none" /><line stroke="#e1ed5e" stroke-width="0.3" x1="58.666819895761336" x2="56.23545636021788" y1="174.27360380694188" y2="178.64263932499728" /><path d="M 58.180547188652646 175.14741091055294 a86.0,86.0 0 0,1 -31.652253787137756,-30.449443065178592" fill="none" id="id8" stroke="none" /><text fill="#e1ed5e" style="font-size:6.75px; font-family:Arial;" text-anchor="middle"><textPath startOffset="22.20632615414155" xlink:href="#id8">August</textPath></text><path d="M 89.1626897886671 117.98757091392108 l -15.303203738936046 25.399979985480044 a50.653786064146566,50.653786064146566 0 0,0 -0.7429723671398141,-0.4563943105783098 l 15.738155306008169 -25.132797208073356" fill="#aaff21" stroke="none" /><path d="M 88.24862548938628 117.40417183066458 l -10.417427293567824 15.428552165276944 a39.61620297841221,39.61620297841221 0 0,0 -0.561876824500106,-0.3864640033575931 l 10.68146100269082 -15.24694737255425" fill="#ffc712" stroke="none" /><path d="M 87.65650970185807 116.9893568818739 l -22.305217488536343 30.70049808339887 a58.947902574183004,58.947902574183004 0 0,0 -0.8157688785885612,-0.6034863141003258 l 22.83037133754347 -30.312001820558777" fill="#4cff2c" stroke="none" /><path d="M 86.79598089348748 116.32954008644616 l -11.774552590733302 14.5617048096753 a39.7265409426318,39.7265409426318 0 0,0 -0.5280411555562368,-0.43454192216393245 l 12.023463874834228 -14.356867768654187" fill="#ffc812" stroke="none" /><path d="M 84.9287848128048 114.62390073753433 l -16.41529192463313 15.928085207584305 a43.87281590340358,43.87281590340358 0 0,0 -0.521237149545537,-0.5465150674198327 l 16.687035625557623 -15.643163023581973" fill="#feff18" stroke="none" /><path d="M 83.06392112726016 112.41649034213515 l -15.473617171123095 11.344303460489547 a40.18661120057814,40.18661120057814 0 0,0 -0.40420116007175494,-0.5614000589071675 l 15.666598123570457 -11.076269796131243" fill="#ffcf13" stroke="none" /><path d="M 82.24976979558568 111.22182372390057 l -25.508451387232856 16.126627184025246 a51.17862151436616,51.17862151436616 0 0,0 -0.46434938531128855,-0.7486790611848525 l 25.7822654122121 -15.685151791475128" fill="#a4ff21" stroke="none" /><line stroke="#e1ed5e" stroke-width="0.3" x1="26.63291911575756" x2="22.317208475507996" y1="142.92168965132927" y2="145.44649492493687" /><path d="M 25.769776987707644 143.4266507060508 a86.0,86.0 0 0,1 -11.730757126820373,-40.83630448921669" fill="none" id="id9" stroke="none" /><text fill="#e1ed5e" style="font-size:6.75px; font-family:Arial;" text-anchor="middle"><textPath startOffset="21.46611528233685" xlink:href="#id9">September</textPath></text><path d="M 81.18737489456691 109.33194174019688 l -35.674041437621284 17.695992689351332 a60.8219209701729,60.8219209701729 0 0,0 -0.45716867388470117,-0.9419028770908032 l 35.9733633681207 -17.07930085629524" fill="#38ff2e" stroke="none" /><line stroke="#e1ed5e" stroke-width="0.3" x1="15.007084014347285" x2="10.007500721073583" y1="101.09737516637583" y2="101.16192664675087" /><path d="M 14.007167355692545 101.11028546245083 a86.0,86.0 0 0,1 10.666146001902534,-42.60595125391555" fill="none" id="id10" stroke="none" /><text fill="#e1ed5e" style="font-size:6.75px; font-family:Arial;" text-anchor="middle"><textPath startOffset="22.20632615414155" xlink:href="#id10">October</textPath></text><line stroke="#e1ed5e" stroke-width="0.3" x1="26.266209847984243" x2="21.928928074336255" y1="57.711370442889674" y2="55.22380399835377" /><path d="M 25.398753493254645 57.213857153982495 a86.0,86.0 0 0,1 29.58750427330803,-30.492523968695096" fill="none" id="id11" stroke="none" /><text fill="#e1ed5e" style="font-size:6.75px; font-family:Arial;" text-anchor="middle"><textPath startOffset="21.46611528233685" xlink:href="#id11">November</textPath></text><line stroke="#e1ed5e" stroke-width="0.3" x1="56.762969772571076" x2="54.21961505331055" y1="26.818313649435495" y2="22.513508569990535" /><path d="M 56.25429882871897 25.957352633546506 a86.0,86.0 0 0,1 42.265352541879196,-11.944610805530505" fill="none" id="id12" stroke="none" /><text fill="#e1ed5e" style="font-size:6.75px; font-family:Arial;" text-anchor="middle"><textPath startOffset="22.20632615414155" xlink:href="#id12">December</textPath></text></svg>