<?xml version="1.0" encoding="utf-8" ?>
<svg baseProfile="full" height="200mm" version="1.1" viewBox="0,0,200,200" width="200mm" xmlns="http://www.w3.org/2000/svg" xmlns:ev="http://www.w3.org/2001/xml-events" xmlns:xlink="http://www.w3.org/1999/xlink"><defs /><rect fill="#1a1a1a" height="200" width="200" x="0" y="0" /><text alignment-baseline="middle" fill="#e1ed5e" style="dominant-baseline: central; font-size:9.0px; font-family:Arial;" text-anchor="middle" x="100.0" y="100.0">2024</text><line stroke="#e1ed5e" stroke-width="0.3" x1="100.0" x2="100.0" y1="15.0" y2="10.0" /><path d="M 100.0 14.0 a86.0,86.0 0 0,1 42.35913384403234,11.155469271406648" fill="none" id="id13" stroke="none" /><text fill="#e1ed5e" style="font-size:6.75px; font-family:Arial;" text-anchor="middle"><textPath startOffset="22.145653131862478" xlink:href="#id13">January</textPath></text><path d="M 104.29559338865022 79.4440306129975 l 8.765148921599188 -41.944410609479704 a63.85045410488021,63.85045410488021 0 0,0 1.0709776024606616,0.23341458376816976 l -9.483888940678984 41.78776456757782" fill="#5fff29" stroke="none" /><path d="M 104.64783097203109 79.52079915486377 l 4.603047614323408 -20.28187710799218 a41.79765819421566,41.79765819421566 0 0,0 0.6983549671105188,0.16480987071609124 l -4.950534735173812 20.199871093629863" fill="#ff1d02" stroke="none" /><path d="M 109.06512990194946 81.05736502329252 l 20.648024108648784 -43.146428998913485 a68.83257503992048,68.83257503992048 0 0,0 1.0614630449322815,0.5192147658678773 l -21.385647402843134 42.78562048294839" fill="#32ff4b" stroke="none" /><line stroke="#e1ed5e" stroke-width="0.3" x1="143.13028292997686" x2="145.6673583964461" y1="26.7553504044142" y2="22.446841604673864" /><path d="M 143.63769802327073 25.89364864446614 a86.0,86.0 0 0,1 29.32050498858742,28.57503671076993" fill="none" id="id14" stroke="none" /><text fill="#e1ed5e" style="font-size:6.75px; font-family:Arial;" text-anchor="middle"><textPath startOffset="20.669276256404974" xlink:href="#id14">February</textPath></text><path d="M 114.65682725009322 84.96080404539774 l 43.97048175027964 -45.117587863806776 a84.0,84.0 0 0,0 1.02403231948015,1.0152799590853623 l -44.73850598988975 44.35612789449276" fill="#4dd2ff" stroke="none" /><path d="M 115.41159269507618 85.73525988315684 l 20.934989150435285 -19.377113416402437 a49.526238712472534,49.526238712472534 0 0,0 0.5721513990618975,0.6288946137417818 l -21.26453825033906 19.014881227102986" fill="#ffb310" stroke="none" /><line stroke="#e1ed5e" stroke-width="0.3" x1="172.87174338648825" x2="177.1583165268699" y1="56.24261187166439" y2="53.66864786411523" /><path d="M 173.72905801456457 55.72781907015455 a86.0,86.0 0 0,1 12.242430191666344,42.057860355516425" fill="none" id="id15" stroke="none" /><text fill="#e1ed5e" style="font-size:6.75px; font-family:Arial;" text-anchor="middle"><textPath startOffset="22.145653131862474" xlink:href="#id15">March</textPath></text><path d="M 118.53625476483649 90.13048839642627 l 36.651584005086505 -19.514904074029605 a62.52312718354062,62.52312718354062 0 0,0 0.4962905144737867,0.9517024998606683 l -36.98118258853523 18.882855331064437" fill="#73ff27" stroke="none" /><path d="M 118.8641267826498 90.77261029715802 l 36.99370822875738 -18.095476473044915 a62.18228645062041,62.18228645062041 0 0,0 0.46080255043785046,0.9629001022261079 l -37.29889003715514 17.457763868753705" fill="#78ff26" stroke="none" /><path d="M 120.51834098615036 95.52812308129327 l 40.35761019964724 -8.795753305190894 a62.30498731669636,62.30498731669636 0 0,0 0.21878630437104674,1.046971667949223 l -40.50265421484265 8.101665185956268" fill="#76ff27" stroke="none" /><path d="M 120.592083275326 95.88100663000786 l 41.32336317885738 -8.265829964054284 a63.141954029285394,63.141954029285394 0 0,0 0.2034785781767307,1.0646859028835394 l -41.45916804931626 7.5552414961374295" fill="#69ff28" stroke="none" /><path d="M 120.65975698304385 96.23510406497455 l 41.76129253934774 -7.610298642517452 a63.44905417067952,63.44905417067952 0 0,0 0.1860724562403052,1.073216480763052 l -41.885779813080276 6.8922891288338075" fill="#65ff29" stroke="none" /><path d="M 120.7213421655516 96.59031103205396 l 32.95052780327643 -5.421996810882748 a54.39364208845324,54.39364208845324 0 0,0 0.14369895715393535,0.922650387604686 l -33.03874825256863 4.85555824134662" fill="#f5ff19" stroke="none" /><path d="M 120.77682067341334 96.94652285012252 l 23.224316428249693 -3.4131747416932576 a44.47378613212622,44.47378613212622 0 0,0 0.10452501024624639,0.756290905066246 l -23.27948595505115 3.013995528426926" fill="#ff5207" stroke="none" /><path d="M 120.82617615685814 97.30363454192243 l 41.52366367727111 -5.3760695957310585 a62.870237275196665,62.870237275196665 0 0,0 0.12938669006637754,1.0715074025770581 l -41.60983245359715 4.662468516230588" fill="#6dff28" stroke="none" /><line stroke="#e1ed5e" stroke-width="0.3" x1="184.99686870605535" x2="189.99668451229388" y1="99.2704041080226" y2="99.22748670261217" /><path d="M 185.99683186730306 99.26182062694052 a86.0,86.0 0 0,1 -10.086455211305974,41.156179273409016" fill="none" id="id16" stroke="none" /><text fill="#e1ed5e" style="font-size:6.75px; font-family:Arial;" text-anchor="middle"><textPath startOffset="21.40746469413373" xlink:href="#id16">April</textPath></text><path d="M 119.4528033332814 107.91128576633889 l 39.35437425261286 16.00508140311058 a63.484460730188324,63.484460730188324 0 0,0 -0.41922161794359597,1.0059792707932624 l -39.07382679013277 -16.678293183345122" fill="#64ff29" stroke="none" /><line stroke="#e1ed5e" stroke-width="0.3" x1="174.33088141563837" x2="178.70328620479359" y1="141.23008692659167" y2="143.65538615756765" /><path d="M 175.20536237346943 141.71514677278685 a86.0,86.0 0 0,1 -30.301960400862466,31.631185727798858" fill="none" id="id17" stroke="none" /><text fill="#e1ed5e" style="font-size:6.75px; font-family:Arial;" text-anchor="middle"><textPath startOffset="22.145653131862474" xlink:href="#id17">May</textPath></text><path d="M 117.62189284568427 111.42229804090321 l 16.283615214296265 10.554842648849148 a40.405175283651154,40.405175283651154 0 0,0 -0.3822628985707514,0.5787947497409288 l -16.100027876804788 -10.832817276929138" fill="#ff0000" stroke="none" /><path d="M 114.65682725009322 115.03919595460226 l 36.21286394973932 37.15758859162497 a72.88504510344757,72.88504510344757 0 0,0 -0.9035229813988148,0.8655545776633569 l -35.569668482475194 -37.77375529959391" fill="#39ff8d" stroke="none" /><line stroke="#e1ed5e" stroke-width="0.3" x1="143.1302829299769" x2="145.66735839644613" y1="173.24464959558577" y2="177.55315839532614" /><path d="M 143.63769802327073 174.10635135553383 a86.0,86.0 0 0,1 -40.68552437913181,11.842963189579606" fill="none" id="id18" stroke="none" /><text fill="#e1ed5e" style="font-size:6.75px; font-family:Arial;" text-anchor="middle"><textPath startOffset="21.407464694133747" xlink:href="#id18">June</textPath></text><line stroke="#e1ed5e" stroke-width="0.3" x1="101.45913802915013" x2="101.54496967792366" y1="184.9874750549273" y2="189.98673829345242" /><path d="M 101.47630435890484 185.9873277026323 a86.0,86.0 0 0,1 -42.54439059252881,-10.42667462771756" fill="none" id="id19" stroke="none" /><text fill="#e1ed5e" style="font-size:6.75px; font-family:Arial;" text-anchor="middle"><textPath startOffset="22.145653131862474" xlink:href="#id19">July</textPath></text><line stroke="#e1ed5e" stroke-width="0.3" x1="58.13341422392154" x2="55.67067388415222" y1="173.97424548756322" y2="178.32567169271397" /><path d="M 57.64086615596768 174.84453072859336 a86.0,86.0 0 0,1 -31.369924170532247,-30.572349798747897" fill="none" id="id20" stroke="none" /><text fill="#e1ed5e" style="font-size:6.75px; font-family:Arial;" text-anchor="middle"><textPath startOffset="22.145653131862474" xlink:href="#id20">August</textPath></text><line stroke="#e1ed5e" stroke-width="0.3" x1="26.387840678322732" x2="22.057713659400548" y1="142.50000000000003" y2="145.00000000000006" /><path d="M 25.521815274538298 143.00000000000003 a86.0,86.0 0 0,1 -11.493303480769221,-40.785679425670985" fill="none" id="id21" stroke="none" /><text fill="#e1ed5e" style="font-size:6.75px; font-family:Arial;" text-anchor="middle"><textPath startOffset="21.40746469413373" xlink:href="#id21">September</textPath></text><line stroke="#e1ed5e" stroke-width="0.3" x1="15.003131293944662" x2="10.003315487706104" y1="100.72959589197737" y2="100.7725132973878" /><path d="M 14.003168132696942 100.73817937305945 a86.0,86.0 0 0,1 10.791469493833604,-42.45332614584628" fill="none" id="id22" stroke="none" /><text fill="#e1ed5e" style="font-size:6.75px; font-family:Arial;" text-anchor="middle"><textPath startOffset="22.145653131862435" xlink:href="#id22">October</textPath></text><line stroke="#e1ed5e" stroke-width="0.3" x1="26.387840678322718" x2="22.05771365940052" y1="57.49999999999999" y2="54.99999999999999" /><path d="M 25.521815274538284 56.99999999999999 a86.0,86.0 0 0,1 29.574782752854787,-30.34633250058573" fill="none" id="id23" stroke="none" /><text fill="#e1ed5e" style="font-size:6.75px; font-family:Arial;" text-anchor="middle"><textPath startOffset="21.40746469413373" xlink:href="#id23">November</textPath></text><line stroke="#e1ed5e" stroke-width="0.3" x1="56.869717070023135" x2="54.33264160355391" y1="26.7553504044142" y2="22.446841604673864" /><path d="M 56.362301976729285 25.89364864446614 a86.0,86.0 0 0,1 42.16139366436587,-11.88097634709845" fill="none" id="id24" stroke="none" /><text fill="#e1ed5e" style="font-size:6.75px; font-family:Arial;" text-anchor="middle"><textPath startOffset="22.145653131862474" xlink:href="#id24">December</textPath></text></svg>