<?xml version="1.0" encoding="utf-8" ?>
<svg baseProfile="full" height="200mm" version="1.1" viewBox="0,0,200,200" width="200mm" xmlns="http://www.w3.org/2000/svg" xmlns:ev="http://www.w3.org/2001/xml-events" xmlns:xlink="http://www.w3.org/1999/xlink"><defs /><rect fill="#1a1a1a" height="200" width="200" x="0" y="0" /><text alignment-baseline="middle" fill="#e1ed5e" style="dominant-baseline: central; font-size:9.0px; font-family:Arial;" text-anchor="middle" x="100.0" y="100.0">2024</text><line stroke="#e1ed5e" stroke-width="0.3" x1="100.0" x2="100.0" y1="15.0" y2="10.0" /><path d="M 100.0 14.0 a86.0,86.0 0 0,1 42.35913384403234,11.155469271406648" fill="none" id="id13" stroke="none" /><text fill="#e1ed5e" style="font-size:6.75px; font-family:Arial;" text-anchor="middle"><textPath startOffset="22.145653131862478" xlink:href="#id13">January</textPath></text><path d="M 104.29559338865022 79.4440306129975 l 2.3013258864115795 -11.012677455828188 a32.2505629006541,32.2505629006541 0 0,0 0.5409457304190004,0.117896604202381 l -2.490034033449714 10.971549393492088" fill="#ff5e08" stroke="none" /><path d="M 104.64783097203109 79.52079915486377 l 1.2085490761171036 -5.325090221641667 a26.46051066641273,26.46051066641273 0 0,0 0.4421020184984303,0.10433487258424311 l -1.2997832483554188 5.303559205411196" fill="#ff0600" stroke="none" /><path d="M 109.06512990194946 81.05736502329252 l 5.421223622041352 -11.328272325954133 a33.558639235648,33.558639235648 0 0,0 0.5175057792941173,0.25313800919805984 l -5.6148896505975365 11.233540566658853" fill="#ff710a" stroke="none" /><line stroke="#e1ed5e" stroke-width="0.3" x1="143.13028292997686" x2="145.6673583964461" y1="26.7553504044142" y2="22.446841604673864" /><path d="M 143.63769802327073 25.89364864446614 a86.0,86.0 0 0,1 29.32050498858742,28.57503671076993" fill="none" id="id14" stroke="none" /><text fill="#e1ed5e" style="font-size:6.75px; font-family:Arial;" text-anchor="middle"><textPath startOffset="20.669276256404974" xlink:href="#id14">February</textPath></text><path d="M 114.65682725009322 84.96080404539774 l 11.544630763836972 -11.845808190157225 a37.54090901828938,37.54090901828938 0 0,0 0.4576560016356209,0.45374443538233517 l -11.746278685602556 11.64588374454623" fill="#ffa90f" stroke="none" /><path d="M 115.41159269507618 85.73525988315684 l 5.496567473590879 -5.087540794568051 a28.489681256777978,28.489681256777978 0 0,0 0.3291267702464955,0.36176797502483676 l -5.583091944679252 4.992435243985543" fill="#ff2503" stroke="none" /><line stroke="#e1ed5e" stroke-width="0.3" x1="172.87174338648825" x2="177.1583165268699" y1="56.24261187166439" y2="53.66864786411523" /><path d="M 173.72905801456457 55.72781907015455 a86.0,86.0 0 0,1 12.242430191666344,42.057860355516425" fill="none" id="id15" stroke="none" /><text fill="#e1ed5e" style="font-size:6.75px; font-family:Arial;" text-anchor="middle"><textPath startOffset="22.145653131862474" xlink:href="#id15">March</textPath></text><path d="M 118.53625476483649 90.13048839642627 l 9.623024069909942 -5.12371829824077 a31.902067760282605,31.902067760282605 0 0,0 0.25322939422160345,0.4856007529671048 l -9.70956153310649 4.957771302169167" fill="#ff5808" stroke="none" /><path d="M 118.8641267826498 90.77261029715802 l 9.712850191444746 -4.751041745765587 a31.81257862452133,31.81257862452133 0 0,0 0.23574748055984057,0.4926215640840601 l -9.792976929964498 4.583607679616423" fill="#ff5708" stroke="none" /><path d="M 120.51834098615036 95.52812308129327 l 10.59605648425322 -2.309361193150488 a31.84479424138209,31.84479424138209 0 0,0 0.1118241916993589,0.5351192380945252 l -10.634138386776945 2.1271255037705585" fill="#ff5808" stroke="none" /><path d="M 120.592083275326 95.88100663000786 l 10.849618899543009 -2.170227641207494 a32.06454329287847,32.06454329287847 0 0,0 0.10332983480516111,0.5406653587326907 l -10.885275026630326 1.983659717441489" fill="#ff5b08" stroke="none" /><path d="M 120.65975698304385 96.23510406497455 l 10.964599053643147 -1.9981151975855933 a32.14517369761345,32.14517369761345 0 0,0 0.09426982804339777,0.5437233169223815 l -10.997283699178778 1.809598847742619" fill="#ff5c08" stroke="none" /><path d="M 120.7213421655516 96.59031103205396 l 8.651296547596987 -1.4235675547026463 a29.76763802499086,29.76763802499086 0 0,0 0.07864114953308245,0.5049325933566075 l -8.674459189268335 1.2748467794145977" fill="#ff3805" stroke="none" /><path d="M 120.77682067341334 96.94652285012252 l 6.09763976272447 -0.8961430613630403 a27.163139059147348,27.163139059147348 0 0,0 0.06384046953058127,0.4619178354289735 l -6.112124748810264 0.7913369177339812" fill="#ff1101" stroke="none" /><path d="M 120.82617615685814 97.30363454192243 l 10.902208618917285 -1.4115091755393527 a31.993202941955822,31.993202941955822 0 0,0 0.0658418802391677,0.5452652203999264 l -10.924832585416118 1.2241502782160134" fill="#ff5a08" stroke="none" /><path d="M 120.98066250479742 99.09900007780936 l 62.94198751439227 -2.7029997665719256 a84.0,84.0 0 0,0 0.049501252012607466,1.4411749417435202 l -62.97911345340172 1.6221185602642854" fill="#4dd2ff" stroke="none" /><line stroke="#e1ed5e" stroke-width="0.3" x1="184.99686870605535" x2="189.99668451229388" y1="99.2704041080226" y2="99.22748670261217" /><path d="M 185.99683186730306 99.26182062694052 a86.0,86.0 0 0,1 -10.086455211305974,41.156179273409016" fill="none" id="id16" stroke="none" /><text fill="#e1ed5e" style="font-size:6.75px; font-family:Arial;" text-anchor="middle"><textPath startOffset="21.40746469413373" xlink:href="#id16">April</textPath></text><path d="M 119.4528033332814 107.91128576633889 l 10.332652761653645 4.202199925701072 a32.15446983538307,32.15446983538307 0 0,0 -0.21233304518089516,0.5095220113031692 l -10.258993871936264 -4.378954446445519" fill="#ff5c08" stroke="none" /><line stroke="#e1ed5e" stroke-width="0.3" x1="174.33088141563837" x2="178.70328620479359" y1="141.23008692659167" y2="143.65538615756765" /><path d="M 175.20536237346943 141.71514677278685 a86.0,86.0 0 0,1 -30.301960400862466,31.631185727798858" fill="none" id="id17" stroke="none" /><text fill="#e1ed5e" style="font-size:6.75px; font-family:Arial;" text-anchor="middle"><textPath startOffset="22.145653131862474" xlink:href="#id17">May</textPath></text><path d="M 117.62189284568427 111.42229804090321 l 4.275330122992179 2.771217332650385 a26.094908553187803,26.094908553187803 0 0,0 -0.24687717133890072,0.37380350312862054 l -4.227128512732552 -2.8442007141180667" fill="#ff0000" stroke="none" /><path d="M 114.65682725009322 115.03919595460226 l 9.507836315624282 9.755877654493592 a34.62263191215821,34.62263191215821 0 0,0 -0.42920112849964115,0.41116497218034165 l -9.338962701259328 -9.917654756979514" fill="#ff800b" stroke="none" /><path d="M 112.16784306229584 117.11559508785304 l 29.041783515557448 40.850905516822074 a71.12206770783533,71.12206770783533 0 0,0 -1.0011443971575449,0.6988765420081401 l -28.336244027226144 -41.34342687463534" fill="#3cffa3" stroke="none" /><line stroke="#e1ed5e" stroke-width="0.3" x1="143.1302829299769" x2="145.66735839644613" y1="173.24464959558577" y2="177.55315839532614" /><path d="M 143.63769802327073 174.10635135553383 a86.0,86.0 0 0,1 -40.68552437913181,11.842963189579606" fill="none" id="id18" stroke="none" /><text fill="#e1ed5e" style="font-size:6.75px; font-family:Arial;" text-anchor="middle"><textPath startOffset="21.407464694133747" xlink:href="#id18">June</textPath></text><line stroke="#e1ed5e" stroke-width="0.3" x1="101.45913802915013" x2="101.54496967792366" y1="184.9874750549273" y2="189.98673829345242" /><path d="M 101.47630435890484 185.9873277026323 a86.0,86.0 0 0,1 -42.54439059252881,-10.42667462771756" fill="none" id="id19" stroke="none" /><text fill="#e1ed5e" style="font-size:6.75px; font-family:Arial;" text-anchor="middle"><textPath startOffset="22.145653131862474" xlink:href="#id19">July</textPath></text><line stroke="#e1ed5e" stroke-width="0.3" x1="58.13341422392154" x2="55.67067388415222" y1="173.97424548756322" y2="178.32567169271397" /><path d="M 57.64086615596768 174.84453072859336 a86.0,86.0 0 0,1 -31.369924170532247,-30.572349798747897" fill="none" id="id20" stroke="none" /><text fill="#e1ed5e" style="font-size:6.75px; font-family:Arial;" text-anchor="middle"><textPath startOffset="22.145653131862474" xlink:href="#id20">August</textPath></text><line stroke="#e1ed5e" stroke-width="0.3" x1="26.387840678322732" x2="22.057713659400548" y1="142.50000000000003" y2="145.00000000000006" /><path d="M 25.521815274538298 143.00000000000003 a86.0,86.0 0 0,1 -11.493303480769221,-40.785679425670985" fill="none" id="id21" stroke="none" /><text fill="#e1ed5e" style="font-size:6.75px; font-family:Arial;" text-anchor="middle"><textPath startOffset="21.40746469413373" xlink:href="#id21">September</textPath></text><line stroke="#e1ed5e" stroke-width="0.3" x1="15.003131293944662" x2="10.003315487706104" y1="100.72959589197737" y2="100.7725132973878" /><path d="M 14.003168132696942 100.73817937305945 a86.0,86.0 0 0,1 10.791469493833604,-42.45332614584628" fill="none" id="id22" stroke="none" /><text fill="#e1ed5e" style="font-size:6.75px; font-family:Arial;" text-anchor="middle"><textPath startOffset="22.145653131862435" xlink:href="#id22">October</textPath></text><line stroke="#e1ed5e" stroke-width="0.3" x1="26.387840678322718" x2="22.05771365940052" y1="57.49999999999999" y2="54.99999999999999" /><path d="M 25.521815274538284 56.99999999999999 a86.0,86.0 0 0,1 29.574782752854787,-30.34633250058573" fill="none" id="id23" stroke="none" /><text fill="#e1ed5e" style="font-size:6.75px; font-family:Arial;" text-anchor="middle"><textPath startOffset="21.40746469413373" xlink:href="#id23">November</textPath></text><line stroke="#e1ed5e" stroke-width="0.3" x1="56.869717070023135" x2="54.33264160355391" y1="26.7553504044142" y2="22.446841604673864" /><path d="M 56.362301976729285 25.89364864446614 a86.0,86.0 0 0,1 42.16139366436587,-11.88097634709845" fill="none" id="id24" stroke="none" /><text fill="#e1ed5e" style="font-size:6.75px; font-family:Arial;" text-anchor="middle"><textPath startOffset="22.145653131862474" xlink:href="#id24">December</textPath></text></svg>