<?xml version="1.0" encoding="utf-8" ?>
<svg baseProfile="full" height="200mm" version="1.1" viewBox="0,0,200,200" width="200mm" xmlns="http://www.w3.org/2000/svg" xmlns:ev="http://www.w3.org/2001/xml-events" xmlns:xlink="http://www.w3.org/1999/xlink"><defs /><rect fill="#1a1a1a" height="200" width="200" x="0" y="0" /><text alignment-baseline="middle" fill="#e1ed5e" style="dominant-baseline: central; font-size:9.0px; font-family:Arial;" text-anchor="middle" x="100.0" y="100.0">2023</text><line stroke="#e1ed5e" stroke-width="0.3" x1="100.0" x2="100.0" y1="15.0" y2="10.0" /><path d="M 100.0 14.0 a86.0,86.0 0 0,1 42.46469731375804,11.215312516191453" fill="none" id="id1" stroke="none" /><text fill="#e1ed5e" style="font-size:6.75px; font-family:Arial;" text-anchor="middle"><textPath startOffset="22.20632615414155" xlink:href="#id1">January</textPath></text><line stroke="#e1ed5e" stroke-width="0.3" x1="143.23703022742887" x2="145.7803849466894" y1="26.81831364943548" y2="22.513508569990506" /><path d="M 143.74570117128098 25.957352633546492 a86.0,86.0 0 0,1 28.547481713284135,27.462654790039103" fill="none" id="id2" stroke="none" /><text fill="#e1ed5e" style="font-size:6.75px; font-family:Arial;" text-anchor="middle"><textPath startOffset="19.985693538727396" xlink:href="#id2">February</textPath></text><line stroke="#e1ed5e" stroke-width="0.3" x1="172.23445277983987" x2="176.4835382374775" y1="55.19839476539836" y2="52.563006222186495" /><path d="M 173.08426987136738 54.67131705675599 a86.0,86.0 0 0,1 12.851231095245387,41.99856678651699" fill="none" id="id3" stroke="none" /><text fill="#e1ed5e" style="font-size:6.75px; font-family:Arial;" text-anchor="middle"><textPath startOffset="22.20632615414155" xlink:href="#id3">March</textPath></text><line stroke="#e1ed5e" stroke-width="0.3" x1="184.98032266829074" x2="189.97916517819016" y1="98.17113171792111" y2="98.06355123074" /><path d="M 185.9800911702706 98.14961562048488 a86.0,86.0 0 0,1 -9.607161424134198,41.387399972396054" fill="none" id="id4" stroke="none" /><text fill="#e1ed5e" style="font-size:6.75px; font-family:Arial;" text-anchor="middle"><textPath startOffset="21.466115282336823" xlink:href="#id4">April</textPath></text><line stroke="#e1ed5e" stroke-width="0.3" x1="174.80103733775053" x2="179.2010983576182" y1="140.37084112569926" y2="142.7455964860345" /><path d="M 175.68104954172406 140.8457921977663 a86.0,86.0 0 0,1 -30.038265399797805,32.042727171017184" fill="none" id="id5" stroke="none" /><text fill="#e1ed5e" style="font-size:6.75px; font-family:Arial;" text-anchor="middle"><textPath startOffset="22.206326154141568" xlink:href="#id5">May</textPath></text><path d="M 115.07121518719521 114.62390073753431 l 16.098874201405646 15.621058778819156 a43.43192430274334,43.43192430274334 0 0,0 -0.5252354451695235,0.532060732932996 l -15.827598131180586 -15.895860005732816" fill="#ffe215" stroke="none" /><path d="M 114.55890576462653 115.13401014063108 l 8.743999735663973 9.08940430061288 a33.61248595310582,33.61248595310582 0 0,0 -0.4204188369963447,0.39753225160074945 l -8.586245064276822 -9.23857118895955" fill="#ff5207" stroke="none" /><path d="M 114.29624159901734 115.38237550388516 l 12.976965602424874 13.962869640592912 a40.062092352276274,40.062092352276274 0 0,0 -0.5091709761010782,0.46511561434101384 l -12.734695076856932 -14.184178021520509" fill="#ffb310" stroke="none" /><path d="M 113.48314897796784 116.09983520530334 l 5.23042281686113 6.245495436053139 a29.146381778734785,29.146381778734785 0 0,0 -0.38741075234693323,0.3188126743917893 l -5.1221419359695055 -6.334603229302107" fill="#ff0c01" stroke="none" /><path d="M 113.20401910651253 116.32954008644616 l 10.050310791446067 12.429318045231751 a36.984263951592546,36.984263951592546 0 0,0 -0.49848184756485914,0.3960241275331394 l -9.834871451163858 -12.600476086770017" fill="#ff850c" stroke="none" /><path d="M 112.63410532772338 116.77436683061366 l 11.440534096903953 15.189656149098408 a40.01608462197897,40.01608462197897 0 0,0 -0.5537750293404596,0.4096695278149047 l -11.177374097144929 -15.384335625653081" fill="#ffb210" stroke="none" /><path d="M 112.34349029814194 116.9893568818739 l 17.565254708615814 24.176499009409948 a50.88379623358703,50.88379623358703 0 0,0 -0.713033842230977,0.5087307142091 l -17.14649353853595 -24.475273985463268" fill="#b9ff1f" stroke="none" /><path d="M 112.04921762599082 117.19931262002967 l 10.019397865924391 14.301904199055508 a38.462325083294374,38.462325083294374 0 0,0 -0.5455113679740865,0.3752076931308012 l -9.771729613327421 -14.472252681551403" fill="#ff9b0e" stroke="none" /><path d="M 111.1453310114006 117.79835938074945 l 5.752815018832996 9.18686659475854 a31.839437184226902,31.839437184226902 0 0,0 -0.4670099483424081,0.2868756535690057 l -5.593825870558279 -9.284530715155924" fill="#ff3705" stroke="none" /><line stroke="#e1ed5e" stroke-width="0.3" x1="143.8653032363475" x2="146.44561519142675" y1="172.8068346515853" y2="177.08958963109032" /><path d="M 144.38136562736335 173.6633856474863 a86.0,86.0 0 0,1 -40.68145358897372,12.25698825130547" fill="none" id="id6" stroke="none" /><text fill="#e1ed5e" style="font-size:6.75px; font-family:Arial;" text-anchor="middle"><textPath startOffset="21.466115282336833" xlink:href="#id6">June</textPath></text><path d="M 110.5260780823613 118.17145234162733 l 11.466138978449113 19.794304807458104 a43.87546383974911,43.87546383974911 0 0,0 -0.6567764838061654,0.372934828318451 l -11.123713727721748 -19.98874280157118" fill="#ffe915" stroke="none" /><path d="M 109.89434966115114 118.52300852407294 l 29.683048983453418 55.56902557221878 a84.0,84.0 0 0,0 -1.2812363898940176,0.6702823242211329 l -28.722121691032903 -56.07173731538463" fill="#4dd2ff" stroke="none" /><path d="M 109.2508944713604 118.85261126421891 l 10.822363495867359 22.05514424354435 a45.56731444908519,45.56731444908519 0 0,0 -0.7071338348669913,0.33946721318853257 l -10.441116993000135 -22.238165733232442" fill="#feff18" stroke="none" /><path d="M 107.93186726928326 119.44442032107085 l 5.794615778899586 14.20509710750798 a36.34152390927328,36.34152390927328 0 0,0 -0.5812548545545475,0.23129330236031753 l -5.549239848303173 -14.302737254274366" fill="#ff7c0b" stroke="none" /><path d="M 107.2578585660854 119.70592522655815 l 9.974176749124053 27.081043178928294 a49.859436957115875,49.859436957115875 0 0,0 -0.8079138625962585,0.28968916692860935 l -9.506543325898061 -27.248719886896865" fill="#c6ff1e" stroke="none" /><path d="M 106.91757812671514 119.82793768551818 l 6.0920606520234974 17.46174698312784 a39.493939836895414,39.493939836895414 0 0,0 -0.643808141510738,0.21841467658486968 l -5.7905827775755325 -17.564024646610832" fill="#ffaa0f" stroke="none" /><path d="M 104.13013068566511 120.58985236759428 l 3.6376240598455807 18.134569596305163 a39.495808261441375,39.495808261441375 0 0,0 -0.6677281438799103,0.1279716879809614 l -3.324928301393966 -18.194498482634593" fill="#ffaa0f" stroke="none" /><path d="M 103.41894727170886 120.7198165907248 l 1.2110035305725424 7.339034226065114 a28.43827620638104,28.43827620638104 0 0,0 -0.4836729696054543,0.07553977061535534 l -1.084494697358571 -7.358792304027575" fill="#ff0000" stroke="none" /><path d="M 102.34483914955558 120.86867818915974 l 2.066666418816836 18.392987180722326 a39.50873003522611,39.50873003522611 0 0,0 -0.6764786414369757,0.07011977713922969 l -1.7497551807742577 -18.425836326317313" fill="#ffab0f" stroke="none" /><line stroke="#e1ed5e" stroke-width="0.3" x1="102.19456741930631" x2="102.32365962044197" y1="184.97166512339345" y2="189.96999836594603" /><path d="M 102.22038585953345 185.97133177190398 a86.0,86.0 0 0,1 -42.740103519485714,-10.115201625700543" fill="none" id="id7" stroke="none" /><text fill="#e1ed5e" style="font-size:6.75px; font-family:Arial;" text-anchor="middle"><textPath startOffset="22.20632615414155" xlink:href="#id7">July</textPath></text><path d="M 99.81925306533755 120.99922214144158 l -0.15904787601368442 18.478220312688418 a39.4789047876522,39.4789047876522 0 0,0 -0.6794889328165165,-0.011698018192145632 l 0.47709649872286886 -18.472744817217112" fill="#ffaa0f" stroke="none" /><path d="M 95.16358092515715 120.4354850818985 l -4.267712228563707 18.032508810970487 a39.53064331542649,39.53064331542649 0 0,0 -0.6608144041842015,-0.16241210301390002 l 4.577479917491119 -17.956375449642557" fill="#ffab0f" stroke="none" /><path d="M 93.76903079525671 120.05430185196036 l -5.506002413187984 17.72100467253764 a39.55667182385173,39.55667182385173 0 0,0 -0.648500846104513,-0.20762949194092234 l 5.810224604383437 -17.623602333937008" fill="#ffab0f" stroke="none" /><path d="M 92.40401165467489 119.57807347666478 l -6.7065937835531155 17.28572766351793 a39.54116450050812,39.54116450050812 0 0,0 -0.6324306564039307,-0.25165721006436803 l 7.003145515998905 -17.1677236090475" fill="#ffab0f" stroke="none" /><path d="M 91.07499286063937 119.00905698771935 l -15.713614265137307 33.4678711607656 a57.973180459721505,57.973180459721505 0 0,0 -0.8996535765504353,-0.43188838860202683 l 16.287380509687985 -33.192428495664004" fill="#63ff29" stroke="none" /><line stroke="#e1ed5e" stroke-width="0.3" x1="58.666819895761336" x2="56.23545636021788" y1="174.27360380694188" y2="178.64263932499728" /><path d="M 58.180547188652646 175.14741091055294 a86.0,86.0 0 0,1 -31.652253787137756,-30.449443065178592" fill="none" id="id8" stroke="none" /><text fill="#e1ed5e" style="font-size:6.75px; font-family:Arial;" text-anchor="middle"><textPath startOffset="22.20632615414155" xlink:href="#id8">August</textPath></text><path d="M 89.1626897886671 117.98757091392108 l -15.225223566419164 25.27054990959642 a50.50267996946801,50.50267996946801 0 0,0 -0.7407559947503859,-0.4550328336332762 l 15.657958761101858 -25.004728609134766" fill="#beff1f" stroke="none" /><line stroke="#e1ed5e" stroke-width="0.3" x1="26.63291911575756" x2="22.317208475507996" y1="142.92168965132927" y2="145.44649492493687" /><path d="M 25.769776987707644 143.4266507060508 a86.0,86.0 0 0,1 -11.730757126820373,-40.83630448921669" fill="none" id="id9" stroke="none" /><text fill="#e1ed5e" style="font-size:6.75px; font-family:Arial;" text-anchor="middle"><textPath startOffset="21.46611528233685" xlink:href="#id9">September</textPath></text><line stroke="#e1ed5e" stroke-width="0.3" x1="15.007084014347285" x2="10.007500721073583" y1="101.09737516637583" y2="101.16192664675087" /><path d="M 14.007167355692545 101.11028546245083 a86.0,86.0 0 0,1 10.666146001902534,-42.60595125391555" fill="none" id="id10" stroke="none" /><text fill="#e1ed5e" style="font-size:6.75px; font-family:Arial;" text-anchor="middle"><textPath startOffset="22.20632615414155" xlink:href="#id10">October</textPath></text><line stroke="#e1ed5e" stroke-width="0.3" x1="26.266209847984243" x2="21.928928074336255" y1="57.711370442889674" y2="55.22380399835377" /><path d="M 25.398753493254645 57.213857153982495 a86.0,86.0 0 0,1 29.58750427330803,-30.492523968695096" fill="none" id="id11" stroke="none" /><text fill="#e1ed5e" style="font-size:6.75px; font-family:Arial;" text-anchor="middle"><textPath startOffset="21.46611528233685" xlink:href="#id11">November</textPath></text><line stroke="#e1ed5e" stroke-width="0.3" x1="56.762969772571076" x2="54.21961505331055" y1="26.818313649435495" y2="22.513508569990535" /><path d="M 56.25429882871897 25.957352633546506 a86.0,86.0 0 0,1 42.265352541879196,-11.944610805530505" fill="none" id="id12" stroke="none" /><text fill="#e1ed5e" style="font-size:6.75px; font-family:Arial;" text-anchor="middle"><textPath startOffset="22.20632615414155" xlink:href="#id12">December</textPath></text></svg>